SplineFontDB: 3.0
FontName: AyannaNarrowBeta
FullName: AyannaNarrowBeta
FamilyName: AyannaNarrowBeta
Weight: Regular
Copyright: Copyright (c) 2015, Pathum,,,
UComments: "2015-3-5: Created with FontForge (http://fontforge.org)"
Version: pre
ItalicAngle: 0
UnderlinePosition: 0
UnderlineWidth: 0
Ascent: 819
Descent: 205
InvalidEm: 0
LayerCount: 4
Layer: 0 0 "Back" 1
Layer: 1 0 "Fore" 0
Layer: 2 0 "Back 2" 1
Layer: 3 0 "Back 3" 1
XUID: [1021 417 1726274797 7187508]
OS2Version: 0
OS2_WeightWidthSlopeOnly: 0
OS2_UseTypoMetrics: 1
CreationTime: 1425560291
ModificationTime: 1444725156
OS2TypoAscent: 0
OS2TypoAOffset: 1
OS2TypoDescent: 0
OS2TypoDOffset: 1
OS2TypoLinegap: 0
OS2WinAscent: 0
OS2WinAOffset: 1
OS2WinDescent: 0
OS2WinDOffset: 1
HheadAscent: 0
HheadAOffset: 1
HheadDescent: 0
HheadDOffset: 1
OS2Vendor: 'PfEd'
MarkAttachClasses: 1
DEI: 91125
Encoding: sinhala_abhaya
Compacted: 1
UnicodeInterp: none
NameList: sinhala
DisplaySize: -48
AntiAlias: 1
FitToEm: 1
WinInfo: 312 13 10
BeginPrivate: 0
EndPrivate
Grid
-1024 354 m 0
 2048 354 l 1024
293.833557129 1331 m 0
 293.833557129 -717 l 1024
-1024 594 m 0
 2048 594 l 1024
-1024 1584.5 m 0
 2048 1584.5 l 1024
-1024 79 m 0
 2048 79 l 1024
-1024 496 m 0
 2048 496 l 1024
-1024 -89 m 0
 2048 -89 l 1024
-1024 369 m 0
 2048 369 l 1024
-1024 405 m 0
 2048 405 l 1024
-1024 591 m 0
 2048 591 l 1024
-1024 811 m 0
 2048 811 l 1024
-1024 527 m 0
 2048 527 l 1024
-1024 749 m 0
 2048 749 l 1024
-1024 819 m 0
 2048 819 l 1024
-1024 115 m 0
 2048 115 l 1024
-1024 3 m 0
 2048 3 l 1024
EndSplineSet
BeginChars: 65538 499

StartChar: si_Tta
Encoding: 34 3495 0
Width: 533
VWidth: 0
Flags: HMW
LayerCount: 4
Fore
SplineSet
84.833984375 235 m 4
 84.833984375 371.176992292 154.479370739 446.538085938 230.833984375 446.538085938 c 4
 249.737846102 446.538085938 268.081813978 441.800214053 287.833984375 432 c 5
 271.833984375 400 l 5
 257.626282861 407.103789202 244.431498951 410.538085938 230.833984375 410.538085938 c 4
 171.695517924 410.538085938 121.833984375 345.575634507 121.833984375 235 c 4
 121.833984375 145.521850586 171.425753215 40 293.833984375 40 c 4
 421.699472084 40 494.833984375 150.518173522 494.833984375 354 c 4
 494.833984375 634.014982199 404.056453451 712 292.833984375 712 c 4
 221.961900718 712 164.158260323 665.926796893 140.833984375 605 c 5
 106.833984375 618 l 5
 144.833984375 716 232.801757813 749 292.833984375 749 c 4
 424.979492187 749 532.833984375 662.955078125 532.833984375 354 c 4
 532.833984375 126.541015625 445.873046875 3 293.833984375 3 c 4
 145.09375 3 84.833984375 128.543945312 84.833984375 235 c 4
EndSplineSet
Layer: 2
SplineSet
63.6884765625 252.396484375 m 1
 63.6884765625 381.538085938 130.688476563 472 228.381835938 472 c 0
 256.1484375 472 285.1796875 465.063476562 313.553710938 445.2578125 c 1
 275.688476562 345 l 1
 261.840820313 352.98828125 249.169921875 356.607421875 237.82421875 356.607421875 c 0
 197.307617187 356.607421875 173.688476562 310.458984375 173.688476562 252.395507812 c 0
 173.688476562 189.243164062 200.9140625 114.999023438 293.833984375 114.999023438 c 0
 398.286132813 114.999023438 438.833984375 195.016601562 438.833984375 353.999023438 c 0
 438.833984375 582.999023438 367.513671875 639.999023438 284.688476562 639.999023438 c 0
 243.584960937 639.999023438 203.5 618.958984375 186.444335938 576.854492188 c 1
 77.412109375 613.028320312 l 1
 113.396484375 707.8671875 197.967773437 755 284.688476562 755 c 0
 424.16015625 755 554.833984375 675.859375 554.833984375 354 c 0
 554.833984375 118 473.833984375 0 293.833984375 0 c 0
 115.833984375 0 63.6884765625 136.286132812 63.6884765625 252.395507812 c 1
 63.6884765625 252.396484375 l 1
EndSplineSet
EndChar

StartChar: si_Sa
Encoding: 58 3523 1
Width: 641
VWidth: 0
Flags: HW
LayerCount: 4
Fore
SplineSet
276.833007812 454 m 0
 276.833007812 466.18594426 277.8383242 477.513162194 279.727137724 488.00000488 c 0
 292.423417099 558.490756239 345.081882177 591 401.278320312 591 c 0
 457.984375 591 517.586914062 553 517.586914062 474 c 0
 517.586914062 429.732230808 497.269780815 385.565217391 465.72265625 361 c 1
 439.72265625 382 l 1
 466.72265625 402 484.111328125 437.958762887 484.111328125 474 c 0
 484.111328125 530.04296875 441.663085938 557 401.278320312 557 c 0
 352.916015625 557 310.833984375 524.74609375 310.833984375 454 c 0
 310.833984375 435 310.833984375 416 310.833984375 402 c 1
 293.833984375 369 l 1
 284.117333212 397.662790698 276.833007812 421.38372093 276.833007812 454 c 0
77.85546875 194.102539062 m 0
 77.85546875 107.481445312 109.809570312 40 175.833984375 40 c 0
 267 40 273.591796875 148.885742188 276.833984375 224.5 c 1
 310.833984375 224.5 l 1
 314.076171875 148.885742188 320.66796875 40 411.833984375 40 c 0
 477.858398438 40 509.8125 107.481445312 509.8125 194.102539062 c 0
 509.8125 252 498.682617188 369 414.833984375 369 c 2
 188.68359375 369 l 2
 90.908203125 369 77.85546875 251.71484375 77.85546875 194.102539062 c 0
40.85546875 194.102539062 m 0
 40.85546875 263 60.833984375 342 94.833984375 369 c 1
 31.111328125 369 l 1
 31.111328125 405 l 1
 416.68359375 405 l 2
 446.856333559 405 470.427769031 394.707574607 488.701962649 378.00000121 c 0
 534.112360137 336.482571502 546.8125 255.351858194 546.8125 194.102539062 c 0
 546.8125 86.68359375 502.791015625 3 411.833984375 3 c 0
 316.66796875 3 297.66796875 85 293.833984375 115 c 1
 290 85 271 3 175.833984375 3 c 0
 84.876953125 3 40.85546875 86.68359375 40.85546875 194.102539062 c 0
70.0810546875 474 m 0
 70.0810546875 553 129.68359375 591 186.389648438 591 c 0
 242.5859375 591 295.245117188 558.491210938 307.94140625 488 c 0
 309.830078125 477.512695312 310.834960938 466.185546875 310.834960938 454 c 0
 310.834960938 421.383789062 303.55078125 397.663085938 293.833984375 369 c 1
 276.833984375 402 l 1
 276.833984375 416 276.833984375 435 276.833984375 454 c 0
 276.833984375 524.74609375 234.751953125 557 186.389648438 557 c 0
 146.00390625 557 103.556640625 530.04296875 103.556640625 474 c 0
 103.556640625 432 122.556640625 406 132.556640625 396 c 1
 110.556640625 376 l 1
 98.556640625 387 70.0810546875 419 70.0810546875 474 c 0
EndSplineSet
Layer: 2
SplineSet
352.596679688 391.436523438 m 5
 262.596679688 319.436523438 l 5
 250.596679688 358.436523438 243.647460938 396.735351562 243.647460938 428 c 4
 243.647460938 537.3359375 315.041992188 594 392.032226562 594 c 4
 478.591796875 594 530.69140625 532.13671875 530.69140625 456.407226562 c 4
 530.69140625 428.604492188 519.90625 395.643554688 500.596679688 370.436523438 c 5
 422.596679688 410.436523438 l 5
 430.580078125 419.560546875 437.215820312 439.108398438 437.215820312 451.1640625 c 4
 437.215820312 475 421.387695312 496 392.032226562 496 c 4
 363.505859375 496 341.276367188 471.944335938 341.276367188 434.311523438 c 4
 341.276367188 428.6484375 341.779296875 422.678710938 342.840820312 416.436523438 c 6
 352.596679688 391.436523438 l 5
193.161132812 594 m 5
 270.151367188 594 341.545898438 537.3359375 341.545898438 428 c 4
 341.545898438 396.735351562 334.596679688 357.436523438 322.596679688 318.436523438 c 5
 242.352539062 416.436523438 l 5
 243.4140625 422.678710938 243.916992188 428.6484375 243.916992188 434.311523438 c 4
 243.916992188 471.944335938 220.072265625 496.000976562 191.545898438 496.000976562 c 4
 147.666015625 496.000976562 139.185546875 443.840820312 163.545898438 413.436523438 c 5
 87.8349609375 375.436523438 l 5
 66.80859375 403.236328125 57.5458984375 433.094726562 57.5458984375 461.536132812 c 4
 57.5458984375 532.131835938 105.545898438 594.000976562 193.161132812 594.000976562 c 5
 193.161132812 594 l 5
344.352539062 416 m 5
 408.596679688 416 l 6
 449.596679688 416 485.5078125 393.5234375 509.596679688 368.23828125 c 4
 543.423828125 332.731445312 558.553710938 278.352539062 558.553710938 207 c 4
 558.553710938 95.0966796875 513.684570312 0 402.071289062 0 c 4
 349.391601562 0 309.979492188 31.6025390625 293.833984375 79.0302734375 c 5
 277.688476562 31.6025390625 238.276367188 0 185.59765625 0 c 4
 73.984375 0 29.115234375 95.095703125 29.115234375 207 c 4
 29.115234375 248.30078125 40.59765625 294 54.59765625 319.563476562 c 5
 13.78125 319.666992188 l 5
 13.78125 416 l 5
 249.353515625 416 l 5
 344.353515625 416 l 5
 344.352539062 416 l 5
391.315429688 318 m 6
 196.352539062 318 l 6
 155.596679688 318 136.114257812 258.08984375 136.114257812 207 c 4
 136.114257812 157.264648438 150.302734375 115 185.596679688 115 c 4
 232.296875 115 248.227539062 176.75 248.227539062 249.5 c 5
 339.440429688 249.5 l 5
 339.440429688 176.75 355.37109375 115 402.071289062 115 c 4
 437.365234375 115 451.553710938 157.264648438 451.553710938 207 c 4
 451.553710938 258.725585938 431.596679688 318 391.315429688 318 c 6
EndSplineSet
Layer: 3
SplineSet
1031.60351562 402 m 1
 1031.60351562 368 l 1
 988.548828125 368 918.548828125 368 918.548828125 368 c 1
 909.548828125 397 902.801757812 421 902.801757812 454 c 0
 902.801757812 548.098632812 964.090820312 591 1018.54882812 591 c 0
 1078.8046875 591 1132.54882812 547.701171875 1132.54882812 474 c 0
 1132.54882812 419 1104.07324219 387 1092.07324219 376 c 1
 1070.07324219 396 l 1
 1080.07324219 406 1099.07324219 432 1099.07324219 474 c 0
 1099.07324219 530.225585938 1063.50585938 557 1018.54882812 557 c 0
 965.784179688 557 936.801757812 511 936.801757812 454 c 0
 936.801757812 435 936.801757812 415 936.801757812 402 c 1
 960.603515625 402 1007.32324219 402 1031.60351562 402 c 1
808 402 m 1
 832.280273438 402 879 402 902.801757812 402 c 1
 902.801757812 416 902.801757812 435 902.801757812 454 c 0
 902.801757812 511 873.819335938 557 821.0546875 557 c 0
 776.09765625 557 740.530273438 530.225585938 740.530273438 474 c 0
 740.530273438 432 759.530273438 406 769.530273438 396 c 1
 747.530273438 376 l 1
 735.530273438 387 707.0546875 419 707.0546875 474 c 0
 707.0546875 547.701171875 760.798828125 591 821.0546875 591 c 0
 875.512695312 591 936.801757812 548.098632812 936.801757812 454 c 0
 936.801757812 421 930.0546875 397 921.0546875 368 c 1
 921.0546875 368 851.0546875 368 808 368 c 1
 808 402 l 1
1171.50292969 194.102539062 m 0
 1171.50292969 86.68359375 1128.48144531 3 1037.52441406 3 c 0
 954.247070312 3 928.801757812 74 918.524414062 125 c 1
 907.801757812 74 882.801757812 3 799.524414062 3 c 0
 708.567382812 3 665.545898438 86.68359375 665.545898438 194.102539062 c 0
 665.545898438 254.91796875 681.545898438 334.442382812 713.7421875 365 c 1
 655.801757812 368 l 1
 655.801757812 405 l 1
 1034.61816406 402 l 2
 1129.51660156 401.248046875 1171.50292969 311.536132812 1171.50292969 194.102539062 c 0
1134.50292969 194.102539062 m 0
 1134.50292969 250.852539062 1120.80175781 363 1023.67480469 363 c 2
 813.374023438 363 l 0
 715.598632812 363 702.545898438 250.397460938 702.545898438 194.102539062 c 0
 702.545898438 96 735.08984375 38 797.247070312 38 c 0
 882.524414062 38 896.208007812 148.885742188 899.524414062 224.5 c 1
 937.801757812 224.5 l 1
 941.118164062 148.885742188 954.801757812 38 1039.80175781 38 c 0
 1101.95898438 38 1134.50292969 96 1134.50292969 194.102539062 c 0
404 557 m 0
 353.440429688 557 319 515.753358502 319 465 c 0
 319 439.122070312 320.0546875 410.038085938 322 389.038085938 c 1
 291 370.038085938 l 1
 284.813476562 402.045898438 282 434.590820312 282 465 c 0
 282 534.510171552 331.431640625 591 404 591 c 0
 538.569335938 591 551.859375 428.734375 475 359 c 1
 448 379 l 1
 502.447265625 428.2265625 507.774414062 557 404 557 c 0
197 557 m 0
 93.2255859375 557 98.552734375 428.2265625 153 379 c 1
 126 359 l 1
 49.140625 428.734375 62.4306640625 591 197 591 c 0
 269.568359375 591 319 534.510171552 319 465 c 0
 319 434.590820312 316.186523438 402.045898438 310 370.038085938 c 1
 279 389.038085938 l 1
 280.9453125 410.038085938 282 439.122070312 282 465 c 0
 282 515.753358502 247.559570312 557 197 557 c 0
553.701171875 194.102539062 m 0
 553.701171875 86.68359375 510.6796875 3 419.72265625 3 c 0
 336.4453125 3 311 74 300.72265625 125 c 1
 290 74 265 3 181.72265625 3 c 0
 90.765625 3 47.744140625 86.68359375 47.744140625 194.102539062 c 0
 47.744140625 254.917560603 63.744140625 334.442175859 95.9404296875 365 c 1
 47.5009765625 365 l 1
 47.5009765625 402 l 1
 416.81640625 402 l 2
 511.720703125 402 553.701171875 311.536224208 553.701171875 194.102539062 c 0
516.701171875 194.102539062 m 0
 516.701171875 250.852599573 503 363 405.873046875 363 c 2
 195.572265625 363 l 0
 97.796875 363 84.744140625 250.397633809 84.744140625 194.102539062 c 0
 84.744140625 96 117.288085938 38 179.4453125 38 c 0
 264.72265625 38 278.40625 148.885742188 281.72265625 224.5 c 1
 320 224.5 l 1
 323.31640625 148.885742188 337 38 422 38 c 0
 484.157226562 38 516.701171875 96 516.701171875 194.102539062 c 0
EndSplineSet
EndChar

StartChar: si_La
Encoding: 54 3517 2
Width: 582
VWidth: 0
Flags: HW
LayerCount: 4
Fore
SplineSet
32.5546875 208 m 0
 32.5546875 411.56676379 105.487893612 591 297.833984375 591 c 0
 461.355408861 591 536 451.985426835 536 332 c 0
 536 201.863927021 483.003612995 100 368 100 c 0
 282 100 243 166.722873379 243 228 c 0
 243 272.068466512 264.671092131 313.815197584 307.874023438 335 c 1
 213 335.004882812 l 1
 213 369.393554687 l 1
 374 369.393554688 l 1
 374 332.393554688 l 1
 307.61934419 319.016689998 280 270.136220051 280 228 c 0
 280 177.299849171 320.828149514 137 368 137 c 0
 475.225066351 137 499 243.144531088 499 332 c 0
 499 455.417846216 413.258525705 554 297.833984375 554 c 0
 139 554 69.5546875 385 69.5546875 208 c 0
 69.5546875 13 149.032394757 -112 293.833984375 -112 c 0
 410.833984375 -112 473.508826784 -34.6642144097 491.833984375 37 c 1
 526.833984375 31 l 1
 505.26953125 -55.57421875 439.833984375 -149 293.833984375 -149 c 0
 117.007669091 -149 32.5546875 0.27761422206 32.5546875 208 c 0
EndSplineSet
Layer: 2
SplineSet
297.833984375 479 m 5
 168.96875 479 122.0546875 352.634765625 122.0546875 208 c 4
 122.0546875 65.4228515625 187.729492187 -39 293.833984375 -39 c 4
 368.982421875 -39 421.5703125 9.4287109375 430.397460938 73 c 5
 543.833984375 57 l 5
 531.499023437 -57.1005859375 440.91796875 -154 293.833984375 -154 c 4
 97.73046875 -154 7.0546875 6 7.0546875 208 c 4
 7.0546875 403.26953125 83.9501953125 594 297.833984375 594 c 4
 470.3359375 594 548.833984375 451 548.833984375 332 c 4
 548.833984375 195 485.642578125 88 368.833984375 88 c 4
 204.136718749 88 189.431640624 237.893554688 229.625976562 299.893554688 c 5
 186.625976562 299.893554688 l 5
 187.625976562 394.893554688 l 5
 382.625976562 394.893554688 l 5
 382.625976562 299.893554688 l 5
 334.625976563 299.893554688 316.833984375 269.705078125 316.833984375 242.063476562 c 4
 316.833984375 218.723632812 338.24609375 197.200195312 366.833984375 197.200195312 c 4
 416.833984375 197.200195312 434.833984375 262 434.833984375 332.000976562 c 4
 434.833984375 427.026367188 389.482421875 479.000976562 297.833984375 479.000976562 c 5
 297.833984375 479 l 5
EndSplineSet
EndChar

StartChar: si_Ddha
Encoding: 37 3498 3
Width: 600
VWidth: 0
Flags: HW
LayerCount: 4
Fore
SplineSet
318.40234375 603 m 4
 318.40234375 667.297851562 360.885742188 706.649414062 360.885742188 740.684570312 c 4
 360.885742188 754.21875 354.16796875 766.912109375 335.390625 780 c 5
 335.390625 780 399 761 399 761 c 5
 396.655273438 749.58984375 393.099609375 726.290039062 393.099609375 726.290039062 c 5
 393.099609375 693.052734375 354.390625 661.163085938 354.390625 603 c 4
 354.390625 561.561523438 396.13671875 524.958984375 459.359375 524.958984375 c 4
 467.81640625 524.958984375 476.657226562 525.614257812 485.833984375 527 c 5
 509 522 l 5
 493.833984375 494 l 5
 481.5859375 492.012695312 469.787109375 491.073242188 458.5 491.073242188 c 4
 374.119140625 491.073242188 318.40234375 543.567382812 318.40234375 603 c 4
52.390625 179.102539062 m 4
 52.390625 248 72.369140625 327 106.369140625 354 c 5
 52.1474609375 354 l 5
 52.1474609375 389 l 5
 329.430664062 389 l 5
 337.154296875 354 l 5
 200.21875 354 l 6
 102.443359375 354 89.390625 236.71484375 89.390625 179.102539062 c 4
 89.390625 101.944335938 113.791015625 40 175.833984375 40 c 4
 267 40 273.591796875 148.885742188 276.833984375 224.5 c 5
 310.833984375 224.5 l 5
 314.076171875 148.885742188 320.66796875 40 411.833984375 40 c 4
 504.567382812 40 511.390625 164 511.390625 293 c 4
 511.390625 382.18359375 502.118164062 458.762695312 485.859375 524 c 5
 464.681640625 608.981445312 431.649414062 674.717773438 391.8203125 724 c 5
 374.1953125 745.807617188 355.239257812 764.393554688 335.390625 780 c 5
 358.390625 807 l 5
 420.940429688 758.918945312 475.276367188 684.03515625 509.633789062 576 c 4
 534.0625 499.186523438 548.390625 405.61328125 548.390625 293 c 4
 548.390625 145.134765625 539.03125 3 411.833984375 3 c 4
 316.66796875 3 297.66796875 85 293.833984375 115 c 5
 290 85 271 3 175.833984375 3 c 4
 87.234375 3 52.390625 81.4208984375 52.390625 179.102539062 c 4
105.154296875 420 m 4
 105.154296875 488 156.498046875 524 215.154296875 524 c 4
 279.7109375 524 339.598632812 481.098632812 339.598632812 387 c 4
 339.598632812 375.040039062 338.712890625 364.26171875 337.154296875 354 c 5
 305.774414062 379 l 5
 305.681640625 381.637695312 305.598632812 384.229492188 305.598632812 387 c 4
 305.598632812 457.74609375 263.516601562 490 215.154296875 490 c 4
 173.197265625 490 138.629882812 467 138.629882812 420 c 4
 138.629882812 395.599609375 148.154296875 376 161.154296875 364 c 4
 136.97265625 344 l 4
 121.154296875 358 105.154296875 388.0234375 105.154296875 420 c 4
335.390625 780 m 5
 358.390625 807 l 1029
EndSplineSet
Layer: 2
SplineSet
41.115234375 193.436523438 m 1
 41.115234375 234.73828125 52.59765625 280.436523438 66.59765625 306 c 1
 35.353515625 306 l 1
 35.353515625 391 l 1
 324.596679688 389.5 l 1
 358.098632812 306 l 1
 208.353515625 306 l 2
 167.597656249 306 148.115234375 245.162109375 148.115234375 193.436523438 c 0
 148.115234375 156.328125 153.789062499 114.65234375 191.046875 114.65234375 c 0
 233.222656249 114.65234375 248.228515625 179.677734375 248.228515625 249.500976562 c 1
 344.139648438 249.500976562 l 1
 344.139648438 176.750976562 359.607421876 115.000976562 402.59765625 115.000976562 c 0
 459.353515625 115.000976562 459.353515625 239.958984375 459.353515625 293.000976562 c 0
 459.353515625 384.548828125 444.491210937 481.405273438 425.8515625 545.000976562 c 1
 420.11328125 579.000976562 402.11328125 628.000976562 380.030273438 648.000976562 c 1
 357.29296875 683.221679688 328.79296875 712.004882812 294.008789062 733.000976562 c 1
 366.008789062 817.000976562 l 1
 444.986328126 764.921875 499.397856337 686.228325718 531.49609375 588.000976562 c 0
 555.484374999 514.591796875 574.353515625 410.000976562 574.353515625 293.000976562 c 0
 574.353515625 181.997070312 573.353515625 0.0009765625 402.59765625 0.0009765625 c 0
 346.677734375 0.0009765625 308.655273437 33.1455078125 293.833984375 79.03125 c 1
 277.688476562 31.603515625 238.276367188 0.0009765625 185.59765625 0.0009765625 c 0
 69.7968750001 0.0009765625 41.115234375 105.455078125 41.115234375 193.4375 c 1
 41.115234375 193.436523438 l 1
93.6904296875 409.272460938 m 1
 93.6904296875 481.53515625 142.661132812 531.563476562 216.962890625 531.563476562 c 0
 293.94921875 531.563476562 365.34765625 474.8984375 365.34765625 365.563476562 c 0
 365.34765625 350.999023438 362.154296876 324.999023438 358.098632812 305.999023438 c 1
 267.71875 371.874023438 l 1
 274.258789063 405.999023438 258.258789063 443.999023438 216.962890625 443.999023438 c 0
 192.163085937 443.999023438 183.170898438 426.1328125 183.170898438 404.786132812 c 0
 183.170898438 386.79296875 195.456054687 370.32421875 204.154296875 355.999023438 c 1
 124.154296875 318.563476562 l 1
 104.154296875 350.999023438 93.6904296875 380.619140625 93.6904296875 409.272460938 c 1
 93.6904296875 409.272460938 l 1
400.334960938 755 m 1
 381.11328125 647 l 1
 364.734375 639.98046875 355.11328125 621.141601562 355.11328125 605 c 0
 355.11328125 584 377.11328125 554 428.11328125 546 c 1
 512.334960938 524 l 1
 445.008789062 461 l 1
 367.388671876 463.250976562 269.125 525 269.125 611.133789062 c 0
 269.125 686.51171875 341.916992187 697.581054688 294.008789062 733 c 1
 400.334960938 755 l 1
EndSplineSet
Layer: 3
SplineSet
309.208007812 387.000976562 m 4
 309.208007812 457.747070312 267.125976562 490.000976562 218.763671875 490.000976562 c 4
 176.806640625 490.000976562 142.239257812 467.000976562 142.239257812 420.000976562 c 4
 142.239257812 395.600585938 151.763671875 376.000976562 164.763671875 364.000976562 c 4
 140.58203125 344.000976562 l 4
 124.763671875 358.000976562 108.763671875 388.024414062 108.763671875 420.000976562 c 4
 108.763671875 488.000976562 160.107421875 524.000976562 218.763671875 524.000976562 c 4
 283.319335938 524.000976562 343.208007812 481.099609375 343.208007812 387.000976562 c 4
 343.208007812 375.041015625 342.322265625 364.262695312 340.763671875 354.000976562 c 5
 309.383789062 379.000976562 l 5
 309.291015625 381.638671875 309.208007812 384.23046875 309.208007812 387.000976562 c 4
354.390625 603 m 4
 354.390625 556.018554688 408.051757812 515.25390625 485.833984375 527 c 5
 496.974609375 541.603515625 497.580078125 561.625 499.833984375 563 c 5
 499.833984375 563 516.060546875 504.630859375 493.833984375 494 c 5
 390.021484375 477.154296875 318.40234375 535.618164062 318.40234375 603 c 4
 318.40234375 692.866210938 401.390625 734 335.390625 780 c 5
 360.390625 785 399.390625 758 399.390625 758 c 5
 392.833984375 731 l 5
 396.833984375 696 354.390625 663.903320312 354.390625 603 c 4
548.390625 293 m 4
 548.390625 145.134765625 539.03125 3 411.833984375 3 c 4
 316.66796875 3 297.66796875 85 293.833984375 115 c 5
 290 85 271 3 175.833984375 3 c 4
 87.234375 3 52.390625 81.4208984375 52.390625 179.102539062 c 4
 52.390625 248 72.369140625 327 106.369140625 354 c 5
 52.1474609375 354 l 5
 52.1474609375 389 l 5
 324.666992188 389 l 5
 340.763671875 354.000976562 l 5
 200.21875 354 l 4
 102.443359375 354 89.390625 236.71484375 89.390625 179.102539062 c 4
 89.390625 101.944335938 113.791015625 40 175.833984375 40 c 4
 267 40 273.591796875 148.885742188 276.833984375 224.5 c 5
 310.833984375 224.5 l 5
 314.076171875 148.885742188 320.66796875 40 411.833984375 40 c 4
 504.567382812 40 511.390625 164 511.390625 293 c 4
 511.390625 549.764648438 434.528320312 702.053710938 335.390625 780 c 5
 358.390625 807 l 5
 465.4140625 724.732421875 548.390625 564 548.390625 293 c 4
EndSplineSet
EndChar

StartChar: si_Dda
Encoding: 36 3497 4
Width: 600
VWidth: 0
Flags: HMW
LayerCount: 4
Fore
SplineSet
52.390625 179.102539062 m 0
 52.390625 248 72.369140625 327 106.369140625 354 c 1
 52.1474609375 354 l 1
 52.1474609375 389 l 1
 329.430664062 389 l 1
 337.154296875 354 l 1
 200.21875 354 l 2
 102.443359375 354 89.390625 236.71484375 89.390625 179.102539062 c 0
 89.390625 101.944335938 113.790039063 40 175.833984375 40 c 0
 267 40 273.591796875 148.885742188 276.833984375 224.5 c 1
 310.833984375 224.5 l 1
 314.076171875 148.885742188 320.66796875 40 411.833984375 40 c 0
 504.567382813 40 511.390625 164 511.390625 293 c 0
 511.390625 576.88671875 436.939453125 712 283.833984375 712 c 0
 212.961914063 712 144.485351563 665.926757812 121.161132812 605 c 1
 87.1611328125 618 l 1
 115.360351563 692.592773438 198.1484375 749 283.833984375 749 c 0
 461.833984375 749 548.390625 601.955078125 548.390625 293 c 0
 548.390625 145.134765625 539.03125 3 411.833984375 3 c 0
 316.66796875 3 297.66796875 85 293.833984375 115 c 1
 290 85 271 3 175.833984375 3 c 0
 87.234375 3 52.390625 81.4208984377 52.390625 179.102539062 c 0
105.154296875 420 m 0
 105.154296875 488 156.498046875 524 215.154296875 524 c 0
 279.7109375 524 339.598632812 481.098632812 339.598632812 387 c 0
 339.598632812 375.040039062 338.712890625 364.26171875 337.154296875 354 c 1
 305.774414062 379 l 1
 305.681640625 381.637695312 305.598632812 384.229492188 305.598632812 387 c 0
 305.598632812 457.74609375 263.516601562 490 215.154296875 490 c 0
 173.197265625 490 138.629882812 467 138.629882812 420 c 0
 138.629882812 395.599609375 148.154296875 376 161.154296875 364 c 0
 136.97265625 344 l 0
 121.154296875 358 105.154296875 388.0234375 105.154296875 420 c 0
EndSplineSet
Layer: 2
SplineSet
402.595703125 114.999023438 m 5
 459.3515625 114.999023438 459.3515625 239.95703125 459.3515625 292.999023438 c 4
 459.3515625 522.795898438 416.3515625 639.883789062 278.3515625 639.883789062 c 4
 237.248046876 639.883789062 189.588867188 618.958984375 172.534179688 576.854492188 c 5
 63.501953125 613.028320312 l 5
 99.486328125 707.8671875 191.631835938 755 278.352539062 755 c 4
 495.352539062 755 574.352539062 599.055664062 574.352539062 293 c 4
 574.352539062 181.995117188 573.352539062 0 402.596679688 0 c 4
 346.676757812 0 308.654296875 33.1435546875 293.833984375 79.0302734375 c 5
 277.688476562 31.6025390625 238.276367187 0 185.596679688 0 c 4
 69.796875 0 41.115234375 105.453125 41.115234375 193.436523438 c 4
 41.115234375 234.737304688 52.59765625 280.436523438 66.59765625 306 c 5
 35.353515625 306 l 5
 35.353515625 391 l 5
 324.596679688 389.5 l 5
 358.098632812 306 l 5
 208.353515625 306 l 6
 167.597656249 306 148.115234375 245.162109375 148.115234375 193.436523438 c 4
 148.115234375 156.328125 153.789062499 114.65234375 191.046875 114.65234375 c 4
 233.222656249 114.65234375 248.228515625 179.677734375 248.228515625 249.5 c 5
 344.139648438 249.5 l 5
 344.139648438 176.75 359.607421876 115 402.59765625 115 c 5
 402.595703125 114.999023438 l 5
93.6884765625 409.271484375 m 5
 93.6884765625 481.534179688 142.659179688 531.5625 216.9609375 531.5625 c 4
 293.947265625 531.5625 365.345703125 474.897460938 365.345703125 365.5625 c 4
 365.345703125 350.998046875 362.152343749 324.998046875 358.096679688 305.998046875 c 5
 267.716796875 371.873046875 l 5
 274.256835937 405.998046875 258.256835937 443.998046875 216.9609375 443.998046875 c 4
 192.161132813 443.998046875 183.168945312 426.131835938 183.168945312 404.78515625 c 4
 183.168945312 386.791992188 195.454101563 370.323242188 204.15234375 355.998046875 c 5
 124.15234375 318.5625 l 5
 104.15234375 350.998046875 93.6884765625 380.618164062 93.6884765625 409.271484375 c 5
 93.6884765625 409.271484375 l 5
EndSplineSet
Layer: 3
SplineSet
511.390625 293 m 0
 511.390625 576.88671875 436.939453125 712 283.833984375 712 c 0
 212.961914063 712 144.485351563 665.926757812 121.161132812 605 c 1
 87.1611328125 618 l 1
 115.360351563 692.592773438 198.1484375 749 283.833984375 749 c 0
 461.833984375 749 548.390625 601.955078125 548.390625 293 c 0
 548.390625 145.134765625 539.03125 3 411.833984375 3 c 0
 316.66796875 3 297.66796875 85 293.833984375 115 c 1
 290 85 271 3 175.833984375 3 c 0
 87.234375 3 52.390625 81.4208984377 52.390625 179.102539062 c 0
 52.390625 248 72.369140625 327 106.369140625 354 c 1
 52.1474609375 354 l 1
 52.1474609375 389 l 1
 324.666992188 389 l 1
 332.390625 354 l 1
 200.21875 354 l 0
 102.443359375 354 89.390625 236.71484375 89.390625 179.102539062 c 0
 89.390625 101.944335938 113.790039063 40 175.833984375 40 c 0
 267 40 273.591796875 148.885742188 276.833984375 224.5 c 1
 310.833984375 224.5 l 1
 314.076171875 148.885742188 320.66796875 40 411.833984375 40 c 0
 504.567382813 40 511.390625 164 511.390625 293 c 0
298.834960938 388 m 0
 298.834960938 458.74609375 256.752929687 491 208.390625 491 c 0
 166.43359375 491 131.866210938 468 131.866210938 421 c 0
 131.866210938 396.599609375 141.390625 377 154.390625 365 c 0
 130.208984375 345 l 0
 114.390625 359 98.390625 389.0234375 98.390625 421 c 0
 98.390625 489 149.734375 525 208.390625 525 c 0
 272.947265625 525 332.834960938 482.098632812 332.834960938 388 c 0
 332.834960938 376.040039062 331.94921875 365.26171875 330.390625 355 c 1
 299.010742188 380 l 1
 298.91796875 382.637695312 298.834960938 385.229492188 298.834960938 388 c 0
EndSplineSet
EndChar

StartChar: si_A
Encoding: 3 3461 5
Width: 561
VWidth: 0
Flags: HW
LayerCount: 4
Fore
SplineSet
326 -205 m 1
 323.64453125 408 l 1
 326 425 337.93359375 469.961914062 348 490 c 1
 372 539 419.000976562 585.236328125 487 599 c 1
 497.84375 574.5625 l 1
 485.432888041 565.217498639 481 551.491953107 481 535 c 0
 481 499.147853256 511 454.955721293 511 411 c 0
 511 358.441516666 481.578050257 320.267097651 413.746683441 320.267097651 c 0
 397.689806849 320.267097651 373 326 359 333 c 1
 359 367 l 1
 377 357 394.824633853 354.141925981 408.956814718 354.141925981 c 0
 455.078599911 354.141925981 475 377.224982952 475 411 c 0
 475 441.546408494 449.850330496 489.446988008 449.850330496 528.159692262 c 0
 449.850330496 536.640409604 451.057283723 544.680193292 454 552 c 1
 426 542 367.500144812 487.690617689 363 422.986328125 c 1
 363 -205 l 1
 326 -205 l 1
30 212 m 4
 30 312.681640625 103 411 226.9453125 411 c 4
 251.225585938 411 299 411 322.801757812 411 c 5
 324.801757812 422 328 438.288085938 328 454 c 4
 328 524.74609375 285.91796875 557 237.555664062 557 c 4
 197.170898438 557 154.72265625 530.04296875 154.72265625 474 c 4
 154.72265625 431.346679688 176.466796875 406.530273438 185.629882812 398 c 5
 161.72265625 376 l 5
 149.72265625 387 121.247070312 419 121.247070312 474 c 4
 121.247070312 553 180.849609375 591 237.555664062 591 c 4
 302.112304688 591 362 548.098632812 362 454 c 4
 362 424.453125 357 399.96484375 348 374 c 5
 348 374 270 374 226.9453125 374 c 4
 127.143554688 374 67 295.036132812 67 212 c 4
 67 107.483253588 145.333333333 40 252 40 c 4
 380 40 439.475585938 105.710144648 472 138 c 5
 495 113 l 5
 459.962890625 76.919921875 396 3 252 3 c 4
 124 3 30 85 30 212 c 4
EndSplineSet
Layer: 2
SplineSet
270 115 m 4
 388.682352941 115 443.63 174.814285714 464 194 c 5
 533 111 l 5
 513.986294203 91.6214312105 471.988675429 42.270195762 392 17.4650057943 c 4
 358.047598914 6.93606836285 317.698379562 0 270 0 c 4
 102.448647199 0 21.740234375 96.6640625 21.740234375 217 c 4
 21.740234375 330.947265625 118.423828125 421.3515625 238.740234375 421.3515625 c 5
 257.575195312 421.3515625 269.740234375 420 287.546875 418.436523438 c 5
 288.608398438 424.678710938 289.111328125 430.6484375 289.111328125 436.311523438 c 4
 289.111328125 473.944335938 266.881835938 498 238.35546875 498 c 4
 209 498 193.171875 477 193.171875 453.1640625 c 4
 193.171875 441.108398438 196.756835938 428.124023438 204.740234375 419 c 5
 126.740234375 379 l 5
 107.430664062 404.20703125 99.6962890625 430.604492188 99.6962890625 458.407226562 c 4
 99.6962890625 534.13671875 151.795898438 596 238.35546875 596 c 4
 315.345703125 596 386.740234375 539.3359375 386.740234375 430 c 4
 386.740234375 398.735351562 379.740234375 357 367.740234375 318 c 5
 367.740234375 318 287.271484375 318 238.740234375 318 c 4
 182.740234375 318 137.740234375 273 137.740234375 217 c 4
 137.740234375 161 172.337771249 115 270 115 c 4
435 489 m 1
 388 457 394.598632812 403.255859375 394 327.2265625 c 1
 394 -205 l 1
 290 -205 l 1
 290 -4 l 1
 287.625 416 l 1
 287.625 416 300 489 345.694335938 533.184570312 c 1
 348.16015625 535.82421875 418.241210938 613.930664062 492.794921875 613.930664062 c 1
 493.072265625 614.115234375 528.84375 560.6484375 535 552 c 1
 523.345325198 545.444245424 519.516876216 532.886173588 519.516876216 516.644736615 c 0
 519.516876216 485.537691191 533.560897809 440.918839874 533.560897809 399.080944875 c 0
 533.560897809 342.808844413 493 278 389 298 c 1
 390 378 l 1
 432.263671875 374.158203125 449.592455419 389.554327395 449.592455419 418.327752243 c 0
 449.592455419 442.663041228 439.441466507 471.303256441 435 489 c 1
EndSplineSet
Layer: 3
SplineSet
668.247070312 474 m 0
 668.247070312 553 727.849609375 591 784.555664062 591 c 0
 849.112304688 591 909 548.098632812 909 454 c 0
 909 424.453125 904 402.96484375 895 377 c 1
 895 377 817 377 773.9453125 377 c 0
 674.143554688 377 621 300.036132812 621 217 c 0
 621 112.143554688 705.583984375 56 799 56 c 0
 927 56 986.475585938 123.721679688 1019 157 c 1
 1042 132 l 1
 1006.96289062 95.919921875 943 22 799 22 c 0
 686.166015625 22 584 90 584 217 c 0
 584 317.681640625 650 411 773.9453125 411 c 0
 798.225585938 411 846 411 869.801757812 411 c 1
 871.801757812 422 875 438.288085938 875 454 c 0
 875 524.74609375 832.91796875 557 784.555664062 557 c 0
 744.170898438 557 701.72265625 530.04296875 701.72265625 474 c 0
 701.72265625 431.346679688 723.466796875 406.530273438 732.629882812 398 c 1
 708.72265625 376 l 1
 696.72265625 387 668.247070312 419 668.247070312 474 c 0
873 -202 m 1
 870.64453125 408 l 1
 873 425 884.93359375 469.961914062 895 490 c 1
 919 539 966.000976562 585.236328125 1034 599 c 1
 1044.84375 574.5625 l 1
 1032.43261719 565.217773438 1028 551.4921875 1028 535 c 0
 1028 499.147460938 1058 454.956054688 1058 411 c 0
 1058 358.44140625 1028.578125 320.267578125 960.747070312 320.267578125 c 0
 944.689453125 320.267578125 920 326 906 333 c 1
 906 367 l 1
 924 357 941.82421875 354.141601562 955.95703125 354.141601562 c 0
 1002.078125 354.141601562 1022 377.224609375 1022 411 c 0
 1022 448.23828125 984.624023438 511.266601562 1001 552 c 1
 973 542 914.5 487.690429688 910 422.986328125 c 1
 910 -202 l 1
 873 -202 l 1
74 217 m 0
 74 112.143589744 158.583957122 56 252 56 c 0
 380 56 439.475585938 123.721679688 472 157 c 1
 495 132 l 1
 459.962890625 95.919921875 396 22 252 22 c 0
 139.166015625 22 37 90 37 217 c 0
 37 317.681535051 103 411 226.9453125 411 c 0
 251.225585938 411 291 411 314.801757812 411 c 1
 319 420.923076923 321.747070312 438.288461538 321.747070312 454 c 0
 321.747070312 511 292.764772924 557 240 557 c 0
 195.042691853 557 159.475585938 530.225806452 159.475585938 474 c 0
 159.475585938 432 178.475585938 406 188.475585938 396 c 1
 166.475585938 376 l 1
 154.475585938 387 126 419 126 474 c 0
 126 547.700787402 179.744152174 591 240 591 c 0
 294.458092301 591 355.747070312 548.098632812 355.747070312 454 c 0
 355.747070312 424.453488372 349 402.965116279 340 377 c 1
 340 377 270 377 226.9453125 377 c 0
 127.143667997 377 74 300.036317567 74 217 c 0
326 -202 m 1
 323.64453125 433.729492188 l 1
 327.19140625 451.048828125 332.933864754 470.96194805 343 491 c 1
 367 540 414.000671167 584.23651561 482 598 c 1
 487.014648438 590.592773438 493.840820312 580.48046875 497.84375 574.5625 c 1
 485.432888041 565.217498639 481 551.491953107 481 535 c 0
 481 499.147853256 511 454.955721293 511 411 c 0
 511 358.441516666 481.578050257 320.267097651 413.746683441 320.267097651 c 0
 397.689806849 320.267097651 373 326 359 333 c 1
 359 367 l 1
 377 357 394.824633853 354.141925981 408.956814718 354.141925981 c 0
 455.078599911 354.141925981 475 377.224982952 475 411 c 0
 475 448.238151199 437.624398233 511.266803737 454 552 c 1
 426 542 367.500144812 487.690617689 363 422.986328125 c 1
 363 -202 l 1
 326 -202 l 1
EndSplineSet
EndChar

StartChar: si_U
Encoding: 9 3467 6
Width: 547
VWidth: 0
Flags: HW
LayerCount: 4
Fore
SplineSet
52.833984375 132.999023438 m 4
 52.833984375 327 176.12890625 411 300.07421875 411 c 4
 324.354492188 411 372.12890625 411 395.930664062 411 c 5
 397.930664062 422 401.12890625 438.288085938 401.12890625 454 c 4
 401.12890625 524.74609375 359.046875 557 310.684570312 557 c 4
 270.299804688 557 227.8515625 530.04296875 227.8515625 474 c 4
 227.8515625 431.346679688 249.595703125 406.530273438 258.758789062 398 c 5
 234.8515625 376 l 5
 222.8515625 387 194.375976562 419 194.375976562 474 c 4
 194.375976562 553 253.978515625 591 310.684570312 591 c 4
 375.241210938 591 435.12890625 548.098632812 435.12890625 454 c 4
 435.12890625 424.453125 430.12890625 399.96484375 421.12890625 374 c 5
 421.12890625 374 343.12890625 374 300.07421875 374 c 4
 196.181518288 374 92.833984375 301.180111918 92.833984375 133 c 4
 92.833984375 8.2668111083 154.407226562 -113 293.833984375 -113 c 4
 410.833984375 -113 473.508789062 -36.1830956376 491.833984375 35 c 5
 526.833984375 29 l 5
 505.26953125 -57.57421875 439.833984375 -151 293.833984375 -151 c 4
 126.66015625 -151 52.833984375 -11.001953125 52.833984375 132.999023438 c 4
EndSplineSet
Layer: 2
SplineSet
654 134.999023438 m 0
 654 -9.001953125 727.826171875 -149 895 -149 c 0
 1041 -149 1106.43554688 -55.57421875 1128 31 c 1
 1093 37 l 1
 1074.67480469 -34.6640625 1012 -112 895 -112 c 0
 755.573242188 -112 694 9.759765625 694 135 c 0
 694 254.170898438 765.291015625 350 913.03515625 350 c 0
 1019.28808594 350 l 1
 1026.45898438 378.379882812 1031.03515625 410.493164062 1031.03515625 432 c 0
 1031.03515625 526.098632812 973.431640625 568 912.650390625 568 c 0
 853.376953125 568 817.974609375 535.05859375 807.116210938 488.596679688 c 1
 843.819335938 486.538085938 l 1
 854.141601562 510.354492188 879.836914062 530 912.650390625 530 c 0
 961.076171875 530 993.40625 487.697265625 993.40625 438.311523438 c 0
 993.40625 430.872070312 992.74609375 423.221679688 991.416992188 415.407226562 c 0
 986.779296875 388.131835938 l 1
 959.217773438 390.551757812 l 0
 940.913085938 389.086914062 930.3359375 388 913.03515625 388 c 0
 738.310546875 388 654 275.233398438 654 134.999023438 c 0
139.833984375 135 m 1
 139.833984375 134.999023438 l 1
 139.833984375 42.4589843748 188.043945313 -36.0009765625 293.833984375 -36.0009765625 c 0
 368.982421875 -36.0009765625 421.569335937 11.9951171875 430.396484375 74.9990234375 c 1
 543.833984375 58.9990234375 l 1
 531.499023437 -55.1015625003 440.91796875 -152.000976562 293.833984375 -152.000976562 c 0
 107.671875 -152.000976562 22.833984375 -20.315429688 22.833984375 134.999023438 c 0
 22.833984375 295.01953125 105.403320313 423.3515625 311.869140625 423.3515625 c 0
 330.704101563 423.3515625 342.869140625 422 360.67578125 420.436523438 c 1
 361.737304687 426.678710938 362.240234375 432.6484375 362.240234375 438.311523438 c 0
 362.240234375 475.944335938 340.010742187 500 311.484375 500 c 0
 282.12890625 500 266.30078125 479 266.30078125 455.1640625 c 0
 266.30078125 443.108398438 269.885742187 430.124023438 277.869140625 421 c 1
 199.869140625 381 l 1
 180.559570313 406.20703125 172.825195312 432.604492188 172.825195312 460.407226562 c 0
 172.825195312 536.13671875 224.924804687 598 311.484375 598 c 0
 388.474609375 598 459.869140625 541.3359375 459.869140625 432 c 0
 459.869140625 400.735351562 452.869140625 359 440.869140625 320 c 1
 311.869140625 320 l 2
 193.833984375 320 139.833984375 242.90625 139.833984375 135 c 1
EndSplineSet
Layer: 3
SplineSet
316.9453125 368 m 4
 217.143554688 368 100 294 100 135 c 4
 100 9.75928339322 161.57286534 -112 301 -112 c 4
 418 -112 480.674842409 -34.6642144097 499 37 c 5
 534 31 l 5
 512.435546875 -55.57421875 447 -149 301 -149 c 4
 133.826171875 -149 60 -9.00196010236 60 134.999023438 c 4
 60 318 193 402 316.9453125 402 c 4
 341.225585938 402 381 402 404.801757812 402 c 5
 409 414 411.747070312 435 411.747070312 454 c 4
 411.747070312 511 382.764648438 557 330 557 c 4
 285.04296875 557 249.475585938 530.225585938 249.475585938 474 c 4
 249.475585938 432 268.475585938 406 278.475585938 396 c 5
 256.475585938 376 l 5
 244.475585938 387 216 419 216 474 c 4
 216 547.701171875 269.744140625 591 330 591 c 4
 384.458007812 591 445.747070312 548.098632812 445.747070312 454 c 4
 445.747070312 421 439 397 430 368 c 5
 430 368 360 368 316.9453125 368 c 4
EndSplineSet
EndChar

StartChar: si_Da
Encoding: 42 3503 7
Width: 625
VWidth: 0
Flags: HW
LayerCount: 4
Fore
SplineSet
54.205078125 212 m 4
 54.205078125 312.681640625 127.205078125 411 251.150390625 411 c 4
 275.430664062 411 323.205078125 411 347.006835938 411 c 5
 349.006835938 422 352.205078125 438.288085938 352.205078125 454 c 4
 352.205078125 524.74609375 310.123046875 557 261.760742188 557 c 4
 221.375976562 557 178.927734375 530.04296875 178.927734375 474 c 4
 178.927734375 431.346679688 200.671875 406.530273438 209.834960938 398 c 5
 185.927734375 376 l 5
 173.927734375 387 145.452148438 419 145.452148438 474 c 4
 145.452148438 553 205.0546875 591 261.760742188 591 c 4
 326.317382812 591 386.205078125 548.098632812 386.205078125 454 c 4
 386.205078125 424.453125 381.205078125 399.96484375 372.205078125 374 c 5
 372.205078125 374 294.205078125 374 251.150390625 374 c 4
 151.348632812 374 91.205078125 295.036132812 91.205078125 212 c 4
 91.205078125 101.981245559 172.540809232 41.8422151869 255.047957593 41.8422151869 c 4
 306.328457538 41.8422151869 358.061472465 65.0737428138 391 114 c 5
 420.27734375 91.6962890625 l 5
 380.058506295 31.5457067125 316.892182966 2.99823497635 254.277411316 2.99823497635 c 4
 153.52725148 2.99823497635 54.205078125 76.9086323207 54.205078125 212 c 4
194.329101562 -57 m 4
 194.329101562 -24.1728515625 202.073242188 1.595703125 227 34 c 5
 256 36 l 5
 258 17 l 5
 235.8515625 -8.83984375 231.329101562 -30.4658203125 231.329101562 -57 c 4
 231.329101562 -111.587890625 271.795898438 -156.696289062 327 -156.696289062 c 4
 380.438876849 -156.696289062 414.417677625 -132.976608496 442.370117188 -83 c 5
 471.647460938 -105.303710938 l 5
 436.602038832 -164.568670223 394 -192.696289062 327 -192.696289062 c 4
 247.584960938 -192.696289062 194.329101562 -129.529296875 194.329101562 -57 c 4
EndSplineSet
Layer: 2
SplineSet
698.9453125 51 m 0
 738.208007812 51 782.216796875 71.798828125 815.907226562 125.020507812 c 1
 843.907226562 104.020507812 l 1
 804.970703125 40.5673828125 751.32421875 15.32421875 701.537109375 15.32421875 c 0
 585.591796875 15.32421875 509 101 509 217 c 0
 509 313.010742188 575 402 698.9453125 402 c 0
 723.225585938 402 763 402 786.801757812 402 c 1
 791 414 793.747070312 435 793.747070312 454 c 0
 793.747070312 511 760 557 698.560546875 557 c 0
 648 557 608 527 608 464 c 0
 608 422 627 396 637 386 c 1
 615 366 l 1
 603 377 574.524414062 409 574.524414062 464 c 0
 574.524414062 544 633 591 698.560546875 591 c 0
 759.341796875 591 827.747070312 548.098632812 827.747070312 454 c 0
 827.747070312 421 821 397 812 368 c 1
 812 368 742 368 698.9453125 368 c 0
 619.032226562 368 546 318 546 217 c 0
 546 121 599 51 698.9453125 51 c 0
881 -83 m 1
 909 -104 l 1
 870.063476562 -167.453125 816.416992188 -192.696289062 766.629882812 -192.696289062 c 0
 687.21484375 -192.696289062 632.958984375 -130.756835938 632.958984375 -58.2275390625 c 0
 632.958984375 -25.400390625 644.073242188 9.595703125 669 42 c 1
 698 44 l 1
 700 25 l 1
 677.8515625 -0.83984375 668.265625 -29.25 668.265625 -55.7841796875 c 0
 668.265625 -110.372070312 708.833984375 -157.020507812 764.038085938 -157.020507812 c 0
 803.30078125 -157.020507812 847.309570312 -136.221679688 881 -83 c 1
262.9453125 318 m 4
 206.9453125 318 161.9453125 273 161.9453125 217 c 4
 161.9453125 161 206.9453125 116 262.9453125 116 c 4
 298.23828125 116 329.514648438 131.385742188 349.607421875 155.436523438 c 5
 435.9453125 93.0419921875 l 5
 395.834960938 36.2998046875 333.399414062 0 262.9453125 0 c 4
 142.609375 0 45.9453125 96.6640625 45.9453125 217 c 4
 45.9453125 330.947265625 142.62890625 421.3515625 262.9453125 421.3515625 c 5
 281.780273438 421.3515625 293.9453125 420 311.751953125 418.436523438 c 5
 312.813476562 424.678710938 313.31640625 430.6484375 313.31640625 436.311523438 c 4
 313.31640625 473.944335938 291.086914062 498 262.560546875 498 c 4
 233.205078125 498 217.376953125 477 217.376953125 453.1640625 c 4
 217.376953125 441.108398438 220.961914062 428.124023438 228.9453125 419 c 5
 150.9453125 379 l 5
 131.635742188 404.20703125 123.901367188 430.604492188 123.901367188 458.407226562 c 4
 123.901367188 534.13671875 176.000976562 596 262.560546875 596 c 4
 339.55078125 596 410.9453125 539.3359375 410.9453125 430 c 4
 410.9453125 398.735351562 403.9453125 357 391.9453125 318 c 5
 391.9453125 318 311.4765625 318 262.9453125 318 c 4
406.9453125 -54.5634765625 m 5
 483.9453125 -106.563476562 l 5
 438.034179688 -175.430664062 383.278320312 -202.407226562 333 -202.407226562 c 4
 208.619140625 -202.407226562 138.807617188 -78.939453125 201.9453125 21.5380859375 c 5
 291.9453125 44.4365234375 l 5
 301.9453125 4 l 5
 272.641601562 -29.796875 280.94140625 -97 333 -97 c 4
 357.630859375 -97 384.454101562 -85.0556640625 406.9453125 -54.5634765625 c 5
EndSplineSet
Layer: 3
SplineSet
107.370117188 206 m 0
 107.370117188 110.386160714 163.774478157 38.67578125 248.408203125 38.67578125 c 0
 291.66800991 38.67578125 340.157083228 59.474609375 377.27734375 112.696289062 c 1
 405.27734375 91.6962890625 l 1
 363.084336331 28.689453125 305.141572712 3 251 3 c 0
 142.608144556 3 70.3701171875 90 70.3701171875 206 c 0
 70.3701171875 302.010742188 136.370117188 391 260.315429688 391 c 0
 284.595703125 391 324.370117188 391 348.171875 391 c 1
 352.370117188 403 355.1171875 424 355.1171875 443 c 0
 355.1171875 500 326.134765625 546 273.370117188 546 c 0
 228.413085938 546 192.845703125 519.225585938 192.845703125 463 c 0
 192.845703125 421 211.845703125 395 221.845703125 385 c 1
 199.845703125 365 l 1
 187.845703125 376 159.370117188 408 159.370117188 463 c 0
 159.370117188 536.701171875 213.114257812 580 273.370117188 580 c 0
 327.828125 580 389.1171875 537.098632812 389.1171875 443 c 0
 389.1171875 410 382.370117188 386 373.370117188 357 c 1
 373.370117188 357 303.370117188 357 260.315429688 357 c 0
 160.513671875 357 107.370117188 284.365234375 107.370117188 206 c 0
442.370117188 -83 m 1
 470.370117188 -104 l 1
 431.43359375 -167.453125 377.787109375 -192.696289062 328 -192.696289062 c 0
 248.584960938 -192.696289062 194.329101562 -130.756835938 194.329101562 -58.2275390625 c 0
 194.329101562 -25.400390625 202.073242188 1.595703125 227 34 c 1
 256 36 l 1
 258 17 l 1
 235.8515625 -8.83984375 229.635742188 -29.25 229.635742188 -55.7841796875 c 0
 229.635742188 -110.372070312 270.204101562 -157.020507812 325.408203125 -157.020507812 c 0
 364.670898438 -157.020507812 408.6796875 -136.221679688 442.370117188 -83 c 1
EndSplineSet
EndChar

StartChar: si_Va
Encoding: 55 3520 8
Width: 574
VWidth: 0
Flags: HW
LayerCount: 4
Fore
SplineSet
50 219 m 0
 50 284.815429688 71.0517578125 335.01171875 107.403320312 363 c 0
 128.493164062 379.237304688 154.733398438 388 185 388 c 0
 234 388 302 388 302 388 c 1
 321 354 l 1
 185 354 l 2
 122.041169819 354 86 298.87298584 86 219 c 0
 86 154.403193721 116.046892919 40 268 40 c 0
 395.865234375 40 469 150.518554688 469 354 c 0
 469 634.014648438 378.22265625 712 267 712 c 0
 196.127929688 712 138.32421875 665.926757812 115 605 c 1
 81 618 l 1
 119 716 206.967773438 749 267 749 c 0
 399.145507812 749 507 662.955078125 507 354 c 0
 507 126.541015625 420.0390625 3 268 3 c 0
 85.9905660377 3 50 141.05078125 50 219 c 0
89 420 m 0
 89 488 140.34375 524 199 524 c 0
 263.555664062 524 323.444335938 481.098632812 323.444335938 387 c 0
 323.444335938 375.040039062 322.55859375 364.26171875 321 354 c 1
 289.620117188 379 l 1
 289.52734375 381.637695312 289.444335938 384.229492188 289.444335938 387 c 0
 289.444335938 457.74609375 247.362304688 490 199 490 c 0
 157.04296875 490 122.475585938 467 122.475585938 420 c 0
 122.475585938 395.599609375 132 376 145 364 c 0
 120.818359375 344 l 0
 105 358 89 388.0234375 89 420 c 0
EndSplineSet
Layer: 2
SplineSet
530 354 m 4
 529 118 448 0 268 0 c 4
 90 0 37.8115234375 137 37.8115234375 218.826171875 c 4
 37.8115234375 279.354492188 57.7099609375 335.661132812 88.189453125 362 c 4
 109.208984375 380.1640625 137.286132812 391 173.887695312 391 c 6
 268 391 l 5
 297 363 341.944335938 306 341.944335938 306 c 5
 216.887695312 306 l 6
 160.887695312 306 148.487304688 270.6015625 148.487304688 226.6015625 c 4
 148.487304688 174 175.080078125 115 268 115 c 4
 372.452148438 115 414 195.017578125 414 354 c 4
 414 583 342.6796875 640 259.854492188 640 c 4
 218.750976562 640 178.666015625 618.959960938 161.610351562 576.85546875 c 5
 52.578125 613.029296875 l 5
 88.5625 707.868164062 173.133789062 755 259.854492188 755 c 4
 399.326171875 755 530 675.859375 530 354 c 4
188 356 m 5
 108 318.563476562 l 5
 88 351 77.5361328125 380.620117188 77.5361328125 409.272460938 c 4
 77.5361328125 481.53515625 126.506835938 531.563476562 200.807617188 531.563476562 c 4
 277.793945312 531.563476562 349.193359375 474.899414062 349.193359375 365.563476562 c 4
 349.193359375 351 346 325 341.944335938 306 c 5
 251.564453125 371.875 l 5
 258.104492188 406 242.104492188 444 200.80859375 444 c 4
 176.008789062 444 167.016601562 426.133789062 167.016601562 404.787109375 c 4
 167.016601562 386.79296875 179.301757812 370.325195312 188 356 c 5
 188 356 l 5
EndSplineSet
Layer: 3
SplineSet
-261.555664062 387 m 0
 -261.555664062 457.74609375 -303.637695312 490 -352 490 c 0
 -393.95703125 490 -428.524414062 467 -428.524414062 420 c 0
 -428.524414062 395.599609375 -419 376 -406 364 c 0
 -430.181640625 344 l 0
 -446 358 -462 388.0234375 -462 420 c 0
 -462 488 -410.65625 524 -352 524 c 0
 -287.443359375 524 -227.555664062 481.098632812 -227.555664062 387 c 0
 -227.555664062 375.040039062 -228.44140625 364.26171875 -230 354 c 1
 -261.379882812 379 l 1
 -261.47265625 381.637695312 -261.555664062 384.229492188 -261.555664062 387 c 0
-475 219 m 0
 -475 154.403320312 -444.623046875 40 -291 40 c 0
 -163.134765625 40 -90 150.518554688 -90 354 c 0
 -90 634.014648438 -180.77734375 712 -292 712 c 0
 -362.872070312 712 -420.67578125 665.926757812 -444 605 c 1
 -478 618 l 1
 -440 716 -352.032226562 749 -292 749 c 0
 -159.854492188 749 -52 662.955078125 -52 354 c 0
 -52 126.541015625 -138.9609375 3 -291 3 c 0
 -473.009765625 3 -509 141.05078125 -509 219 c 0
 -509 323 -456.435546875 388 -374 388 c 0
 -325 388 -249 388 -249 388 c 1
 -230 354 l 1
 -230 354 -323 354 -374 354 c 0
 -438.23046875 354 -475 298.873046875 -475 219 c 0
-261.555664062 387 m 0
 -261.555664062 457.74609375 -303.637695312 490 -352 490 c 0
 -393.95703125 490 -428.524414062 467 -428.524414062 420 c 0
 -428.524414062 395.599609375 -419 376 -406 364 c 0
 -430.181640625 344 l 0
 -446 358 -462 388.0234375 -462 420 c 0
 -462 488 -410.65625 524 -352 524 c 0
 -287.443359375 524 -227.555664062 481.098632812 -227.555664062 387 c 0
 -227.555664062 375.040039062 -228.44140625 364.26171875 -230 354 c 1
 -261.379882812 379 l 1
 -261.47265625 381.637695312 -261.555664062 384.229492188 -261.555664062 387 c 0
185 329 m 2
 141.826305995 329 97.3115234375 301.95423944 97.3115234375 202 c 0
 97.3115234375 145.87088085 120.40077576 40 268 40 c 0
 395.865234375 40 469 150.518554688 469 354 c 0
 469 634.014648438 378.22265625 712 267 712 c 0
 196.127929688 712 138.32421875 665.926757812 115 605 c 1
 81 618 l 1
 119 716 206.967773438 749 267 749 c 0
 399.145507812 749 507 662.955078125 507 354 c 0
 507 126.541015625 420.0390625 3 268 3 c 0
 91 3 63.3115234375 133.051267217 63.3115234375 202 c 0
 63.3115234375 328.833964633 124.889706765 363 185 363 c 2
 310 363 l 1
 312.837656988 352.543945312 326.269709364 340.360351562 329 329 c 1
 185 329 l 2
292 336 m 1
 307.0234375 448.077148438 256.44140625 491 199 491 c 0
 155.82126333 491 123.446577027 452.011470412 123.446577027 410.092787722 c 0
 123.446577027 390.849954048 130.268838627 370.989654283 146 354 c 1
 122 332 l 1
 99.6952147535 354.647935789 89.0479066773 384.361009256 89.0479066773 413.623562344 c 0
 89.0479066773 469.637147522 128.060258563 524 199 524 c 0
 279.294921875 524 350 470 329 329 c 1
 292 336 l 1
EndSplineSet
EndChar

StartChar: si_I
Encoding: 7 3465 12
Width: 510
VWidth: 0
Flags: HW
LayerCount: 4
Fore
SplineSet
112 -137.540039062 m 1
 140 -114 l 1
 167.146471637 -148.369025529 200.619264457 -163.338867188 231.709960938 -163.338867188 c 0
 290.534218199 -163.338867188 325 -121.751721017 325 -70 c 0
 325 -24.29296875 312.221359156 28 207 28 c 1
 230 56 l 1
 276 45 l 1
 319 43 362 6 362 -70 c 0
 362 -142.266601562 313.684063649 -200.338867188 231.709960938 -200.338867188 c 0
 191.127084657 -200.338867188 147.434628037 -181.285092372 112 -137.540039062 c 1
38 375 m 0
 38 476.044765727 106.125 591 256 591 c 0
 377.700510661 591 485 515.195417733 485 322 c 0
 485 127.572265625 354.990750127 33.7555443923 207 28 c 1
 205.999023438 65.7744140625 l 1
 309 65.7744140625 448 136.21875 448 322 c 0
 448 488.622070312 358.03694332 554 256 554 c 0
 138.621409759 554 72 467.324778225 72 375 c 0
 72 302.069306931 107 248 107 248 c 1
 119 218 l 1
 85 223 l 1
 54 260 38 307 38 375 c 0
63 300 m 0
 63 367.724609375 109 423.869140625 181 423.869140625 c 0
 207.994875552 423.869140625 232.884433957 414.980385813 253.058074602 400.000001284 c 0
 283.495963161 377.397671696 303.198242188 340.92797601 303.198242188 300.198242188 c 0
 303.198242188 232.473632812 248.724609375 178 181 178 c 0
 127.372913132 178 81.1309666453 212.155585402 64.2032458965 259.999997754 c 0
 62.393735157 265.114388478 61.8568844208 270.352397194 61.8568844208 275.715709706 c 0
 61.8568844208 283.541917935 63 291.634935377 63 300 c 0
93.0986328125 299.95703125 m 0
 93.0986328125 251.448413104 132.18854366 212.306640625 180.749023438 212.306640625 c 0
 229.254375806 212.306640625 268.401367188 251.393376271 268.401367188 299.95703125 c 0
 268.401367188 348.466053967 229.310470935 387.611328125 180.749023438 387.611328125 c 0
 132.240405292 387.611328125 93.0986328125 348.517916031 93.0986328125 299.95703125 c 0
EndSplineSet
Layer: 2
SplineSet
181.901367188 10.439453125 m 5
 180 106 l 5
 268 106 387 129 387 297.078125 c 4
 387 416 323.379882812 482 246.098632812 482 c 4
 159.098632812 482 118 429.325195312 118 374 c 5
 97.0986328125 285 l 5
 52.0986328125 233 l 5
 -26.9013671875 382 57.0986328125 594 246.098632812 594 c 4
 386.48046875 594 501.999023438 496 501.999023438 297.078125 c 4
 501.999023438 130 397.424804688 44.45703125 318.999023438 34 c 4
 288.999023438 30 287.607421875 15.373046875 261.999023438 11.3408203125 c 4
 249.46875 9.3671875 235.819335938 31 222.999023438 31 c 4
 209.008789062 31 196.999023438 23 181.900390625 10.439453125 c 5
 181.901367188 10.439453125 l 5
37.11328125 298.48828125 m 5
 37.11328125 335.545898438 67.423828125 359.978515625 111 387 c 5
 151 450 251.926757812 444 293.81640625 398 c 4
 317.639648438 371.838867188 332.098632812 336.970703125 332.098632812 298.48828125 c 4
 332.098632812 216.549804688 266.54296875 151 184.6015625 151 c 4
 102.663085938 151 37.11328125 216.549804688 37.11328125 298.48828125 c 5
 37.11328125 298.48828125 l 5
139.140625 294.859375 m 4
 139.140625 270.4921875 158.633789062 251 183 251 c 4
 207.3671875 251 226.861328125 270.4921875 226.861328125 294.859375 c 4
 226.861328125 319.2265625 207.3671875 338.720703125 183 338.720703125 c 4
 158.633789062 338.720703125 139.140625 319.2265625 139.140625 294.859375 c 4
157.0546875 -57.5634765625 m 5
 213 -133 278.833984375 -94 278.833984375 -46.205078125 c 4
 278.833984375 -19 265.901367188 22.439453125 181.901367188 10.439453125 c 5
 195 69 l 5
 305 54 l 6
 356 47.986328125 385.674804688 -0 385.674804688 -50.5830078125 c 4
 385.674804688 -210 182 -269.397460938 80.0546875 -109.563476562 c 5
 157.0546875 -57.5634765625 l 5
EndSplineSet
Layer: 3
SplineSet
231.709960938 -200.338867188 m 4
 191.127084658 -200.339148967 147.434628037 -181.285092372 112 -137.540039062 c 5
 140 -114 l 5
 167.146471637 -148.369025529 200.619264457 -163.338867188 231.709960938 -163.338867188 c 4
 286.842038374 -163.338867188 319.14453125 -121.751721017 319.14453125 -70 c 4
 319.14453125 -24.29296875 291.555307476 25.775390625 207 28 c 5
 230 56 l 5
 276 43 l 5
 312 32 356.14453125 0 356.14453125 -70 c 4
 356.14453125 -142.266601562 310.171875 -200.338867188 231.709960938 -200.338867188 c 4
256 591 m 4
 377.700510661 591 485 515.195417733 485 322 c 4
 485 127.572265625 354.990750127 33.7555443923 207 28 c 5
 205.999023438 65.7744140625 l 5
 309 65.7744140625 448 136.21875 448 322 c 4
 448 488.622070312 358.03694332 554 256 554 c 4
 138.621409759 554 72 467.324778225 72 375 c 4
 72 302.069306931 107 248 107 248 c 5
 85 223 l 5
 54 260 38 307 38 375 c 4
 38 476.044765727 106.125 591 256 591 c 4
63 300 m 4
 63 367.724609375 109 423.869140625 181 423.869140625 c 4
 207.994875552 423.869140625 232.884433957 414.980385813 253.058074602 400.000001284 c 4
 283.495963161 377.397671696 303.198242188 340.92797601 303.198242188 300.198242188 c 4
 303.198242188 232.473632812 248.724609375 178 181 178 c 4
 127.372913132 178 81.1309666441 212.155585402 64.2032458965 259.999997754 c 4
 62.393735157 265.114388478 61.8568844208 270.352397194 61.8568844208 275.715709706 c 4
 61.8568844208 283.541917935 63 291.634935377 63 300 c 4
93.0986328125 299.95703125 m 4
 93.0986328125 251.448413104 132.18854366 212.306640625 180.749023438 212.306640625 c 4
 229.254375806 212.306640625 268.401367188 251.393376271 268.401367188 299.95703125 c 4
 268.401367188 348.466053967 229.310470935 387.611328125 180.749023438 387.611328125 c 4
 132.240405292 387.611328125 93.0986328125 348.517916031 93.0986328125 299.95703125 c 4
EndSplineSet
EndChar

StartChar: si_Ii
Encoding: 8 3466 13
Width: 515
VWidth: 0
Flags: HW
LayerCount: 4
Fore
SplineSet
201 745 m 0
 201 761 214 774 230 774 c 0
 246 774 259 761 259 745 c 0
 259 729 246 716 230 716 c 0
 214 716 201 729 201 745 c 0
425 680 m 0
 425 696 438 709 454 709 c 0
 470 709 483 696 483 680 c 0
 483 664 470 651 454 651 c 0
 438 651 425 664 425 680 c 0
EndSplineSet
Refer: 46 3515 N 1 0 0 1 -134 0 2
EndChar

StartChar: si_vocalicR
Encoding: 11 3469 15
Width: 847
VWidth: 0
Flags: HW
LayerCount: 4
Fore
SplineSet
276.833007812 454 m 0
 276.833007812 466.18594426 277.8383242 477.513162194 279.727137724 488.00000488 c 0
 292.423417099 558.490756239 345.081882177 591 401.278320312 591 c 0
 457.984375 591 517.586914062 553 517.586914062 474 c 0
 517.586914062 429.732230808 497.269780815 385.565217391 465.72265625 361 c 1
 439.72265625 382 l 1
 466.72265625 402 484.111328125 437.958762887 484.111328125 474 c 0
 484.111328125 530.04296875 441.663085938 557 401.278320312 557 c 0
 352.916015625 557 310.833984375 524.74609375 310.833984375 454 c 0
 310.833984375 435 310.833984375 416 310.833984375 402 c 1
 293.833984375 369 l 1
 284.117333212 397.662790698 276.833007812 421.38372093 276.833007812 454 c 0
77.85546875 194.102539062 m 0
 77.85546875 107.481445312 109.809570312 40 175.833984375 40 c 0
 267 40 273.591796875 148.885742188 276.833984375 224.5 c 1
 310.833984375 224.5 l 1
 314.076171875 148.885742188 320.66796875 40 411.833984375 40 c 0
 477.858398438 40 509.8125 107.481445312 509.8125 194.102539062 c 0
 509.8125 252 499 369 414.833984375 369 c 2
 172.833984375 369 l 2
 88.9853515625 369 77.85546875 252 77.85546875 194.102539062 c 0
40.85546875 194.102539062 m 0
 40.85546875 255.3515625 53.5556640625 336.482421875 98.9658203125 378 c 0
 117.240234375 394.708007812 141 405 170.984375 405 c 2
 416.68359375 405 l 2
 447 405 470.427734375 394.708007812 488.702148438 378 c 0
 534.112304688 336.482421875 546.8125 255.3515625 546.8125 194.102539062 c 0
 546.8125 86.68359375 502.791015625 3 411.833984375 3 c 0
 316.66796875 3 297.66796875 85 293.833984375 115 c 1
 290 85 271 3 175.833984375 3 c 0
 84.876953125 3 40.85546875 86.68359375 40.85546875 194.102539062 c 0
70.080078125 474 m 0
 70.080078125 553 129.682617187 591 186.388671875 591 c 0
 242.585375952 591 295.246591091 558.491205092 307.940429688 488 c 0
 309.828847641 477.513270059 310.833007812 466.18594251 310.833007812 454 c 0
 310.833007812 421.38372093 303.549100835 397.662790698 293.833007812 369 c 1
 276.833007812 402 l 1
 276.833007812 416 276.833007812 435 276.833007812 454 c 0
 276.833007812 524.74609375 234.750976562 557 186.388671875 557 c 0
 146.003906249 557 103.555664062 530.04296875 103.555664062 474 c 0
 103.555664062 437.958762887 120.944335938 402 147.944335938 382 c 1
 121.944335938 361 l 1
 90.3972113722 385.565217391 70.080078125 429.732230808 70.080078125 474 c 0
EndSplineSet
Refer: 56 3544 N 1 0 0 1 524 0 2
EndChar

StartChar: si_vocalicL
Encoding: 13 3471 17
Width: 924
VWidth: 0
Flags: HW
LayerCount: 4
Fore
SplineSet
435.915039062 454 m 0
 435.915039062 466.185546875 436.919921875 477.512695312 438.809570312 488 c 0
 451.505859375 558.491210938 504.1640625 591 560.360351562 591 c 0
 617.06640625 591 676.668945312 553 676.668945312 474 c 0
 676.668945312 429.732421875 656.3515625 385.565429688 624.8046875 361 c 1
 598.8046875 382 l 1
 625.8046875 402 643.193359375 437.958984375 643.193359375 474 c 0
 643.193359375 530.04296875 600.745117188 557 560.360351562 557 c 0
 511.998046875 557 469.916015625 524.74609375 469.916015625 454 c 0
 469.916015625 435 469.916015625 416 469.916015625 402 c 1
 452.916015625 369 l 1
 443.19921875 397.663085938 435.915039062 421.383789062 435.915039062 454 c 0
229.162109375 474 m 0
 229.162109375 553 288.764648438 591 345.470703125 591 c 0
 401.666992188 591 454.329101562 558.491210938 467.022460938 488 c 0
 468.911132812 477.513671875 469.915039062 466.185546875 469.915039062 454 c 0
 469.915039062 421.383789062 462.630859375 397.663085938 452.915039062 369 c 1
 435.915039062 402 l 1
 435.915039062 416 435.915039062 435 435.915039062 454 c 0
 435.915039062 524.74609375 393.833007812 557 345.470703125 557 c 0
 305.0859375 557 262.637695312 530.04296875 262.637695312 474 c 0
 262.637695312 437.958984375 280.026367188 402 307.026367188 382 c 1
 281.026367188 361 l 1
 249.479492188 385.565429688 229.162109375 429.732421875 229.162109375 474 c 0
77.677734375 94.9384765625 m 0
 77.677734375 145.556729403 117.965731534 185.844726562 168.583984375 185.844726562 c 0
 219.201797314 185.844726562 260.522460938 145.556729403 260.522460938 94.9384765625 c 0
 260.522460938 44.3206636236 219.201797314 3 168.583984375 3 c 0
 117.965731534 3 77.677734375 44.3206636236 77.677734375 94.9384765625 c 0
55.4716796875 284.5625 m 0
 55.4716796875 517.551757812 115.729112804 579.5625 172.471679688 579.5625 c 0
 233.477511345 579.5625 262.638671875 534.5625 262.638671875 474.563476562 c 1
 229.163085938 474.563476562 l 1
 227.821583544 522.220703125 203.573523723 542.5625 172.471679688 542.5625 c 0
 123.504921109 542.5625 92.4716796875 447.6484375 92.4716796875 284.5625 c 0
 92.4716796875 215.38485987 96.654296875 163.74609375 104 123 c 1
 105 60 130.103316793 38.5673828125 169 38.5673828125 c 1
 168.583984375 3 l 1
 79 3 55.4716796875 86.2941222705 55.4716796875 284.5625 c 0
113 95.1298828125 m 0
 113 64.1721458235 137.718659222 38.5673828125 169 38.5673828125 c 0
 200.260122097 38.5673828125 225 64.1656649795 225 95.1298828125 c 0
 225 126.086682816 200.281794925 151.692382812 169 151.692382812 c 0
 137.739399561 151.692382812 113 126.093112222 113 95.1298828125 c 0
234.083007812 224.436523438 m 0
 234.083007812 107.2421875 320.107421875 30 452.916992188 30 c 0
 585.7265625 30 671.750976562 107.2421875 671.750976562 224.436523438 c 0
 671.750976562 299.84375 633.274414062 365 549.083007812 365 c 2
 356.750976562 365 l 2
 272.559570312 365 234.083007812 299.84375 234.083007812 224.436523438 c 0
197.083007812 224.436523438 m 0
 197.083007812 319.693359375 249.986328125 402 356.750976562 402 c 2
 549.083007812 402 l 2
 655.84765625 402 708.750976562 319.693359375 708.750976562 224.436523438 c 0
 708.750976562 84.94140625 608.422851562 -7 452.916992188 -7 c 0
 346.802734375 -7 266.381835938 35.8125 226 107.33203125 c 1
 225 116.436523438 221 123.436523438 215 129.877929688 c 1
 203.287109375 158.001953125 197.083007812 189.749023438 197.083007812 224.436523438 c 0
EndSplineSet
Layer: 2
SplineSet
393.518554688 392 m 1
 403.274414062 417 l 2
 405.528693844 422.776732974 404.838867188 429.211914062 404.838867188 434.875 c 0
 404.838867188 472.5078125 382.609375 496.563476562 354.083007812 496.563476562 c 0
 324.727539062 496.563476562 308.899414062 475.563476562 308.899414062 451.727539062 c 0
 308.899414062 439.671875 315.53515625 420.124023438 323.518554688 411 c 1
 245.518554688 371 l 1
 226.208984375 396.20703125 215.423828125 429.16796875 215.423828125 456.970703125 c 0
 215.423828125 532.700195312 267.5234375 594.563476562 354.083007812 594.563476562 c 0
 421.205078125 594.563476562 484.07421875 551.494140625 499.087890625 468.000976562 c 1
 484.000976562 448.000976562 489.000976562 423.000976562 501.10546875 403.000976562 c 1
 498.53515625 377.439453125 492.415039062 348.913085938 483.518554688 320.000976562 c 1
 393.518554688 392 l 1
511.043945312 392 m 1
 421.043945312 320 l 1
 412.494140625 347.786132812 406.508789062 375.215820312 403.7734375 400 c 1
 428.000976562 420 440.000976562 456 408.275390625 481 c 1
 427.19921875 555.9609375 486.932617188 594.563476562 550.479492188 594.563476562 c 0
 637.0390625 594.563476562 689.137695312 532.69921875 689.137695312 456.969726562 c 0
 689.137695312 429.166992188 678.352539062 396.206054688 659.04296875 370.999023438 c 1
 581.04296875 410.999023438 l 1
 589.026367188 420.123046875 595.662109375 439.670898438 595.662109375 451.7265625 c 0
 595.662109375 475.5625 579.833984375 496.5625 550.478515625 496.5625 c 0
 521.952148438 496.5625 499.72265625 472.506835938 499.72265625 434.874023438 c 0
 499.72265625 429.2109375 499.03257928 422.77559394 501.287109375 416.999023438 c 2
 511.043945312 392 l 1
792.043945312 280 m 0
 792.044794833 421.659179685 747.249023438 479.84375 703.671875 479.84375 c 0
 662.043945312 479.84375 647.220703125 442.4296875 642.043945312 425.84375 c 1
 588.043945312 486.84375 l 1
 596.522460938 527.423828125 634.352539062 583.84375 703.671875 583.84375 c 0
 807.770507812 583.84375 892.950195312 506.41796875 892.950195312 283.84375 c 0
 892.950195312 46.1201171875 802.04296875 0 734.561523438 0 c 1
 729.950195312 79 l 1
 780.04296875 79 792.04296875 117.15625 792.043945312 280 c 0
773.086914062 129.615234375 m 0
 773.086914062 151.865234375 755.454101562 169.790039062 733.565429688 169.790039062 c 0
 711.676757812 169.790039062 694.043945312 151.865234375 694.043945312 129.615234375 c 0
 694.043945312 107.364257812 711.676757812 89.4404296875 733.565429688 89.4404296875 c 0
 755.454101562 89.4404296875 773.086914062 107.364257812 773.086914062 129.615234375 c 0
841.043945312 130 m 0
 841.043945312 58 793.537109375 0 734.5625 0 c 0
 662.5625 0 604.5625 58 604.5625 130 c 0
 604.5625 202 662.5625 260 726.043945312 260 c 0
 810.043945312 260 841.043945312 176 841.043945312 130 c 0
112.518554688 280 m 1
 112.518554688 117.15625 124.518554688 79 174.611328125 79 c 1
 170 0 l 1
 102.518554688 0 11.611328125 46.1201171875 11.611328125 283.84375 c 0
 11.611328125 506.41796875 96.7919921875 583.84375 200.889648438 583.84375 c 0
 270.209960938 583.84375 308.0390625 527.424804688 316.517578125 486.84375 c 1
 262.517578125 425.84375 l 1
 257.340820312 442.4296875 242.517578125 479.84375 200.889648438 479.84375 c 0
 157.3125 479.84375 112.517578125 421.659179688 112.517578125 280 c 1
 112.518554688 280 l 1
131.475585938 129.615234375 m 0
 131.475585938 107.364257812 149.108398438 89.4404296875 170.997070312 89.4404296875 c 0
 192.885742188 89.4404296875 210.518554688 107.364257812 210.518554688 129.615234375 c 0
 210.518554688 151.865234375 192.885742188 169.790039062 170.997070312 169.790039062 c 0
 149.108398438 169.790039062 131.475585938 151.865234375 131.475585938 129.615234375 c 0
63.5185546875 130 m 0
 63.5185546875 176 94.5185546875 260 178.518554688 260 c 0
 242 260 300 202 300 130 c 0
 300 58 242 0 170 0 c 0
 111.025390625 0 63.5185546875 58 63.5185546875 130 c 0
533.561523438 417 m 1
 655.944335938 417 717.000976562 330.65234375 717.000976562 225 c 0
 717.000976562 208.430664062 715.53515625 192.732421875 712.759765625 177.905273438 c 1
 696.518554688 170 668.518554688 150 690.806640625 114.922851562 c 1
 600.588867188 -53.455078125 303.37109375 -53.3046875 213.518554688 115.368164062 c 1
 236.518554688 150 210.518554688 166 194.518554688 165.331054688 c 1
 189.990234375 183.776367188 187.561523438 203.666015625 187.561523438 225 c 0
 187.561523438 330.65234375 248.618164062 417 371 417 c 2
 401.76171875 417 l 1
 502.798828125 417 l 1
 533.560546875 417 l 1
 533.561523438 417 l 1
527.561523438 319 m 1
 377.000976562 319 l 2
 322.000976562 319 294.561523438 276.725585938 294.561523438 225 c 0
 294.561523438 64.9228515625 610 65.5234375 610 225 c 0
 610 276.725585938 527.560546875 319 527.560546875 319 c 2
 527.561523438 319 l 1
EndSplineSet
EndChar

StartChar: si_E
Encoding: 15 3473 19
Width: 574
VWidth: 0
Flags: HW
LayerCount: 4
Fore
SplineSet
324.416992188 603 m 0
 324.416992188 667.297851562 366.900390625 706.649414062 366.900390625 740.684570312 c 0
 366.900390625 754.21875 360.182617188 766.912109375 341.405273438 780 c 1
 341.405273438 780 405.014648438 761 405.014648438 761 c 1
 402.669921875 749.58984375 399.114257812 726.290039062 399.114257812 726.290039062 c 1
 399.114257812 693.052734375 360.405273438 661.163085938 360.405273438 603 c 0
 360.405273438 561.561523438 402.151367188 524.958984375 465.374023438 524.958984375 c 0
 473.831054688 524.958984375 482.671875 525.614257812 491.848632812 527 c 1
 515.014648438 522 l 1
 499.848632812 494 l 1
 487.600585938 492.012695312 475.801757812 491.073242188 464.514648438 491.073242188 c 0
 380.133789062 491.073242188 324.416992188 543.567382812 324.416992188 603 c 0
88.833984375 207 m 0
 88.833984375 309.341796875 138.833984375 349 147.833984375 354 c 1
 74.5908203125 354 l 1
 74.5908203125 389 l 1
 347.110351562 389 l 1
 354.833984375 354 l 1
 224.833984375 354 l 2
 173.833984375 354 124.833984375 296.708984375 124.833984375 208 c 0
 124.833984375 142.71484375 156.984375 40 293.833984375 40 c 0
 432.015356989 40 507 150.386038901 507 342 c 0
 507 410.758789062 502.765625 471.186523438 491.874023438 524 c 1
 470.696289062 608.981445312 437.6640625 674.717773438 397.834960938 724 c 1
 380.209960938 745.807617188 361.25390625 764.393554688 341.405273438 780 c 1
 364.405273438 807 l 1
 483.4140625 715.40234375 544 562.866210938 544 342 c 0
 544 126.910344828 456 3 293.833984375 3 c 0
 127.833984375 3 88.833984375 127.725585938 88.833984375 207 c 0
122.833984375 420 m 0
 122.833984375 488 174.177734375 524 232.833984375 524 c 0
 297.390625 524 357.278320312 481.098632812 357.278320312 387 c 0
 357.278320312 375.040039062 356.392578125 364.26171875 354.833984375 354 c 1
 323.454101562 379 l 1
 323.361328125 381.637695312 323.278320312 384.229492188 323.278320312 387 c 0
 323.278320312 457.74609375 281.196289062 490 232.833984375 490 c 0
 190.876953125 490 156.309570312 467 156.309570312 420 c 0
 156.309570312 406.329101562 159.298828125 394.165039062 164.21484375 384 c 0
 135.344726562 370 l 0
 127.991210938 384.3203125 122.833984375 401.845703125 122.833984375 420 c 0
EndSplineSet
Layer: 2
SplineSet
293.833984375 115 m 0
 398.286132812 115 452.833984375 181.017578125 452.833984375 340 c 0
 452.833984375 521.698242188 405.833984375 668 294.833984375 735 c 1
 366.833984375 819 l 1
 504.833984375 728 567.833984375 555.741210938 567.833984375 340 c 0
 567.833984375 104 473.833984375 0 293.833984375 0 c 0
 115.833984375 0 66.380859375 133.561523438 76.42578125 223 c 0
 80.0419921875 255.19921875 90.833984375 286 105.833984375 306 c 1
 69.072265625 306 l 1
 69.072265625 393 l 1
 333.938476562 390 l 1
 367.778320312 306 l 1
 260.833984375 306 l 2
 204.048828125 306 183.815429688 261.911132812 183.815429688 214.068359375 c 0
 183.815429688 166.573242188 213.149414062 115 293.833984375 115 c 0
213.833984375 356 m 1
 133.833984375 318.563476562 l 1
 113.833984375 351 103.370117188 380.620117188 103.370117188 409.272460938 c 0
 103.370117188 481.53515625 152.340820312 531.563476562 226.642578125 531.563476562 c 0
 303.62890625 531.563476562 375.02734375 474.899414062 375.02734375 365.563476562 c 0
 375.02734375 351 371.833984375 325 367.778320312 306 c 1
 367.778320312 306 276.333007812 366.313476562 277.3984375 371.875 c 0
 283.938476562 406 267.938476562 444 226.642578125 444 c 0
 201.842773438 444 192.850585938 426.133789062 192.850585938 404.787109375 c 0
 192.850585938 386.79296875 205.135742188 370.325195312 213.833984375 356 c 1
429.833984375 559 m 1
 439.833984375 578 446.482421875 611.987304688 433.833984375 626 c 0
 427.63671875 632.865234375 392.833984375 658 381.833984375 654 c 1
 339.833984375 636 345.833984375 565 429.833984375 559 c 1
294.833984375 735 m 1
 360.833984375 783 l 1
 403.833984375 766 l 1
 453.740234375 738.635742188 524.203125 493.768554688 445.833984375 463 c 1
 368.213867188 465.250976562 269.950195312 527 269.950195312 613.133789062 c 0
 269.950195312 688.51171875 342.7421875 699.581054688 294.833984375 735 c 1
EndSplineSet
EndChar

StartChar: si_Ee
Encoding: 16 3474 20
Width: 574
VWidth: 0
Flags: HW
LayerCount: 4
Fore
SplineSet
496 819 m 1
 533 819 l 1
 533 496 l 1
 496 496 l 1
 496 819 l 1
EndSplineSet
Refer: 19 3473 N 1 0 0 1 0 0 2
EndChar

StartChar: si_Os
Encoding: 18 3476 22
Width: 590
VWidth: 0
Flags: HW
LayerCount: 4
Fore
SplineSet
53.2373046875 250.999023438 m 4
 53.2373046875 390.37109375 84.25 523.999023438 171.875976562 523.999023438 c 4
 237.237304688 523.999023438 261.237304688 474 261.237304688 426 c 5
 226.237304688 419 l 5
 226.237304688 470.220703125 201.9375 489 172.237304688 489 c 4
 112.237304688 489 90.2373046875 368 90.2373046875 250.999023438 c 4
 90.2373046875 167.890625 93.9541015625 40 175.833984375 40 c 4
 267 40 273.591796875 148.885742188 276.833984375 224.5 c 5
 310.833984375 224.5 l 5
 314.076171875 148.885742188 320.66796875 40 411.833984375 40 c 4
 504.567382812 40 511.390625 164 511.390625 293 c 4
 511.390625 576.88671875 436.939453125 712 283.833984375 712 c 4
 212.961914062 712 144.485351562 665.926757812 121.161132812 605 c 5
 87.1611328125 618 l 5
 115.360351562 692.592773438 198.1484375 749 283.833984375 749 c 4
 461.833984375 749 548.390625 601.955078125 548.390625 293 c 4
 548.390625 145.134765625 539.03125 3 411.833984375 3 c 4
 316.66796875 3 297.66796875 85 293.833984375 115 c 5
 290 85 271 3 175.833984375 3 c 4
 61.2373046875 3 53.2373046875 153.317382812 53.2373046875 250.999023438 c 4
223.237304688 370 m 4
 223.237304688 385.758789062 226.237304688 397 226.237304688 419 c 5
 261.237304688 426 l 5
 261.237304688 415.9765625 259.237304688 386.337890625 259.237304688 370 c 4
 259.237304688 346 265.462890625 317 302.237304688 317 c 4
 345.432617188 317 346.237304688 381.9609375 346.237304688 402 c 4
 346.237304688 422.0390625 345.432617188 487 302.237304688 487 c 4
 278.462890625 487 262.237304688 470 258.237304688 441 c 5
 227.237304688 444 l 5
 232.237304688 486 254.237304688 523 302.237304688 523 c 4
 380.774414062 523 382.237304688 430.526367188 382.237304688 402 c 4
 382.237304688 373.473632812 380.774414062 281 302.237304688 281 c 4
 245.24609375 281 223.237304688 322.965820312 223.237304688 370 c 4
EndSplineSet
Layer: 2
SplineSet
191.045898438 114.651367188 m 5
 233.221679688 114.651367188 248.227539062 179.676757812 248.227539062 249.499023438 c 5
 344.138671875 249.499023438 l 5
 344.138671875 176.749023438 359.606445312 114.999023438 402.596679688 114.999023438 c 4
 459.352539062 114.999023438 459.352539062 239.95703125 459.352539062 292.999023438 c 4
 459.352539062 522.795898438 416.352539062 639.883789062 278.352539062 639.883789062 c 4
 237.249023438 639.883789062 189.58984375 618.958984375 172.534179688 576.854492188 c 5
 63.501953125 613.028320312 l 5
 99.486328125 707.8671875 191.631835938 755 278.353515625 755 c 4
 495.353515625 755 574.353515625 599.055664062 574.353515625 293 c 4
 574.353515625 181.995117188 573.353515625 0 402.59765625 0 c 4
 346.677734375 0 308.655273438 33.1435546875 293.833984375 79.0302734375 c 5
 277.688476562 31.6025390625 238.276367188 0 185.59765625 0 c 4
 72.59765625 0 38.59765625 115 38.59765625 253 c 4
 38.59765625 389 71.59765625 527 186.884765625 527 c 4
 250.884765625 527 290.59765625 481 291.59765625 438 c 5
 209.59765625 413 l 5
 209.59765625 423.389648438 199.59765625 429 192.59765625 429 c 4
 156.884765625 429 145.270507812 348 145.270507812 265.911132812 c 4
 145.270507812 202.999023438 150.53125 114.651367188 191.046875 114.651367188 c 5
 191.045898438 114.651367188 l 5
287.596679688 437.999023438 m 1
 246.596679688 497.999023438 l 1
 258.596679688 512.999023438 276.822265625 525.999023438 309.822265625 525.999023438 c 0
 369.822265625 525.999023438 400.596679688 479.904296875 400.596679688 403.999023438 c 0
 400.596679688 326.904296875 384.596679688 274.999023438 303.596679688 274.999023438 c 0
 231.0703125 274.999023438 206.65625 316.837890625 206.65625 374.955078125 c 0
 206.65625 387.01171875 209.596679688 402.999023438 209.596679688 412.999023438 c 1
 291.596679688 437.999023438 l 1
 286.596679688 383.999023438 290.596679688 363.999023438 308.596679688 363.999023438 c 0
 319.419921875 363.999023438 325.596679688 373.999023438 325.596679688 404.01953125 c 0
 325.596679688 425.853515625 322.98828125 446.86328125 306.596679688 446.86328125 c 0
 299.596679688 446.86328125 292.596679688 444.999023438 287.596679688 437.999023438 c 1
EndSplineSet
EndChar

StartChar: si_Oo
Encoding: 19 3477 23
Width: 590
VWidth: 0
Flags: HW
LayerCount: 4
Fore
SplineSet
548.390625 293 m 0
 548.390625 145.134765625 539.03125 3 411.833984375 3 c 0
 316.66796875 3 297.66796875 85 293.833984375 115 c 1
 290 85 271 3 175.833984375 3 c 0
 61.2373046875 3 53.2373046875 153.317382812 53.2373046875 250.999023438 c 0
 53.2373046875 390.37109375 84.25 523.999023438 171.875976562 523.999023438 c 0
 237.237304688 523.999023438 261.237304688 474 261.237304688 426 c 1
 226.237304688 419 l 1
 226.237304688 470.220703125 201.9375 489 172.237304688 489 c 0
 112.237304688 489 90.2373046875 368 90.2373046875 250.999023438 c 0
 90.2373046875 167.890625 93.9541015625 40 175.833984375 40 c 0
 267 40 273.591796875 148.885742188 276.833984375 224.5 c 1
 310.833984375 224.5 l 1
 314.076171875 148.885742188 320.66796875 40 411.833984375 40 c 0
 504.567382812 40 511.390625 164 511.390625 293 c 0
 511.390625 582 383.930664062 651 265.090820312 651 c 0
 195.151367188 651 153.604492188 621.4765625 115.090820312 591 c 1
 91.0908203125 620 l 1
 139.649414062 663.098632812 208.931640625 688 265.090820312 688 c 0
 401.783203125 688 548.390625 611.869140625 548.390625 293 c 0
483 712 m 0
 483 779.357012774 397.2676369 827 292.090820312 827 c 0
 160.709306744 827 125.090820312 779.817834526 125.090820312 746 c 0
 125.090820312 712.767299107 152.274529949 683.518136161 178.090820312 668 c 1
 179.090820312 637 l 1
 151.090820312 646 l 1
 120.403834531 665.895287958 88.0908203125 703.39426538 88.0908203125 746 c 0
 88.0908203125 795.265487335 131.600827691 864 292.090820312 864 c 0
 417.651896159 864 520 801.028571429 520 712 c 0
 520 659 485.752798047 621 437 602 c 1
 407 611 l 1
 429 636 l 1
 460.718687886 649.127165842 483 675.381497525 483 712 c 0
223.237304688 370 m 0
 223.237304688 385.758789062 226.237304688 397 226.237304688 419 c 1
 261.237304688 426 l 1
 261.237304688 415.9765625 259.237304688 386.337890625 259.237304688 370 c 0
 259.237304688 346 265.462890625 317 302.237304688 317 c 0
 345.432617188 317 346.237304688 381.9609375 346.237304688 402 c 0
 346.237304688 422.0390625 345.432617188 487 302.237304688 487 c 0
 278.462890625 487 262.237304688 470 258.237304688 441 c 1
 227.237304688 444 l 1
 232.237304688 486 254.237304688 523 302.237304688 523 c 0
 380.774414062 523 382.237304688 430.526367188 382.237304688 402 c 0
 382.237304688 373.473632812 380.774414062 281 302.237304688 281 c 0
 245.24609375 281 223.237304688 322.965820312 223.237304688 370 c 0
EndSplineSet
Layer: 2
SplineSet
573.836914062 293 m 2
 573.352539062 181.99609375 562.352539062 0 404.596679688 0 c 0
 348.676757812 0 308.654296875 33.14453125 293.833984375 79.0302734375 c 1
 277.688476562 31.6025390625 234.516601562 0 181.836914062 0 c 0
 69.8369140625 0 38.8369140625 115 38.8369140625 253 c 0
 38.8369140625 389 83.1240234375 527 187.124023438 527 c 0
 251.124023438 527 290.836914062 481 291.836914062 438 c 1
 203.54296875 412.546875 l 1
 203.198242188 422.934570312 200.032226562 429 189.124023438 429 c 0
 157.124023438 429 145.509765625 348 145.509765625 265.912109375 c 0
 145.509765625 202 149.836914062 115 189.352539062 115 c 0
 236.052734375 115 248.227539062 176.75 248.227539062 249.5 c 1
 344.138671875 249.5 l 1
 344.138671875 176.75 357.481445312 115 400.471679688 115 c 0
 452.68359375 115 458.836914062 239.959960938 458.836914062 293 c 0
 458.836914062 527 367.158203125 581 246.646484375 581 c 0
 209.104492188 581 156.890625 564.03125 127.646484375 538 c 1
 64.646484375 620 l 1
 132.646484375 684 211.646484375 690.975585938 262.646484375 690.975585938 c 0
 451.935546875 690.975585938 573.836914062 587 573.836914062 293 c 2
 573.836914062 293 l 2
404.081054688 565 m 1
 404.08203125 565.000976562 l 1
 454.734375 565.000976562 543.954101562 607.000976562 543.954101562 701.000976562 c 0
 543.954101562 790.409179688 454.342773438 871.000976562 290.408203125 871.000976562 c 0
 136.857421875 871.000976562 75.6435546875 811.694335938 75.6435546875 743.688476562 c 0
 75.6435546875 713.359375 89.646484375 680 116.646484375 656 c 1
 199.646484375 649 l 1
 203.646484375 682 l 1
 191.646484375 697 182.666992188 705.181640625 182.666992188 724.96484375 c 0
 182.666992188 747.772460938 206.461914062 771 290.408203125 771 c 0
 392.971679688 771 428.953125 733.87890625 428.953125 701 c 0
 428.953125 676.732421875 417.081054688 655 390.953125 648 c 1
 371.081054688 607 l 1
 404.081054688 565 l 1
282.836914062 440 m 1
 246.836914062 498 l 1
 258.836914062 513 272.836914062 526 305.836914062 526 c 0
 365.836914062 526 395.836914062 469.645507812 395.836914062 412.094726562 c 0
 395.836914062 347.137695312 384.836914062 275 298.836914062 275 c 0
 211.263671875 275 197.836914062 346 203.54296875 412.546875 c 1
 291.836914062 438 l 1
 288.836914062 399 286.836914062 364 304.836914062 364 c 0
 315.66015625 364 321.978515625 382.995117188 321.978515625 404.020507812 c 0
 321.978515625 425.854492188 319.002929688 446.864257812 302.611328125 446.864257812 c 0
 297.456054688 446.864257812 288.836914062 446 282.836914062 440 c 1
EndSplineSet
EndChar

StartChar: si_Ka
Encoding: 21 3482 25
Width: 810
VWidth: 0
Flags: HW
LayerCount: 4
Fore
SplineSet
522.04296875 196 m 4
 522.04296875 123.088888889 509.497782939 3 406 3 c 4
 347.939453125 3 323 48 322 79 c 5
 322 48 299.14453125 3 238 3 c 4
 170.808667453 3 154 48.0372295673 154 105 c 4
 154 120.909090909 160.222222222 169.772727273 138 155 c 5
 162 190 l 5
 192.642857143 198.607594937 188 129.746835443 188 105 c 4
 188 68.7001953125 198.005159198 40 238 40 c 4
 293 40 304 108.077148438 304 170 c 5
 340 170 l 5
 340 108.077148438 351 40 406 40 c 4
 482.448449797 40 485 157.618963068 485 196 c 4
 485 336.163390937 433.232648577 387.666992187 374 387.666992188 c 4
 335 387.666992188 316 375 299 360 c 5
 285 382 l 5
 308 402 337 424.666992188 374 424.666992188 c 4
 452.999739503 424.666992188 522.04296875 363.220998319 522.04296875 196 c 4
504 95 m 5
 510.611570247 65 535.445581692 40 584 40 c 4
 647.107142857 40 698 98.9899799599 698 263 c 4
 698 469.222856571 619.648987676 545 530 545 c 4
 461.790226614 545 406.785507632 494.647141463 358 433 c 6
 138 155 l 5
 113 184 l 5
 331 458 l 6
 386.471892699 527.721553208 452.541844057 582 530 582 c 4
 639.393109962 582 735 496.280465411 735 263 c 4
 735 90.4226248909 686.355704698 3 584 3 c 4
 514.809953911 3 479.421487604 40.7272727273 470 86 c 5
 504 95 l 5
149.72265625 474 m 4
 149.72265625 407.775810088 193 368 270 356 c 5
 262 325 l 5
 175 338 116.247070312 390.37755102 116.247070312 474 c 4
 116.247070312 553 175.849609375 591 232.555664062 591 c 4
 297.112304688 591 357 548.098632812 357 454 c 4
 323 402 l 5
 323 416 323 435 323 454 c 4
 323 524.74609375 280.91796875 557 232.555664062 557 c 4
 192.169921875 557 149.72265625 530.04296875 149.72265625 474 c 4
EndSplineSet
Layer: 2
SplineSet
112 126 m 5
 151.372070312 214 l 5
 197 206 l 5
 203 197 210.459960938 191.751953125 210.459960938 156 c 4
 210.459960938 138.591796875 212.092773438 109 235.372070312 109 c 4
 254.029296875 109 270.372070312 119 270.372070312 160 c 6
 270.372070312 227 l 5
 360.372070312 227 l 5
 360.372070312 160 l 6
 360.372070312 122 372.372070312 109 398.372070312 109 c 4
 433.372070312 109 438.459960938 165.987304688 438.459960938 210 c 4
 438.459960938 335.987304688 358.372070312 364 307.372070312 346 c 5
 380.372070312 426 l 5
 402.813476562 437 545.459960938 431 545.459960938 210 c 4
 545.459960938 112.106445312 505.415039062 -0 399.415039062 -0 c 4
 360.415039062 -0 325.415039062 29 316 52 c 5
 307.415039062 31 276.415039062 -0 240 -0 c 4
 83 -0 175.540039062 165 112 126 c 5
529.459960938 585 m 5
 647.087890625 585 757.087890625 486 757.087890625 263 c 4
 757.087890625 58 683.971679688 -0 580.372070312 -0 c 4
 504.458007812 -0 475.657226562 58.021484375 466.372070312 94 c 5
 534.372070312 158 l 5
 535.372070312 134 538.744140625 103 580.372070312 103 c 4
 623.474609375 103 646.087890625 137 646.087890625 263 c 4
 646.087890625 399.940429688 594.3125 473.228515625 519.731445312 473.228515625 c 4
 466.731445312 473.228515625 438.950195312 457.000976562 399.373046875 415.999023438 c 4
 397.063476562 413.606445312 288.614257812 290.752929688 204.62890625 205.999023438 c 4
 159.014648438 159.96875 114.977539062 128.701171875 112.000976562 125.999023438 c 6
 108.000976562 231.999023438 l 5
 172.010742188 297.919921875 251.924804688 405.91015625 327.4609375 488.999023438 c 4
 377.514648438 544.057617188 439.4609375 584.999023438 529.4609375 584.999023438 c 5
 529.459960938 585 l 5
239.987304688 594 m 4
 316.977539062 594 388.372070312 537.3359375 388.372070312 428 c 4
 388.372070312 396.735351562 377.459960938 389.899414062 352.459960938 369.899414062 c 5
 289.178710938 416.436523438 l 5
 290.240234375 422.678710938 290.743164062 428.6484375 290.743164062 434.311523438 c 4
 290.743164062 471.944335938 266.8984375 496 238.372070312 496 c 4
 210.538085938 496 196.947265625 475.012695312 196.947265625 451.903320312 c 4
 196.947265625 411.899414062 224.170898438 394.899414062 254.170898438 387.899414062 c 5
 194.459960938 327.899414062 l 5
 149.170898438 344.899414062 104.372070312 391.899414062 104.372070312 461.536132812 c 4
 104.372070312 532.131835938 152.372070312 594 239.987304688 594 c 4
EndSplineSet
Layer: 3
SplineSet
1007 3 m 0
 943.008522727 3 916.75844999 53.5347324452 927 115 c 0
 930.131835938 133.795898438 932.26312934 166.778364702 907 155 c 1
 931 190 l 1
 962 194 969 164 963 110 c 0
 958.706846433 71.3616179008 971.804540094 40 1007 40 c 0
 1062 40 1073 108.077148438 1073 170 c 1
 1109 170 l 1
 1109 108.077148438 1120 40 1175 40 c 0
 1251.4484498 40 1254 157.618963068 1254 196 c 0
 1254 336.163390937 1202.23264858 387.666992187 1143 387.666992188 c 0
 1104 387.666992188 1085 375 1068 360 c 1
 1054 382 l 1
 1077 402 1106 424.666992188 1143 424.666992188 c 0
 1221.9997395 424.666992188 1291.04296875 363.220998319 1291.04296875 196 c 0
 1291.04296875 123.088888889 1278.49778294 3 1175 3 c 0
 1116.93945312 3 1092 48 1091 79 c 1
 1091 48 1068.14453125 3 1007 3 c 0
1273 95 m 1
 1279.61157025 65 1304.44558169 40 1353 40 c 0
 1416.10714286 40 1467 98.9899799599 1467 263 c 0
 1467 469.222856571 1388.64898768 545 1299 545 c 0
 1230.79022661 545 1175.78550763 494.647141463 1127 433 c 2
 907 155 l 1
 882 184 l 1
 1100 458 l 2
 1155.4718927 527.721553208 1221.54184406 582 1299 582 c 0
 1408.39310996 582 1504 496.280465411 1504 263 c 0
 1504 90.4226248909 1455.3557047 3 1353 3 c 0
 1283.80995391 3 1248.4214876 40.7272727273 1239 86 c 1
 1273 95 l 1
918.72265625 474 m 0
 918.72265625 407.775810088 962 368 1039 356 c 1
 1031 325 l 1
 944 338 885.247070312 390.37755102 885.247070312 474 c 0
 885.247070312 553 944.849609375 591 1001.55566406 591 c 0
 1066.11230469 591 1126 548.098632812 1126 454 c 0
 1092 402 l 1
 1092 416 1092 435 1092 454 c 0
 1092 524.74609375 1049.91796875 557 1001.55566406 557 c 0
 961.169921875 557 918.72265625 530.04296875 918.72265625 474 c 0
238 3 m 0
 170.808667453 3 154 48.0372295673 154 105 c 0
 154 120.909090909 160.222222222 169.772727273 138 155 c 1
 162 190 l 1
 192.642857143 198.607594937 188 129.746835443 188 105 c 0
 188 68.7001953125 198.005159198 40 238 40 c 0
 293 40 304 108.077148438 304 170 c 1
 340 170 l 1
 340 108.077148438 351 40 406 40 c 0
 482.448449797 40 485 157.618963068 485 196 c 0
 485 350 427.872070312 387.666992188 374 387.666992188 c 0
 335 387.666992188 316 375 299 360 c 1
 285 382 l 1
 308 402 337 424.666992188 374 424.666992188 c 0
 446.522460938 424.666992188 522.04296875 376 522.04296875 196 c 0
 522.04296875 123.088888889 509.497782939 3 406 3 c 0
 347.939453125 3 323 48 322 79 c 1
 322 48 299.14453125 3 238 3 c 0
504 95 m 1
 510.611570247 65 535.445581692 40 584 40 c 0
 647.107142857 40 698 98.9899799599 698 263 c 0
 698 469.222856571 619.648987676 545 530 545 c 0
 461.790226614 545 406.785507632 494.647141463 358 433 c 2
 138 155 l 1
 113 184 l 1
 331 458 l 2
 386.471892699 527.721553208 452.541844057 582 530 582 c 0
 639.393109962 582 735 496.280465411 735 263 c 0
 735 90.4226248909 686.355704698 3 584 3 c 0
 514.809953911 3 479.421487604 40.7272727273 470 86 c 1
 504 95 l 1
149.72265625 474 m 0
 149.72265625 407.775810088 193 368 270 356 c 1
 262 325 l 1
 175 338 116.247070312 390.37755102 116.247070312 474 c 0
 116.247070312 553 175.849609375 591 232.555664062 591 c 0
 297.112304688 591 357 548.098632812 357 454 c 0
 323 402 l 1
 323 416 323 435 323 454 c 0
 323 524.74609375 280.91796875 557 232.555664062 557 c 0
 192.169921875 557 149.72265625 530.04296875 149.72265625 474 c 0
-448.903320312 435.973632812 m 1
 -456.486328125 484.956054688 -481.279296875 528.100585938 -530.47265625 528.100585938 c 0
 -577.74609375 528.100585938 -602.087890625 494.33984375 -602.087890625 459.63671875 c 0
 -602.087890625 397 -556 366 -516 359 c 1
 -494.081054688 382.533203125 -471.15625 410.056640625 -448.903320312 435.973632812 c 1
-639 176 m 1
 -661.118164062 204.9296875 l 1
 -602.64453125 264.844726562 -581.560546875 287.268554688 -538 333.658203125 c 1
 -582 347 -636.087890625 383.25 -636.087890625 459.63671875 c 0
 -636.087890625 511 -601.084960938 562.100585938 -530.47265625 562.100585938 c 0
 -471.4609375 562.100585938 -433 522 -420 466 c 1
 -373.421875 508.260742188 -318.431640625 564 -241 564 c 0
 -143.196289062 564 -43.3720703125 491.522460938 -43.3720703125 279 c 0
 -43.3720703125 64.125 -115 30 -190 30 c 0
 -240 30 -270 48 -285.28515625 70.796875 c 1
 -301 50 -324 30 -365.95703125 30 c 0
 -424.017578125 30 -449 69 -452 105 c 1
 -456 69 -471.85546875 30 -533 30 c 0
 -603 30 -623 88.4228515625 -623 145 c 0
 -623 169.341796875 -617 202 -608 212 c 1
 -557 265 l 1
 -574.918945312 235.013671875 -589 186 -589 145 c 0
 -589 108.700195312 -577 67 -533 67 c 0
 -478.877929688 67 -465 130.14453125 -465 197 c 1
 -435 197 l 1
 -435 135.077148438 -430.225585938 67 -365.95703125 67 c 0
 -294.388671875 67 -292 174.817382812 -292 210 c 0
 -292 364 -380 400 -446 380 c 1
 -504.698242188 318.954101562 -577.052734375 240.625 -639 176 c 1
-190 67 m 0
 -109.9609375 67 -80.3720703125 139.780273438 -80.3720703125 279 c 0
 -80.3720703125 424 -139 527 -241 527 c 0
 -301.481445312 527 -370.838867188 456.368164062 -419.104492188 411.403320312 c 1
 -369 429.000000001 -255 401 -255 210 c 0
 -255 176.396484375 -259.741210938 133.131835938 -267 104 c 1
 -259.532226562 82.1279296875 -232.127929688 67 -190 67 c 0
EndSplineSet
EndChar

StartChar: si_Kha
Encoding: 22 3483 26
Width: 563
VWidth: 0
Flags: HW
LayerCount: 4
Fore
SplineSet
226 -55 m 1
 220 5 220.114257812 93.6806640625 220.114257812 138 c 0
 220.114257812 242 289 259 289 345 c 0
 289 414.345703125 267.174871243 450 200.060546875 450 c 0
 132.496671895 450 74 392.183351445 74 220 c 0
 74 105.193764401 99.7786885246 39 159 39 c 0
 197.884615385 39 224.538461538 79 231 115 c 1
 261 108 l 1
 251.555555556 52 220.1240086 3 159 3 c 0
 74 3 37 82.359375 37 220 c 0
 37 419.133789062 112.666015625 486 200.060546875 486 c 0
 291.595015088 486 325 437.897460938 325 345 c 0
 325 248 256 229 256 138 c 0
 256 98.2255859375 259 7 263 -52 c 1
 226 -55 l 1
307 274 m 1
 304 190 319 39 403 39 c 0
 483 39 489.619140625 145.855172414 489.619140625 293 c 0
 489.619140625 576.88671875 415.16796875 712 262.0625 712 c 0
 191.190429688 712 122.713867188 665.926757812 99.3896484375 605 c 1
 65.3896484375 618 l 1
 93.5888671875 692.592773438 176.376953125 749 262.0625 749 c 0
 440.0625 749 526.619140625 601.955078125 526.619140625 293 c 0
 526.619140625 125 515.952148438 3 395 3 c 0
 276 3 268 182 273 273 c 1
 307 274 l 1
EndSplineSet
Layer: 2
SplineSet
294.875 74 m 1
 306.875 42 334.875 0 397 0 c 0
 538 0 554.630859375 181.99609375 554.630859375 293 c 0
 554.630859375 599.055664062 452.32421875 755 251.541015625 755 c 0
 164.8203125 755 80.2490234375 707.868164062 44.2646484375 613.029296875 c 1
 153.296875 576.85546875 l 1
 170.352539062 618.959960938 210.4375 639.884765625 251.541015625 639.884765625 c 0
 376.462890625 639.884765625 440.115234375 522.796875 440.115234375 293 c 0
 440.115234375 171.640625 409.23046875 131.5390625 381.956054688 131.5390625 c 0
 354.875 131.5390625 332.875 158 332.875 226 c 1
 272.875 152 l 1
 294.875 74 l 1
310.875 154 m 24
 326.391601562 213 372 251 372 324 c 0
 372 430 310.56640625 488.874023438 203.060546875 488.874023438 c 0
 98.875 488.874023438 22.875 425.889648438 22.875 220 c 0
 22.875 79 66.875 0 171.875 0 c 0
 224.353515625 0 251.875 28 280.875 73 c 1
 224.875 156 l 1
 208.875 120 191.875 110 171.875 110 c 0
 150.875 110 132.875 128 132.875 220 c 0
 132.875 339.788085938 162.047851562 376.432617188 201.875 376.432617188 c 0
 244.56640625 376.432617188 260 354 260 324 c 0
 260 264 207.875 236 194.875 172 c 0
 176.561523438 81.8408203125 191.875 -26 196.875 -80 c 1
 307.875 -73 l 1
 301.526367188 -15.8662109375 294.510742188 94.5322265625 310.875 154 c 24
EndSplineSet
EndChar

StartChar: si_Ga
Encoding: 23 3484 27
Width: 730
VWidth: 0
Flags: HW
LayerCount: 4
Fore
SplineSet
283 276 m 5
 327.565088422 295.97745343 333.831123713 338.024895357 333.831123713 369.94988407 c 4
 333.831123713 382.439691115 332.872070312 393.380197409 332.872070312 400.84375 c 4
 332.872070312 512.850585938 402 581 482 581 c 4
 574.438476562 581 657.372070312 528 657.372070312 292 c 4
 657.372070312 57 575.041015625 3 489 3 c 4
 433.23539371 3 396.760787681 31.6815162893 377.999997548 70.797297924 c 4
 401.372070312 123 l 5
 404.372070312 83 436.372070312 40 489 40 c 4
 555.877929688 40 619.872070312 87.0869140625 619.872070312 292 c 4
 619.872070312 497.78515625 555.701171875 544 482 544 c 4
 406.452148438 544 369.872070312 474.38671875 369.872070312 400.84375 c 4
 369.872070312 392.559115179 370.456861464 382.064356372 370.456861464 370.388035147 c 4
 370.456861464 328.727571962 363.012337834 272.025551963 295 247 c 5
 283 276 l 5
87 276 m 4
 87 524.010380623 169.331054688 581 255.372070312 581 c 4
 329 581 369 531 379 473 c 5
 343 461 l 5
 340 501 308 544 255.372070312 544 c 4
 188.494197838 544 124.5 493.923875433 124.5 276 c 4
 124.5 83.2802768166 198.29905247 40 272 40 c 4
 358.769840714 40 391.127929688 111.732273268 391.127929688 174 c 4
 391.127929688 224.729411765 367.175521952 268.541176471 330 272 c 5
 347 301 l 5
 383 298.771929825 428.127929688 249.754385965 428.127929688 174 c 4
 428.127929688 94.5389690243 385.719726562 3 272 3 c 4
 179.561523438 3 87 53.0657439446 87 276 c 4
EndSplineSet
Layer: 2
SplineSet
272 107 m 5
 333 107 351.627929688 146.15625 351.627929688 184.15625 c 4
 351.627929688 219.15625 335.890625 231.250976562 323.627929688 236.15625 c 5
 386.627929688 306.15625 l 5
 422.627929688 294.44921875 453.627929688 243.15625 453.627929688 189.15625 c 4
 453.627929688 94.73046875 402.560546875 0 272 0 c 4
 165.000976562 0 67 57.625 67 292 c 4
 67 514.57421875 151.772460938 584 255.372070312 584 c 4
 331.286132812 584 372.71484375 533.978515625 382 498 c 5
 317 426 l 5
 311.823242188 442.5859375 297 478 255.372070312 478 c 4
 212.26953125 478 176 433.659179688 176 292 c 4
 176 144.453125 222.415039062 107 272 107 c 5
 272 107 l 5
476 584.15625 m 4
 582.999023438 584.15625 681 526.53125 681 292.15625 c 4
 681 69.58203125 596.227539062 0.15625 492.627929688 0.15625 c 4
 416.713867188 0.15625 375.28515625 50.177734375 366 86.15625 c 5
 431 158.15625 l 5
 436.176757812 141.5703125 451 106.15625 492.627929688 106.15625 c 4
 535.73046875 106.15625 572 150.497070312 572 292.15625 c 4
 572 439.703125 525.584960938 477.15625 476 477.15625 c 4
 424.189453125 477.15625 413 438 413 362 c 4
 413 286.15625 368 254 308 220 c 5
 261.627929688 300.15625 l 5
 313.627929688 333.15625 311 369 311 401 c 4
 311 527 396.092773438 584.15625 476 584.15625 c 4
EndSplineSet
Layer: 3
SplineSet
369.872070312 400.84375 m 4
 369.872070312 363 382.074389551 279.039549437 295 247 c 5
 283 276 l 5
 345 303.793103448 332.872070312 374.302734375 332.872070312 400.84375 c 4
 332.872070312 512.850585938 402 581 482 581 c 4
 574.438476562 581 657.372070312 528 657.372070312 292 c 4
 657.372070312 57 575.041015625 3 489 3 c 4
 433.23539371 3 396.760787681 31.6815162893 377.999997548 70.797297924 c 4
 401.372070312 123 l 5
 404.372070312 83 436.372070312 40 489 40 c 4
 555.877929688 40 619.872070312 87.0869140625 619.872070312 292 c 4
 619.872070312 497.78515625 555.701171875 544 482 544 c 4
 406.452148438 544 369.872070312 474.38671875 369.872070312 400.84375 c 4
272 40 m 4
 358.769840714 40 391.127929688 111.732273268 391.127929688 174 c 4
 391.127929688 224.729411765 367.175521952 268.541176471 330 272 c 5
 347 301 l 5
 383 298.771929825 428.127929688 249.754385965 428.127929688 174 c 4
 428.127929688 94.5389690243 385.719726562 3 272 3 c 4
 179.561523438 3 87 56 87 292 c 4
 87 527 169.331054688 581 255.372070312 581 c 4
 329 581 369 531 379 473 c 5
 343 461 l 5
 340 501 308 544 255.372070312 544 c 4
 188.494197838 544 124.5 496.91349481 124.5 292 c 4
 124.5 86.214532872 198.29905247 40 272 40 c 4
EndSplineSet
EndChar

StartChar: si_Gha
Encoding: 24 3485 28
Width: 641
VWidth: 0
Flags: HW
LayerCount: 4
Fore
SplineSet
276.833007812 454 m 0
 276.833007812 466.18594426 277.8383242 477.513162194 279.727137724 488.00000488 c 0
 292.423417099 558.490756239 345.081882177 591 401.278320312 591 c 0
 457.984375 591 517.586914062 553 517.586914062 474 c 0
 517.586914062 429.732230808 497.269780815 385.565217391 465.72265625 361 c 1
 439.72265625 382 l 1
 466.72265625 402 484.111328125 437.958762887 484.111328125 474 c 0
 484.111328125 530.04296875 441.663085938 557 401.278320312 557 c 0
 352.916015625 557 310.833984375 524.74609375 310.833984375 454 c 0
 310.833984375 435 310.833984375 416 310.833984375 402 c 1
 293.833984375 369 l 1
 284.117333212 397.662790698 276.833007812 421.38372093 276.833007812 454 c 0
77.85546875 194.102539062 m 0
 77.85546875 107.481445312 109.809570312 40 175.833984375 40 c 0
 203.711609683 40 224 62.185546875 224 90 c 0
 224 129 203 140 203 176 c 0
 203 230.029909049 241.509896626 244 293.833984375 244 c 0
 346.158203125 244 384.66796875 230.030273438 384.66796875 176 c 0
 384.66796875 140 363.66796875 129 363.66796875 90 c 0
 363.66796875 62.185546875 383.956054688 40 411.833984375 40 c 0
 477.858398438 40 509.8125 107.481445312 509.8125 194.102539062 c 0
 509.8125 252 498.682617188 369 414.833984375 369 c 2
 188.68359375 369 l 2
 90.908203125 369 77.85546875 251.71484375 77.85546875 194.102539062 c 0
40.85546875 194.102539062 m 0
 40.85546875 263 60.833984375 342 94.833984375 369 c 1
 31.111328125 369 l 1
 31.111328125 405 l 1
 416.68359375 405 l 2
 447 405 470.427734375 394.708007812 488.702148438 378 c 0
 534.112304688 336.482421875 546.8125 255.3515625 546.8125 194.102539062 c 0
 546.8125 86.68359375 502.791015625 3 411.833984375 3 c 0
 362.541015625 3 326.66796875 41.6025390625 326.66796875 90 c 0
 326.66796875 131 347.66796875 147 347.66796875 172 c 0
 347.66796875 200.920898438 322.7578125 207 293.833984375 207 c 0
 264.91015625 207 240 200.920898438 240 172 c 0
 240 147 261 131 261 90 c 0
 261 41.6028515625 225.127083764 3 175.833984375 3 c 0
 84.876953125 3 40.85546875 86.68359375 40.85546875 194.102539062 c 0
70.0810546875 474 m 0
 70.0810546875 553 129.68359375 591 186.389648438 591 c 0
 242.5859375 591 295.245117188 558.491210938 307.94140625 488 c 0
 309.830078125 477.512695312 310.834960938 466.185546875 310.834960938 454 c 0
 310.834960938 421.383789062 303.55078125 397.663085938 293.833984375 369 c 1
 276.833984375 402 l 1
 276.833984375 416 276.833984375 435 276.833984375 454 c 0
 276.833984375 524.74609375 234.751953125 557 186.389648438 557 c 0
 146.00390625 557 103.556640625 530.04296875 103.556640625 474 c 0
 103.556640625 432 122.556640625 406 132.556640625 396 c 1
 110.556640625 376 l 1
 98.556640625 387 70.0810546875 419 70.0810546875 474 c 0
EndSplineSet
Layer: 2
SplineSet
390.333984375 495.969726562 m 1
 367.595703125 495.969726562 338.76953125 481 338.76953125 434.311523438 c 0
 338.76953125 428.6484375 339.272460938 422.2421875 340.333984375 416 c 2
 293.833984375 318.40625 l 1
 279.495117188 365.0078125 242.586914062 444.209960938 252.969726562 482.969726562 c 0
 272.598632812 556.24609375 331.688476562 593.969726562 394.506835938 593.969726562 c 0
 481.06640625 593.969726562 533.166015625 532.106445312 533.166015625 456.376953125 c 0
 533.166015625 428.57421875 522.380859375 395.61328125 503.071289062 370.40625 c 1
 425.071289062 410.40625 l 1
 433.0546875 419.530273438 439.690429688 439.078125 439.690429688 451.1328125 c 0
 439.690429688 474.96875 425.477539062 495.96875 390.333984375 495.96875 c 1
 390.333984375 495.969726562 l 1
193.161132812 593.969726562 m 1
 255.979492188 593.969726562 315.0703125 556.247070312 334.698242188 482.969726562 c 0
 345.081054688 444.208984375 308.172851562 365.0078125 293.833984375 318.407226562 c 1
 247.333984375 416.000976562 l 2
 248.395507812 422.243164062 248.8984375 428.649414062 248.8984375 434.3125 c 0
 248.8984375 481.000976562 220.072265625 495.970703125 197.333984375 495.970703125 c 0
 147.666015625 495.970703125 139.185546875 443.811523438 163.545898438 413.407226562 c 1
 87.8349609375 375.407226562 l 1
 66.80859375 403.20703125 57.5458984375 433.065429688 57.5458984375 461.506835938 c 0
 57.5458984375 532.102539062 105.545898438 593.970703125 193.16015625 593.970703125 c 1
 193.161132812 593.969726562 l 1
558.553710938 207 m 1
 558.553710938 95.095703125 520.447265625 0 408.833984375 0 c 0
 342.359375 0 309.833984375 54 309.833984375 94 c 0
 309.833984375 125 315.833984375 141.673828125 315.833984375 158 c 0
 315.833984375 171.092773438 310.833984375 180 293.833984375 180 c 0
 276.833984375 180 271.833984375 171.092773438 271.833984375 158 c 0
 271.833984375 141.673828125 277.833984375 125 277.833984375 94 c 0
 277.833984375 54 245.30859375 0 178.833984375 0 c 0
 67.220703125 0 29.1142578125 95.095703125 29.1142578125 207 c 0
 29.1142578125 248.30078125 40.5966796875 294 54.5966796875 319.563476562 c 1
 13.7802734375 319.666992188 l 1
 13.7802734375 416 l 1
 249.3515625 416 l 1
 344.3515625 416 l 1
 408.595703125 416 l 2
 449.595703125 416 485.506835938 393.522460938 509.595703125 368.23828125 c 0
 543.422851562 332.731445312 558.552734375 278.352539062 558.552734375 207 c 1
 558.553710938 207 l 1
293.833984375 258 m 0
 364.833984375 258 396.833984375 236.994140625 396.833984375 189 c 0
 396.833984375 152.00390625 380.833984375 115 408.833984375 115 c 0
 444.127929688 115 451.553710938 157.264648438 451.553710938 207 c 0
 451.553710938 258.725585938 431.596679688 318 391.315429688 318 c 2
 196.352539062 318 l 2
 155.596679688 318 136.114257812 258.08984375 136.114257812 207 c 0
 136.114257812 157.264648438 143.540039062 115 178.833984375 115 c 0
 206.833984375 115 190.833984375 152.00390625 190.833984375 189 c 0
 190.833984375 236.994140625 222.833984375 258 293.833984375 258 c 0
EndSplineSet
EndChar

StartChar: si_Nga
Encoding: 25 3486 29
Width: 600
VWidth: 0
Flags: HW
LayerCount: 4
Fore
SplineSet
5.849609375 405.150390625 m 0
 5.849609375 433.760517606 18.710055152 459.217008249 39 476.083007812 c 0
 59.0000392548 492.708023596 123.00130357 501.669402947 153.30078125 479 c 0
 175.711886713 462.232503689 190.1484375 435.461803966 190.1484375 405.150390625 c 0
 190.1484375 354.041304274 149.106634953 313 98 313 c 0
 46.8911072642 313 5.849609375 354.041474549 5.849609375 405.150390625 c 0
42.416015625 405.129882812 m 0
 42.416015625 374.172145823 67.1346748473 348.567382812 98.416015625 348.567382812 c 0
 129.676137722 348.567382812 154.416015625 374.165664979 154.416015625 405.129882812 c 0
 154.416015625 436.086682815 129.69781055 461.692382812 98.416015625 461.692382812 c 0
 67.1554151863 461.692382812 42.416015625 436.093112222 42.416015625 405.129882812 c 0
511.390625 293 m 0
 511.390625 576.88671875 436.939453125 712 283.833984375 712 c 0
 212.961914063 712 144.485351563 665.926757812 121.161132812 605 c 1
 87.1611328125 618 l 1
 115.360351563 692.592773438 198.1484375 749 283.833984375 749 c 0
 461.833984375 749 548.390625 601.955078125 548.390625 293 c 0
 548.390625 145.134765625 539.03125 3 411.833984375 3 c 0
 316.66796875 3 297.66796875 85 293.833984375 115 c 1
 290 85 271 3 175.833984375 3 c 0
 87.234375 3 52.390625 81.4208984377 52.390625 179.102539062 c 0
 52.390625 362.020822546 172.579415303 378 200 378 c 0
 268 378 264 362 314 362 c 0
 339.671423843 362 363 381.764705882 363 418 c 0
 363 485.913043478 267.375757576 506 202 506 c 0
 164.058333333 506 45 501.454545455 45 436 c 1
 6 415 l 1
 20 513.637681588 110.812834225 539.02734375 202 539.02734375 c 0
 315.15352336 539.02734375 400 503.184615865 400 418 c 0
 400 347.448275862 351.234333685 325 314 325 c 0
 256 325 254 341 200 341 c 0
 145.037078118 341 89.390625 298.715639742 89.390625 180.102539062 c 0
 89.390625 102.389650138 113.790039063 40 175.833984375 40 c 0
 267 40 273.591796875 148.885742188 276.833984375 224.5 c 1
 310.833984375 224.5 l 1
 314.076171875 148.885742188 320.66796875 40 411.833984375 40 c 0
 504.567382813 40 511.390625 164 511.390625 293 c 0
EndSplineSet
Layer: 2
SplineSet
-3.0546875 411.650390625 m 0
 -3.0546875 476.809570312 49.435546875 529.298828125 114.595703125 529.298828125 c 0
 179.754882812 529.298828125 232.244140625 476.80859375 232.244140625 411.650390625 c 0
 232.244140625 346.490234375 179.75390625 294 114.595703125 294 c 0
 49.435546875 294 -3.0546875 346.490234375 -3.0546875 411.650390625 c 0
75.9306640625 411.301757812 m 0
 75.9306640625 389.05078125 93.5634765625 371.126953125 115.452148438 371.126953125 c 0
 137.340820312 371.126953125 154.973632812 389.05078125 154.973632812 411.301757812 c 0
 154.973632812 433.551757812 137.340820312 451.4765625 115.452148438 451.4765625 c 0
 93.5634765625 451.4765625 75.9306640625 433.551757812 75.9306640625 411.301757812 c 0
75.9306640625 411.301757812 m 1
 -3.404296875 420 l 1
 7.595703125 527 105.595703125 551.563476562 188.595703125 551.563476562 c 0
 277.098632812 551.563476562 410.875 540 410.875 416.01171875 c 0
 410.875 344.387695312 348.861090506 282.552955439 261.595703125 310 c 0
 196.212890625 330.564453125 148.11328125 292.291015625 148.11328125 193.4375 c 0
 148.11328125 156.329101562 153.787109375 114.653320312 191.044921875 114.653320312 c 0
 233.220703125 114.653320312 248.2265625 179.678710938 248.2265625 249.500976562 c 1
 344.137695312 249.500976562 l 1
 344.137695312 176.750976562 359.60546875 115.000976562 402.595703125 115.000976562 c 0
 459.3515625 115.000976562 459.3515625 239.958984375 459.3515625 293.000976562 c 0
 459.3515625 522.797851562 416.3515625 639.885742188 278.3515625 639.885742188 c 0
 237.248046875 639.885742188 189.588867188 618.9609375 172.534179688 576.856445312 c 1
 63.501953125 613.030273438 l 1
 99.486328125 707.869140625 191.631835938 755.001953125 278.352539062 755.001953125 c 0
 495.352539062 755.001953125 574.352539062 599.057617188 574.352539062 293.001953125 c 0
 574.352539062 181.997070312 573.352539062 0.001953125 402.596679688 0.001953125 c 0
 346.676757812 0.001953125 308.654296875 33.146484375 293.833984375 79.0322265625 c 1
 277.688476562 31.6044921875 238.276367188 0.001953125 185.596679688 0.001953125 c 0
 69.796875 0.001953125 41.115234375 105.455078125 41.115234375 193.438476562 c 0
 41.115234375 384.001953125 193.59683669 408.002655492 278.596679688 389.001953125 c 0
 301.108398438 383.969726562 315.525390625 403.6484375 315.525390625 421.37109375 c 0
 315.525390625 466.967773438 252.834960938 472.549804688 200.596679688 464.001953125 c 1
 141.596679688 464.001953125 75.931640625 460.001953125 75.931640625 411.303710938 c 1
 75.9306640625 411.301757812 l 1
EndSplineSet
Layer: 3
SplineSet
27.849609375 417.150390625 m 4
 27.849609375 468.257941383 68.8907023007 509.298828125 120 509.298828125 c 4
 171.107744372 509.298828125 212.1484375 468.257407202 212.1484375 417.150390625 c 4
 212.1484375 366.041304274 171.106634953 325 120 325 c 4
 68.8911072642 325 27.849609375 366.041474549 27.849609375 417.150390625 c 4
64.416015625 417.129882812 m 4
 64.416015625 386.172145823 89.1346748473 360.567382812 120.416015625 360.567382812 c 4
 151.676137722 360.567382812 176.416015625 386.165664979 176.416015625 417.129882812 c 4
 176.416015625 448.086682814 151.69781055 473.692382812 120.416015625 473.692382812 c 4
 89.1554151863 473.692382812 64.416015625 448.093112221 64.416015625 417.129882812 c 4
511.390625 293 m 4
 511.390625 576.88671875 436.939453125 712 283.833984375 712 c 4
 212.961914063 712 144.485351563 665.926757812 121.161132812 605 c 5
 87.1611328125 618 l 5
 115.360351563 692.592773438 198.1484375 749 283.833984375 749 c 4
 461.833984375 749 548.390625 601.955078125 548.390625 293 c 4
 548.390625 145.134765625 539.03125 3 411.833984375 3 c 4
 316.66796875 3 297.66796875 85 293.833984375 115 c 5
 290 85 271 3 175.833984375 3 c 4
 87.234375 3 52.390625 81.4208984377 52.390625 179.102539062 c 4
 52.390625 362.020822546 172.579415303 378 200 378 c 4
 260 378 273.678294048 357 307 357 c 4
 338.434396543 357 367 379.941176471 367 422 c 4
 367 505.265199795 277.909090909 514 217 514 c 4
 180.025 514 64 509 64 437 c 5
 30 437 l 5
 49.3448275862 524 130 547.02734375 217 547.02734375 c 4
 323.867216507 547.02734375 404 518.174879808 404 422 c 4
 404 344.620689655 348.996864738 320 307 320 c 4
 274.198961709 320 245.615353176 341 200 341 c 4
 145.037078118 341 89.390625 298.715639742 89.390625 180.102539062 c 4
 89.390625 102.389650138 113.790039063 40 175.833984375 40 c 4
 267 40 273.591796875 148.885742188 276.833984375 224.5 c 5
 310.833984375 224.5 l 5
 314.076171875 148.885742188 320.66796875 40 411.833984375 40 c 4
 504.567382813 40 511.390625 164 511.390625 293 c 4
EndSplineSet
EndChar

StartChar: si_Nnga
Encoding: 26 3487 30
Width: 730
VWidth: 0
Flags: HW
LayerCount: 4
Fore
SplineSet
96 281 m 1
 96 111.294921875 137 46.013671875 171 40 c 1
 171 3 l 1
 109.680664062 11.3779296875 59 85.240234375 59 281 c 0
 59 513.989257812 125.176757812 576 187.493164062 576 c 0
 247.020507812 576 275.475585938 531 275.475585938 471.000976562 c 1
 242 471.000976562 l 1
 240.709960938 518.658203125 217.396484375 539 187.493164062 539 c 0
 131.4921875 539 96 444.0859375 96 281 c 1
 96 281 l 1
492.872070312 400.84375 m 0
 492.872070312 363 505.07421875 279.040039062 418 247 c 1
 406 276 l 1
 468 303.79296875 455.872070312 374.302734375 455.872070312 400.84375 c 0
 455.872070312 512.850585938 525 581 605 581 c 0
 697.438476562 581 780.372070312 528 780.372070312 292 c 0
 780.372070312 57 698.041015625 3 612 3 c 0
 556.235351562 3 519.760742188 31.681640625 501 70.796875 c 1
 524.372070312 123 l 1
 527.372070312 83 559.372070312 40 612 40 c 0
 678.877929688 40 742.872070312 87.0869140625 742.872070312 292 c 0
 742.872070312 497.78515625 678.701171875 544 605 544 c 0
 529.452148438 544 492.872070312 474.38671875 492.872070312 400.84375 c 0
395 40 m 0
 481.76953125 40 514.127929688 111.732421875 514.127929688 174 c 0
 514.127929688 224.729492188 490.17578125 268.541015625 453 272 c 1
 470 301 l 1
 506 298.771484375 551.127929688 249.754882812 551.127929688 174 c 0
 551.127929688 94.5390625 508.719726562 3 395 3 c 0
 302.561523438 3 210 53.0654296875 210 276 c 0
 210 524.009765625 292.331054688 581 378.372070312 581 c 0
 452 581 492 531 502 473 c 1
 466 461 l 1
 463 501 431 544 378.372070312 544 c 0
 311.494140625 544 247.5 493.923828125 247.5 276 c 0
 247.5 83.2802734375 321.298828125 40 395 40 c 0
EndSplineSet
Layer: 2
SplineSet
122 284 m 5
 122 131.65625 145.779296875 102 179 102 c 5
 179 0 l 5
 84 0 16 46.27734375 16 284 c 4
 16 506.57421875 101.180664062 584 205.279296875 584 c 4
 274.598632812 584 312.428710938 527.581054688 320.907226562 487 c 5
 266.907226562 426 l 5
 261.73046875 442.5859375 246.907226562 480 205.279296875 480 c 4
 161.702148438 480 122 425.659179688 122 284 c 5
 122 284 l 5
393 106 m 4
 343.415039062 106 294 136.453125 294 284 c 4
 294 425.659179688 333.26953125 480 376.372070312 480 c 4
 418 480 432.823242188 442.5859375 438 426 c 5
 503 498 l 5
 493.71484375 533.978515625 452.286132812 584 376.372070312 584 c 4
 272.772460938 584 188 506.57421875 188 284 c 4
 188 49.625 286.000976562 0 393 0 c 4
 523.560546875 0 576.9921875 104.57421875 576.9921875 199 c 4
 576.9921875 255.70703125 553 330 483 350 c 5
 416 280 l 5
 428.262695312 275.094726562 474 249 474 199 c 4
 474 155.278320312 454 106 393 106 c 4
596.907226562 0.15625 m 4
 703.90625 0.15625 801.907226562 51.625 801.907226562 286 c 4
 801.907226562 520.375 703.90625 584 596.907226562 584 c 4
 517 584 432 527 432 401 c 4
 432 369 428 344 376 311 c 5
 429 220 l 5
 489 254 534 306.241210938 534 362 c 4
 534 438 549.495117188 478 596.907226562 478 c 5
 646.4921875 478 695.907226562 433.546875 695.907226562 286 c 4
 695.907226562 136.084960938 646.487304688 104 596.907226562 104 c 5
 555.279296875 104 540.456054688 141.5703125 535.279296875 158.15625 c 5
 470.279296875 86.15625 l 5
 479.564453125 50.1787109375 520.993164062 0.15625 596.907226562 0.15625 c 4
EndSplineSet
EndChar

StartChar: si_Ca
Encoding: 27 3488 31
Width: 574
VWidth: 0
Flags: HW
LayerCount: 4
Fore
SplineSet
88.833984375 207 m 0
 88.833984375 309.341796875 138.833984375 349 147.833984375 354 c 1
 74.5908203125 354 l 1
 74.5908203125 389 l 1
 347.110351562 389 l 1
 354.833984375 354 l 1
 224.833984375 354 l 2
 173.833984375 354 124.833984375 296.708984375 124.833984375 208 c 0
 124.833984375 142.71484375 156.984375 40 293.833984375 40 c 0
 421.69921875 40 494.833984375 150.518554688 494.833984375 354 c 0
 494.833984375 634.014648438 404.056640625 712 292.833984375 712 c 0
 221.961914062 712 164.158203125 665.926757812 140.833984375 605 c 1
 106.833984375 618 l 1
 144.833984375 716 232.801757812 749 292.833984375 749 c 0
 424.979492188 749 532.833984375 662.955078125 532.833984375 354 c 0
 532.833984375 126.541015625 445.873046875 3 293.833984375 3 c 0
 127.833984375 3 88.833984375 127.725585938 88.833984375 207 c 0
122.833984375 420 m 0
 122.833984375 488 174.177734375 524 232.833984375 524 c 0
 297.390625 524 357.278320312 481.098632812 357.278320312 387 c 0
 357.278320312 375.040039062 356.392578125 364.26171875 354.833984375 354 c 1
 323.454101562 379 l 1
 323.361328125 381.637695312 323.278320312 384.229492188 323.278320312 387 c 0
 323.278320312 457.74609375 281.196289062 490 232.833984375 490 c 0
 190.876953125 490 156.309570312 467 156.309570312 420 c 0
 156.309570312 406.329101562 159.298828125 394.165039062 164.21484375 384 c 0
 135.344726562 370 l 0
 127.991210938 384.3203125 122.833984375 401.845703125 122.833984375 420 c 0
EndSplineSet
Layer: 2
SplineSet
192.850585938 404.787109375 m 6
 192.850585938 391.465820312 197.3671875 377.438476562 206.275390625 366.3203125 c 5
 130.564453125 328.3203125 l 5
 109.538085938 356.120117188 100.275390625 385.978515625 100.275390625 414.419921875 c 4
 100.275390625 486.68359375 152.340820312 531.563476562 226.641601562 531.563476562 c 4
 303.627929688 531.563476562 375.02734375 474.899414062 375.02734375 365.563476562 c 4
 375.02734375 351 371.833984375 325 367.778320312 306 c 5
 367.778320312 306 276.333007812 366.313476562 277.3984375 371.875 c 4
 283.938476562 406 267.938476562 444 226.642578125 444 c 4
 201.842773438 444 192.850585938 426.133789062 192.850585938 404.787109375 c 6
 192.850585938 404.787109375 l 6
293.833984375 0 m 5
 115.833984375 0 66.380859375 133.560546875 76.42578125 223 c 4
 80.0419921875 255.19921875 90.833984375 286 105.833984375 306 c 5
 69.0732421875 306 l 5
 69.0732421875 393 l 5
 333.938476562 390 l 5
 367.778320312 306 l 5
 260.834960938 306 l 6
 204.049804688 306 183.81640625 261.911132812 183.81640625 214.068359375 c 4
 183.81640625 166.573242188 213.150390625 115 293.834960938 115 c 4
 398.287109375 115 439.834960938 195.017578125 439.834960938 354 c 4
 439.834960938 583 368.514648438 640 285.689453125 640 c 4
 244.5859375 640 204.5 618.959960938 187.4453125 576.85546875 c 5
 78.4130859375 613.029296875 l 5
 114.397460938 707.868164062 198.96875 755 285.688476562 755 c 4
 425.161132812 755 555.834960938 675.859375 555.834960938 354 c 4
 554.834960938 118 473.834960938 0 293.834960938 0 c 5
 293.833984375 0 l 5
EndSplineSet
EndChar

StartChar: si_Cha
Encoding: 28 3489 32
Width: 594
VWidth: 0
Flags: HW
LayerCount: 4
Fore
SplineSet
417.864105877 575 m 4
 489.497015976 647.765372737 538 705.780782866 538 776 c 5
 574 776 l 5
 574 698.186761584 523.716650805 632.517633743 446.609484706 553 c 4
 417.864105877 575 l 4
276.833984375 454 m 4
 276.833984375 466.185546875 277.837890625 477.513671875 279.7265625 488 c 4
 292.419921875 558.491210938 345.08203125 591 401.278320312 591 c 4
 496 591 531 505 531 426 c 4
 531 296.291992188 470.155273438 196 373 196 c 4
 253 196 243 358 332 395 c 5
 352 366 l 5
 293.833557129 344 293.833557129 230 373 230 c 4
 443 230 497.524414062 322 497.524414062 426 c 4
 497.524414062 482.04296875 468 557 401.278320312 557 c 4
 352.916015625 557 310.833984375 524.74609375 310.833984375 454 c 4
 310.833984375 435 310.833984375 416 310.833984375 402 c 5
 293.833984375 369 l 5
 284.118164062 397.663085938 276.833984375 421.383789062 276.833984375 454 c 4
75 224.436523438 m 4
 75 107.2421875 161.024414062 30 293.833984375 30 c 4
 426.643554688 30 512.66796875 106.805664062 512.66796875 224 c 4
 512.66796875 299.407226562 474.19140625 365 390 365 c 6
 197.66796875 365 l 6
 113.4765625 365 75 299.84375 75 224.436523438 c 4
38 224.436523438 m 4
 38 319.693359375 90.9033203125 402 197.66796875 402 c 6
 390 402 l 6
 496.764648438 402 549.66796875 319.256835938 549.66796875 224 c 4
 549.66796875 84.5048828125 449.33984375 -7 293.833984375 -7 c 4
 138.328125 -7 38 84.94140625 38 224.436523438 c 4
70.080078125 474 m 4
 70.080078125 553 129.682617187 591 186.388671875 591 c 4
 242.585375952 591 295.246591096 558.491205093 307.940429688 488 c 4
 309.828847641 477.513270059 310.833007812 466.18594251 310.833007812 454 c 4
 310.833007812 421.38372093 303.549100835 397.662790698 293.833007812 369 c 5
 276.833007812 402 l 5
 276.833007812 416 276.833984375 435 276.833984375 454 c 4
 276.833984375 524.74609375 234.750976562 557 186.388671875 557 c 4
 146.003906249 557 103.555664062 530.04296875 103.555664062 474 c 4
 103.555664062 437.958762887 120.944335938 402 147.944335938 382 c 5
 121.944335938 361 l 5
 90.3972113722 385.565217391 70.080078125 429.732230808 70.080078125 474 c 4
EndSplineSet
Layer: 2
SplineSet
233.435546875 391.436523438 m 5
 243.19140625 416.436523438 l 5
 244.252929688 422.678710938 244.755859375 428.6484375 244.755859375 434.311523438 c 4
 244.755859375 471.944335938 222.526367188 496 194 496 c 4
 164.64453125 496 148.81640625 475 148.81640625 451.1640625 c 4
 148.81640625 439.108398438 155.452148438 419.560546875 163.435546875 410.436523438 c 5
 85.435546875 370.436523438 l 5
 66.1259765625 395.643554688 55.3408203125 428.604492188 55.3408203125 456.407226562 c 4
 55.3408203125 532.13671875 107.440429688 594 194 594 c 4
 245.045898438 594 293.631835938 569.090820312 320.580078125 520.436523438 c 5
 334.27734375 495.708007812 323.478515625 463.28125 323.478515625 426.436523438 c 4
 323.478515625 395.171875 335.435546875 358.436523438 323.435546875 319.436523438 c 5
 233.435546875 391.436523438 l 5
332.478515625 530.436523438 m 1
 332.478515625 530.436523438 319.719726562 532.9921875 363.478515625 576.436523438 c 0
 494.192382812 706.2109375 499.478515625 744.436523438 499.478515625 803.436523438 c 0
 615.478515625 803.436523438 l 0
 615.478515625 738.436523438 619.477539062 687.4375 514.478515625 574.436523438 c 0
 504.2578125 563.436523438 451.478515625 488.436523438 451.478515625 488.436523438 c 1
 374.478515625 520.436523438 l 1
 332.478515625 530.436523438 l 1
373.478515625 416.436523438 m 16
 495.861328125 416.436523438 556.91796875 330.088867188 556.91796875 224.436523438 c 0
 556.91796875 -90.5634765625 27.478515625 -90.5595703125 27.478515625 224.436523438 c 0
 27.478515625 330.088867188 88.53515625 416.436523438 210.91796875 416.436523438 c 0
 230.400390625 416.436523438 241.6796875 416.436523438 241.6796875 416.436523438 c 2
 274.91796875 416.436523438 308.91796875 416.436523438 342.716796875 416.436523438 c 2
 342.716796875 416.436523438 348.435546875 416.436523438 373.478515625 416.436523438 c 16
367.478515625 318.436523438 m 0
 347.478515625 318.436523438 l 1
 216.91796875 318.436523438 l 0
 161.91796875 318.436523438 134.478515625 276.162109375 134.478515625 224.436523438 c 0
 134.478515625 64.359375 449.91796875 64.9599609375 449.91796875 224.436523438 c 0
 449.91796875 253.267578125 441.393554688 279.162109375 424.323242188 296.436523438 c 1
 410.767578125 310.154296875 391.822265625 318.436523438 367.478515625 318.436523438 c 0
233.435546875 391.436523438 m 1
 243.19140625 416.436523438 l 1
 244.252929688 422.678710938 244.755859375 428.6484375 244.755859375 434.311523438 c 0
 244.755859375 471.944335938 222.526367188 496 194 496 c 0
 164.64453125 496 148.81640625 475 148.81640625 451.1640625 c 0
 148.81640625 439.108398438 155.452148438 419.560546875 163.435546875 410.436523438 c 1
 85.435546875 370.436523438 l 1
 66.1259765625 395.643554688 55.3408203125 428.604492188 55.3408203125 456.407226562 c 0
 55.3408203125 532.13671875 107.440429688 594 194 594 c 0
 245.045898438 594 293.631835938 569.090820312 320.580078125 520.436523438 c 1
 334.27734375 495.708007812 323.478515625 463.28125 323.478515625 426.436523438 c 0
 323.478515625 395.171875 335.435546875 358.436523438 323.435546875 319.436523438 c 1
 233.435546875 391.436523438 l 1
350.9609375 391.436523438 m 1
 260.9609375 319.436523438 l 1
 248.9609375 358.436523438 242.01171875 396.735351562 242.01171875 428 c 0
 242.01171875 537.3359375 313.40625 594 390.396484375 594 c 0
 476.956054688 594 539.954101562 538.436523438 539.954101562 408.6796875 c 0
 539.954101562 262.436523438 461.478515625 191.436523438 363.478515625 191.436523438 c 0
 268.478515625 191.436523438 239.478515625 274.436523438 266.478515625 319.436523438 c 1
 355.478515625 318.436523438 l 1
 332.478515625 312.436523438 336.478515625 277.943359375 368.49609375 277.943359375 c 0
 409.478515625 277.943359375 446.478515625 302.436523438 446.478515625 403.436523438 c 0
 446.478515625 474.436523438 419.751953125 496 390.396484375 496 c 0
 361.870117188 496 339.640625 471.944335938 339.640625 434.311523438 c 0
 339.640625 428.6484375 340.143554688 422.678710938 341.205078125 416.436523438 c 1
 350.9609375 391.436523438 l 1
EndSplineSet
EndChar

StartChar: si_Ja
Encoding: -1 3490 33
Width: 594
VWidth: 0
Flags: HW
LayerCount: 4
Fore
SplineSet
574 776 m 5
 574 677.844938508 525.442698279 629.109691011 450.590130411 556 c 4
 421.907458872 578 l 4
 491.541315806 644.760334741 538 687.527365415 538 776 c 5
 574 776 l 5
EndSplineSet
EndChar

StartChar: si_Jha
Encoding: 30 3491 34
Width: 1047
VWidth: 0
Flags: HW
LayerCount: 4
Fore
SplineSet
476 214.000976562 m 0
 476 350.177734375 550.481445312 446.5390625 632.137695312 446.5390625 c 0
 651.041992188 446.5390625 669.385742188 441.80078125 689.137695312 432.000976562 c 1
 673.137695312 400.000976562 l 1
 658.9296875 407.104492188 645.735351562 410.5390625 632.137695312 410.5390625 c 0
 567.499023438 410.5390625 513 324.577148438 513 214.000976562 c 0
 513 130.796875 535.392578125 40.0009765625 602.833984375 40.0009765625 c 0
 694 40.0009765625 700.591796875 148.88671875 703.833984375 224.500976562 c 1
 737.833984375 224.500976562 l 1
 741.076171875 148.88671875 747.66796875 40.0009765625 838.833984375 40.0009765625 c 0
 931.567382812 40.0009765625 938.390625 164.000976562 938.390625 293.000976562 c 0
 938.390625 576.887695312 863.939453125 712.000976562 710.833984375 712.000976562 c 0
 639.961914062 712.000976562 571.484375 665.927734375 548.16015625 605.000976562 c 1
 514.16015625 618.000976562 l 1
 542.359375 692.59375 625.147460938 749.000976562 710.833984375 749.000976562 c 0
 888.833984375 749.000976562 975.390625 601.956054688 975.390625 293.000976562 c 0
 975.390625 145.135742188 966.03125 3.0009765625 838.833984375 3.0009765625 c 0
 743.66796875 3.0009765625 724.66796875 85.0009765625 720.833984375 115.000976562 c 1
 717 85.0009765625 698 3.0009765625 602.833984375 3.0009765625 c 0
 504.838867188 3.0009765625 476 115.607421875 476 214.000976562 c 0
436.670898438 196 m 4
 436.670898438 123.088867188 424.125976562 3 320.627929688 3 c 4
 262.567382812 3 237.627929688 48 236.627929688 79 c 5
 236.627929688 48 213.772460938 3 152.627929688 3 c 4
 85.4365234375 3 68.6279296875 48.037109375 68.6279296875 105 c 4
 68.6279296875 120.909179688 74.8505859375 169.772460938 52.6279296875 155 c 5
 76.6279296875 190 l 5
 107.270507812 198.607421875 102.627929688 129.747070312 102.627929688 105 c 4
 102.627929688 68.7001953125 112.6328125 40 152.627929688 40 c 4
 207.627929688 40 218.627929688 108.077148438 218.627929688 170 c 5
 254.627929688 170 l 5
 254.627929688 108.077148438 265.627929688 40 320.627929688 40 c 4
 397.076171875 40 399.627929688 157.619140625 399.627929688 196 c 4
 399.627929688 336.163085938 347.860351562 387.666992188 288.627929688 387.666992188 c 4
 249.627929688 387.666992188 230.627929688 375 213.627929688 360 c 5
 199.627929688 382 l 5
 222.627929688 402 251.627929688 424.666992188 288.627929688 424.666992188 c 4
 367.627929688 424.666992188 436.670898438 363.220703125 436.670898438 196 c 4
595.880859375 406 m 5
 594.34765625 411.50390625 592.719726562 416.82421875 591 421.96484375 c 4
 561.635742188 509.765625 505.758789062 545 444.62890625 545 c 4
 376.418945312 545 321.4140625 494.647460938 272.62890625 433 c 6
 52.62890625 155 l 5
 27.62890625 184 l 5
 245.62890625 458 l 6
 301.100585938 527.721679688 367.170898438 582 444.62890625 582 c 4
 522.673828125 582 593.701171875 538.369140625 628 428.65234375 c 4
 628.887695312 425.8125 629.750976562 422.928710938 630.588867188 420 c 6
 595.880859375 406 l 5
64.3505859375 474 m 5
 64.3505859375 407.775390625 107.627929688 368 184.627929688 356 c 5
 176.627929688 325 l 5
 89.6279296875 338 30.875 390.377929688 30.875 474 c 4
 30.875 553 90.4775390625 591 147.18359375 591 c 4
 211.740234375 591 271.627929688 548.098632812 271.627929688 454 c 5
 237.627929688 402 l 5
 237.627929688 454 l 6
 237.627929688 524.74609375 195.545898438 557 147.18359375 557 c 4
 106.797851562 557 64.3505859375 530.04296875 64.3505859375 474 c 5
 64.3505859375 474 l 5
EndSplineSet
Layer: 2
SplineSet
490.541992188 231.204101562 m 1
 490.541992188 277.470703125 496.802972917 319.594801178 504.669921875 345 c 0
 528.739257813 422.728515625 584.12109375 472 656.219726562 472 c 0
 683.986328125 472 713.017578125 465.063476562 741.391601562 445.2578125 c 1
 703.526367188 345 l 1
 689.678710938 352.989257812 677.008789062 356.607421875 665.663085938 356.607421875 c 0
 638.879882812 356.607421875 618.838452507 336.647383422 609.40625 306 c 0
 604.974609375 291.600585938 601.489257812 261.723632812 601.489257812 229.770507812 c 0
 601.489257812 175.234375 611.642578125 114.65234375 644.580078125 114.65234375 c 0
 686.755859375 114.65234375 701.76171875 179.677734375 701.76171875 249.5 c 1
 797.672851562 249.5 l 1
 797.672851562 176.75 813.140625 115 856.130859375 115 c 0
 912.88671875 115 912.88671875 239.958007812 912.88671875 293 c 0
 912.88671875 522.796875 869.88671875 639.885742188 731.88671875 639.885742188 c 0
 690.783203125 639.885742188 643.124023438 618.9609375 626.069335938 576.856445312 c 1
 517.037109375 613.030273438 l 1
 553.021484375 707.869140625 645.166992188 755.000976562 731.887695312 755.000976562 c 0
 948.887695312 755.000976562 1027.88769531 599.056640625 1027.88769531 293.000976562 c 0
 1027.88769531 181.997070312 1026.88769531 0.0009765625 856.131835938 0.0009765625 c 0
 800.211914062 0.0009765625 762.189453125 33.1455078125 747.369140625 79.03125 c 1
 731.223632812 31.603515625 691.811523438 0.0009765625 639.131835938 0.0009765625 c 0
 522.5234375 0.0009765625 490.54296875 126.225585938 490.54296875 231.205078125 c 1
 490.541992188 231.204101562 l 1
26.6279296875 126 m 1
 66 214 l 1
 111.627929688 206 l 1
 117.627929688 197 125.087890625 191.751953125 125.087890625 156 c 0
 125.087890625 138.591796875 126.720703125 109 150 109 c 0
 168.657226562 109 185 119 185 160 c 2
 185 227 l 1
 275 227 l 1
 275 160 l 2
 275 122 287 109 313 109 c 0
 348 109 353.087890625 165.987304688 353.087890625 210 c 0
 353.087890625 335.987304688 273 364 222 346 c 1
 295 426 l 1
 317.44140625 437 460.087890625 431 460.087890625 210 c 0
 460.087890625 112.106445312 420.04296875 0 314.04296875 0 c 0
 275.04296875 0 240.04296875 29 230.627929688 52 c 1
 222.04296875 31 191.04296875 0 154.627929688 0 c 0
 -2.3720703125 0 90.16796875 165 26.6279296875 126 c 1
22.6279296875 232 m 1
 86.6376953125 297.920898438 168.673805443 404.030362436 242.087890625 489 c 0
 290.735351562 545.3046875 343 585 433 585 c 0
 525.733398438 585 607.63671875 536.659179688 646.973632812 428 c 1
 544.524414062 383 l 1
 524.530273438 441.520507812 486.482421875 473 433 473 c 0
 380 473 353.578298936 457.000774796 314 416 c 0
 311.690429688 413.607421875 203.241115259 290.753024499 119.255859375 206 c 0
 73.6416015625 159.96875 26.6279296875 126 26.6279296875 126 c 2
 22.6279296875 232 l 1
154.615234375 594 m 0
 231.60546875 594 303 537.3359375 303 428 c 0
 303 396.735351562 292.087890625 389.899414062 267.087890625 369.899414062 c 1
 203.806640625 416.436523438 l 1
 204.868164062 422.678710938 205.37109375 428.6484375 205.37109375 434.311523438 c 0
 205.37109375 471.944335938 181.526367188 496 153 496 c 0
 125.166015625 496 111.575195312 475.012695312 111.575195312 451.903320312 c 0
 111.575195312 411.899414062 138.798828125 394.899414062 168.798828125 387.899414062 c 1
 109.087890625 327.899414062 l 1
 63.798828125 344.899414062 19 391.899414062 19 461.536132812 c 0
 19 532.131835938 67 594 154.615234375 594 c 0
EndSplineSet
Layer: 3
SplineSet
502.53515625 214.000976562 m 4
 502.53515625 350.177734374 577.016588296 446.5390625 658.672851562 446.5390625 c 4
 677.577148438 446.5390625 695.920898438 441.80078125 715.672851562 432.000976562 c 5
 699.672851562 400.000976562 l 5
 685.46484375 407.104492187 672.270507812 410.5390625 658.672851562 410.5390625 c 4
 594.033905957 410.5390625 539.53515625 324.577148437 539.53515625 214.000976562 c 4
 539.53515625 130.796875 561.92728398 40.0009765625 629.369140625 40.0009765625 c 4
 720.53515625 40.0009765625 727.126953125 148.88671875 730.369140625 224.500976562 c 5
 764.369140625 224.500976562 l 5
 767.611328125 148.88671875 774.203125 40.0009765625 865.369140625 40.0009765625 c 4
 958.102539063 40.0009765625 964.92578125 164.000976562 964.92578125 293.000976562 c 4
 964.92578125 576.887695312 890.474609375 712.000976562 737.369140625 712.000976562 c 4
 666.497070313 712.000976562 598.020507813 665.927734375 574.696289062 605.000976562 c 5
 540.696289062 618.000976562 l 5
 568.895507813 692.59375 651.68359375 749.000976562 737.369140625 749.000976562 c 4
 915.369140625 749.000976562 1001.92578125 601.956054688 1001.92578125 293.000976562 c 4
 1001.92578125 145.135742188 992.56640625 3.0009765625 865.369140625 3.0009765625 c 4
 770.203125 3.0009765625 751.203125 85.0009765625 747.369140625 115.000976562 c 5
 743.53515625 85.0009765625 724.53515625 3.0009765625 629.369140625 3.0009765625 c 4
 531.374251593 3.0009765625 502.53515625 115.607421875 502.53515625 214.000976562 c 4
436.670898438 196 m 4
 436.670898438 123.088888889 424.125712626 3 320.627929688 3 c 4
 262.567382812 3 237.627929688 48 236.627929688 79 c 5
 236.627929688 48 213.772460938 3 152.627929688 3 c 4
 85.4365971405 3 68.6279296875 48.0372295673 68.6279296875 105 c 4
 68.6279296875 120.909090909 74.8501519095 169.772727273 52.6279296875 155 c 5
 76.6279296875 190 l 5
 107.27078683 198.607594937 102.627929688 129.746835443 102.627929688 105 c 4
 102.627929688 68.7001953125 112.633088886 40 152.627929688 40 c 4
 207.627929688 40 218.627929688 108.077148438 218.627929688 170 c 5
 254.627929688 170 l 5
 254.627929688 108.077148438 265.627929688 40 320.627929688 40 c 4
 397.076379485 40 399.627929688 157.618963068 399.627929688 196 c 4
 399.627929688 336.163390937 347.860578265 387.666992188 288.627929688 387.666992188 c 4
 249.627929688 387.666992188 230.627929688 375 213.627929688 360 c 5
 199.627929688 382 l 5
 222.627929688 402 251.627929688 424.666992188 288.627929688 424.666992188 c 4
 367.627669191 424.666992188 436.670898438 363.220998319 436.670898438 196 c 4
595.880536091 406.000001782 m 4
 568.160219123 505.51966209 509.337230246 545 444.627929688 545 c 4
 376.418156302 545 321.41343732 494.647141463 272.627929688 433 c 6
 52.6279296875 155 l 5
 27.6279296875 184 l 5
 245.627929688 458 l 6
 301.099822386 527.721553208 367.169773744 582 444.627929688 582 c 4
 524.692793971 582 597.372680225 536.081910554 630.588720041 420 c 4
 595.880536091 406.000001782 l 4
64.3505859375 474 m 4
 64.3505859375 407.775810088 107.627929688 368 184.627929688 356 c 5
 176.627929688 325 l 5
 89.6279296878 338 30.875 390.37755102 30.875 474 c 4
 30.875 553 90.477539063 591 147.18359375 591 c 4
 211.740234376 591 271.627929688 548.098632812 271.627929688 454 c 4
 237.627929688 402 l 5
 237.627929688 416 237.627929688 435 237.627929688 454 c 4
 237.627929688 524.74609375 195.545898438 557 147.18359375 557 c 4
 106.797851563 557 64.3505859375 530.04296875 64.3505859375 474 c 4
EndSplineSet
EndChar

StartChar: si_Ttha
Encoding: 35 3496 35
Width: 600
VWidth: 0
Flags: HW
LayerCount: 4
Fore
SplineSet
318.40234375 603 m 4
 318.40234375 667.298240372 360.886019393 706.649194537 360.886019393 740.684733117 c 4
 360.886019393 754.218846081 354.168384068 766.912470953 335.390625 780 c 5
 335.390625 780 399 761 399 761 c 5
 396.654797173 749.589700533 393.099940769 726.289633391 393.099940769 726.289633391 c 5
 393.099940769 693.052892006 354.390625 661.162603986 354.390625 603 c 4
 354.390625 561.561444294 396.136763615 524.959299047 459.359412928 524.959299047 c 4
 467.816178848 524.959299047 476.657206346 525.614191187 485.833984375 527 c 5
 509 522 l 5
 493.833984375 494 l 5
 481.58635468 492.012571378 469.786821012 491.073368844 458.500125576 491.073368844 c 4
 374.119324593 491.073368844 318.40234375 543.567763337 318.40234375 603 c 4
49 214 m 0
 49 266.263671875 59.970703125 312.662109375 78.107421875 350 c 0
 107.227539062 409.948242188 154.8203125 446.538085938 205.137695312 446.538085938 c 0
 224.041992188 446.538085938 242.385742188 441.799804688 262.137695312 432 c 1
 246.137695312 400 l 1
 231.9296875 407.103515625 218.735351562 410.538085938 205.137695312 410.538085938 c 0
 166.3671875 410.538085938 131.245117188 379.61328125 109.342773438 331 c 0
 94.728515625 298.563476562 86 258.252929688 86 214 c 0
 86 130.795898438 108.392578125 40 175.833984375 40 c 0
 267 40 273.591796875 148.885742188 276.833984375 224.5 c 1
 310.833984375 224.5 l 1
 314.076171875 148.885742188 320.66796875 40 411.833984375 40 c 0
 504.567382812 40 511.390625 164 511.390625 293 c 0
 511.390625 382.183169059 502.117870864 458.762286946 485.859706975 524.000002786 c 1
 464.681181294 608.981225117 431.649326586 674.717567789 391.820109923 724.000002052 c 1
 374.195275312 745.80798187 355.239413388 764.39403506 335.390625 780 c 1
 358.390625 807 l 1
 420.940595737 758.918619655 475.276559343 684.034971405 509.633872019 576 c 0
 534.062161679 499.186379571 548.390625 405.61373933 548.390625 293 c 0
 548.390625 145.134765625 539.03125 3 411.833984375 3 c 0
 316.66796875 3 297.66796875 85 293.833984375 115 c 1
 290 85 271 3 175.833984375 3 c 0
 77.8388671875 3 49 115.606445312 49 214 c 0
EndSplineSet
Layer: 2
SplineSet
402.596679688 0 m 0
 346.676757812 0 308.654296875 33.14453125 293.833984375 79.0302734375 c 1
 277.688476562 31.6025390625 238.276367188 0 185.596679688 0 c 0
 17.5966796875 0 25.0029296875 258 50.8818359375 341 c 0
 76.1875 422.157226562 135.76171875 474.71484375 202.685546875 474.71484375 c 0
 230.452148438 474.71484375 259.484375 465.66796875 287.857421875 445.862304688 c 1
 249.9921875 345.604492188 l 1
 236.145507812 353.59375 223.474609375 357.211914062 212.12890625 357.211914062 c 0
 184.58984375 357.211914062 164.856445312 335.891601562 155.041015625 304 c 0
 143.045898438 265.024414062 137.59765625 124 185.596679688 115 c 0
 231.497070312 106.393554688 248.227539062 176.75 248.227539062 249.5 c 1
 344.138671875 249.5 l 1
 344.138671875 176.75 359.606445312 115 402.596679688 115 c 0
 459.352539062 115 459.352539062 239.958007812 459.352539062 293 c 0
 459.352539062 384.547851562 444.490234375 481.404296875 425.850585938 545 c 1
 420.112304688 579 402.112304688 628 380.029296875 648 c 1
 357.291992188 683.220703125 328.791992188 712.00390625 294.0078125 733 c 1
 366.0078125 817 l 1
 444.985351562 764.920898438 499.396484375 686.227539062 531.495117188 588 c 0
 555.483398438 514.590820312 574.352539062 410 574.352539062 293 c 0
 574.352539062 181.99609375 573.352539062 0 402.596679688 0 c 0
428.112304688 546 m 1
 438.112304688 565 445.65625 609.987304688 433.0078125 624 c 0
 426.810546875 630.865234375 392.112304688 651 381.112304688 647 c 0
 364.733398438 639.98046875 355.112304688 621.141601562 355.112304688 605 c 0
 355.112304688 584 377.112304688 554 428.112304688 546 c 1
294.0078125 733 m 1
 360.0078125 781 l 1
 403.0078125 764 l 1
 452.9140625 736.635742188 523.376953125 491.768554688 445.0078125 461 c 1
 367.387695312 463.250976562 269.124023438 525 269.124023438 611.133789062 c 0
 269.124023438 686.51171875 341.916015625 697.581054688 294.0078125 733 c 1
EndSplineSet
Layer: 3
SplineSet
354.390625 603 m 0
 354.390625 556.018554688 408.051757812 515.25390625 485.833984375 527 c 1
 496.974609375 541.603515625 497.580078125 561.625 499.833984375 563 c 1
 499.833984375 563 516.060546875 504.630859375 493.833984375 494 c 1
 390.021484375 477.154296875 318.40234375 535.618164062 318.40234375 603 c 0
 318.40234375 692.866210938 401.390625 734 335.390625 780 c 1
 360.390625 785 399.390625 758 399.390625 758 c 1
 392.833984375 731 l 1
 396.833984375 696 354.390625 663.903320312 354.390625 603 c 0
548.390625 293 m 0
 548.390625 145.134765625 539.03125 3 411.833984375 3 c 0
 316.66796875 3 297.66796875 85 293.833984375 115 c 1
 290 85 271 3 175.833984375 3 c 0
 87.234375 3 52.390625 129.318359375 52.390625 227 c 0
 52.390625 287.844365268 70.5380859375 470 204 470 c 0
 241 470 261 458 280 447 c 1
 267 414 l 1
 248 425 233 433 199.280273438 433 c 0
 114 433 89.390625 277.34780879 89.390625 227 c 0
 89.390625 149.841796875 113.791015625 40 175.833984375 40 c 0
 267 40 273.591796875 148.885742188 276.833984375 224.5 c 1
 310.833984375 224.5 l 1
 314.076171875 148.885742188 320.66796875 40 411.833984375 40 c 0
 504.567382812 40 511.390625 164 511.390625 293 c 0
 511.390625 549.764648438 434.528320312 702.053710938 335.390625 780 c 1
 358.390625 807 l 1
 465.4140625 724.732421875 548.390625 564 548.390625 293 c 0
EndSplineSet
EndChar

StartChar: si_Tha
Encoding: 41 3502 39
Width: 533
VWidth: 0
Flags: HW
LayerCount: 4
Fore
SplineSet
324.416992188 603 m 0
 324.416992188 667.297851562 366.900390625 706.649414062 366.900390625 740.684570312 c 0
 366.900390625 754.21875 360.182617188 766.912109375 341.405273438 780 c 1
 405.014648438 761 l 1
 402.669921875 749.58984375 399.114257812 726.290039062 399.114257812 726.290039062 c 1
 399.114257812 693.052734375 360.405273438 661.163085938 360.405273438 603 c 0
 360.405273438 561.561523438 402.151367188 524.958984375 465.374023438 524.958984375 c 0
 473.831054688 524.958984375 482.671875 525.614257812 491.848632812 527 c 1
 515.014648438 522 l 1
 499.848632812 494 l 1
 487.600585938 492.012695312 475.801757812 491.073242188 464.514648438 491.073242188 c 0
 380.133789062 491.073242188 324.416992188 543.567382812 324.416992188 603 c 0
84.833984375 235 m 0
 84.833984375 371.176757812 154.479492188 446.538085938 230.833984375 446.538085938 c 0
 249.73828125 446.538085938 268.08203125 441.799804688 287.833984375 432 c 1
 271.833984375 400 l 1
 257.625976562 407.103515625 244.431640625 410.538085938 230.833984375 410.538085938 c 0
 171.6953125 410.538085938 121.833984375 345.575195312 121.833984375 235 c 0
 121.833984375 145.521484375 171.42578125 40 293.833984375 40 c 0
 432.015625 40 507 150.385742188 507 342 c 0
 507 410.758789062 502.765625 471.186523438 491.874023438 524 c 1
 470.696289062 608.981445312 437.6640625 674.717773438 397.834960938 724 c 1
 380.209960938 745.807617188 361.25390625 764.393554688 341.405273438 780 c 1
 364.405273438 807 l 1
 483.4140625 715.40234375 544 562.866210938 544 342 c 0
 544 126.91015625 456 3 293.833984375 3 c 0
 145.09375 3 84.833984375 128.543945312 84.833984375 235 c 0
EndSplineSet
Layer: 2
SplineSet
572.453125 548 m 1
 582.453125 567 589.997070312 611.987304688 577.348632812 626 c 0
 571.151367188 632.865234375 536.453125 653 525.453125 649 c 0
 509.07421875 641.98046875 499.453125 623.141601562 499.453125 607 c 0
 499.453125 586 521.453125 556 572.453125 548 c 1
438.348632812 735 m 1
 504.348632812 783 l 1
 547.348632812 766 l 1
 597.254882812 738.635742188 667.717773438 493.768554688 589.348632812 463 c 1
 511.728515625 465.250976562 413.46484375 527 413.46484375 613.133789062 c 0
 413.46484375 688.51171875 486.256835938 699.581054688 438.348632812 735 c 1
428.833984375 0 m 1
 250.833984375 0 198.6875 136.287109375 198.6875 252.396484375 c 0
 198.6875 421.91015625 329.416015625 528.416992188 448.552734375 445.2578125 c 1
 410.6875 345 l 1
 347.387695312 381.518554688 308.6875 326.717773438 308.6875 252.395507812 c 0
 308.6875 189.243164062 335.913085938 114.999023438 428.833007812 114.999023438 c 0
 533.28515625 114.999023438 587.833007812 181.017578125 587.833007812 339.999023438 c 0
 587.833007812 415.911132812 586.108398438 486.645507812 570.19140625 546.999023438 c 0
 564.44140625 580.997070312 546.438476562 629.989257812 524.370117188 649.999023438 c 1
 502.87109375 684.764648438 472.803710938 714.202148438 438.348632812 734.999023438 c 1
 510.348632812 818.999023438 l 1
 648.348632812 727.999023438 702.833007812 555.740234375 702.833007812 339.999023438 c 0
 702.833007812 103.999023438 608.833007812 -0.0009765625 428.833007812 -0.0009765625 c 1
 428.833984375 0 l 1
EndSplineSet
EndChar

StartChar: si_Dha
Encoding: 43 3504 40
Width: 600
VWidth: 0
Flags: HW
LayerCount: 4
Fore
SplineSet
49 214 m 4
 49 266.263524711 59.970828589 312.662389704 78.1075723806 349.999995488 c 4
 107.227552671 409.948482217 154.820437333 446.538085938 205.137695312 446.538085938 c 4
 224.041992188 446.538085938 242.385742188 441.799804688 262.137695312 432 c 5
 246.137695312 400 l 5
 231.9296875 407.103515625 218.735351562 410.538085938 205.137695312 410.538085938 c 4
 166.367536212 410.538085938 131.245361613 379.612871741 109.342833149 331.000003125 c 4
 94.7287112085 298.563821567 86 258.253063784 86 214 c 4
 86 130.795898438 108.39212773 40 175.833984375 40 c 4
 267 40 273.591796875 148.885742188 276.833984375 224.5 c 5
 310.833984375 224.5 l 5
 314.076171875 148.885742188 320.66796875 40 411.833984375 40 c 4
 504.567382813 40 511.390625 164 511.390625 293 c 4
 511.390625 576.88671875 436.939453125 712 283.833984375 712 c 4
 212.961914063 712 144.485351563 665.926757812 121.161132812 605 c 5
 87.1611328125 618 l 5
 115.360351563 692.592773438 198.1484375 749 283.833984375 749 c 4
 461.833984375 749 548.390625 601.955078125 548.390625 293 c 4
 548.390625 145.134765625 539.03125 3 411.833984375 3 c 4
 316.66796875 3 297.66796875 85 293.833984375 115 c 5
 290 85 271 3 175.833984375 3 c 4
 77.8390953426 3 49 115.606445312 49 214 c 4
EndSplineSet
Layer: 2
SplineSet
155.872070312 306 m 5
 155.87109375 306 l 5
 143.875976562 267.0234375 138.809570312 114.651367188 191.044921875 114.651367188 c 4
 233.220703125 114.651367188 248.2265625 179.677734375 248.2265625 249.5 c 5
 344.137695312 249.5 l 5
 344.137695312 176.75 359.60546875 115 402.595703125 115 c 4
 459.3515625 115 459.3515625 239.958007812 459.3515625 293 c 4
 459.3515625 522.796875 416.3515625 639.884765625 278.3515625 639.884765625 c 4
 237.249023438 639.884765625 189.58984375 618.959960938 172.534179688 576.85546875 c 5
 63.501953125 613.029296875 l 5
 99.4873046875 707.868164062 191.631835938 755 278.352539062 755 c 4
 495.352539062 755 574.352539062 599.056640625 574.352539062 293 c 4
 574.352539062 181.99609375 573.352539062 0 402.596679688 0 c 4
 346.676757812 0 308.654296875 33.14453125 293.833984375 79.0302734375 c 5
 277.688476562 31.6025390625 238.276367188 0 185.596679688 0 c 4
 17.5966796875 0 25.4174512942 261.949787189 51.1357421875 345 c 4
 75.2060546875 422.728515625 130.586914062 472 202.685546875 472 c 4
 230.452148438 472 259.483398438 465.063476562 287.857421875 445.2578125 c 5
 249.9921875 345 l 5
 236.14453125 352.989257812 223.474609375 356.607421875 212.12890625 356.607421875 c 4
 185.345703125 356.607421875 165.946289062 336.442382812 155.872070312 306 c 5
EndSplineSet
EndChar

StartChar: si_Pa
Encoding: 46 3508 41
Width: 594
VWidth: 0
Flags: HW
LayerCount: 4
Fore
SplineSet
276.833007812 454 m 4
 276.833007812 466.18594426 277.8383242 477.513162194 279.727137724 488.00000488 c 4
 292.423417099 558.490756239 345.081882177 591 401.278320312 591 c 4
 457.984375 591 517.586914062 553 517.586914062 474 c 4
 517.586914062 429.732230808 497.269780815 385.565217391 465.72265625 361 c 5
 439.72265625 382 l 5
 466.72265625 402 484.111328125 437.958762887 484.111328125 474 c 4
 484.111328125 530.04296875 441.663085938 557 401.278320312 557 c 4
 352.916015625 557 310.833984375 524.74609375 310.833984375 454 c 4
 310.833984375 435 310.833984375 416 310.833984375 402 c 5
 293.833984375 369 l 5
 284.117333212 397.662790698 276.833007812 421.38372093 276.833007812 454 c 4
75 224.436523438 m 0
 75 107.2421875 161.024414062 30 293.833984375 30 c 0
 426.643554688 30 512.66796875 106.805664062 512.66796875 224 c 0
 512.66796875 299.407226562 474.19140625 365 390 365 c 2
 197.66796875 365 l 2
 113.4765625 365 75 299.84375 75 224.436523438 c 0
38 224.436523438 m 0
 38 319.693359375 90.9033203125 402 197.66796875 402 c 2
 390 402 l 2
 496.764648438 402 549.66796875 319.256835938 549.66796875 224 c 0
 549.66796875 84.5048828125 449.33984375 -7 293.833984375 -7 c 0
 138.328125 -7 38 84.94140625 38 224.436523438 c 0
70.080078125 474 m 4
 70.080078125 553 129.682617187 591 186.388671875 591 c 4
 242.585375952 591 295.246591091 558.491205092 307.940429688 488 c 4
 309.828847641 477.513270059 310.833007812 466.18594251 310.833007812 454 c 4
 310.833007812 421.38372093 303.549100835 397.662790698 293.833007812 369 c 5
 276.833007812 402 l 5
 276.833007812 416 276.833007812 435 276.833007812 454 c 4
 276.833007812 524.74609375 234.750976562 557 186.388671875 557 c 4
 146.003906249 557 103.555664062 530.04296875 103.555664062 474 c 4
 103.555664062 437.958762887 120.944335938 402 147.944335938 382 c 5
 121.944335938 361 l 5
 90.3972113722 385.565217391 70.080078125 429.732230808 70.080078125 474 c 4
EndSplineSet
Layer: 2
SplineSet
374.478515625 416.436523438 m 6
 496.862304688 416.436523438 557.91796875 330.088867188 557.91796875 224.436523438 c 4
 557.91796875 -90.5634765625 28.478515625 -90.5595703125 28.478515625 224.436523438 c 4
 28.478515625 330.088867188 89.53515625 416.436523438 211.91796875 416.436523438 c 6
 242.6796875 416.436523438 l 5
 343.716796875 416.436523438 l 5
 374.478515625 416.436523438 l 5
 374.478515625 416.436523438 l 6
368.478515625 318.436523438 m 5
 217.91796875 318.436523438 l 6
 162.91796875 318.436523438 135.478515625 276.162109375 135.478515625 224.436523438 c 4
 135.478515625 64.359375 450.916992188 64.9599609375 450.916992188 224.436523438 c 4
 450.916992188 276.162109375 423.477539062 318.436523438 368.477539062 318.436523438 c 6
 368.478515625 318.436523438 l 5
234.435546875 391.436523438 m 5
 244.19140625 416.436523438 l 6
 245.252929688 422.678710938 245.755859375 428.6484375 245.755859375 434.311523438 c 4
 245.755859375 471.944335938 223.526367188 496 195 496 c 4
 165.64453125 496 149.81640625 475 149.81640625 451.1640625 c 4
 149.81640625 439.108398438 156.452148438 419.560546875 164.435546875 410.436523438 c 5
 86.435546875 370.436523438 l 5
 67.1259765625 395.643554688 56.3408203125 428.604492188 56.3408203125 456.407226562 c 4
 56.3408203125 532.13671875 108.440429688 594 195 594 c 4
 262.123046875 594 324.9921875 550.930664062 340.004882812 467.4375 c 5
 324.91796875 447.4375 329.91796875 422.4375 342.0234375 402.4375 c 5
 339.452148438 376.875976562 333.33203125 348.349609375 324.435546875 319.4375 c 5
 234.435546875 391.436523438 l 5
351.9609375 391.436523438 m 5
 261.9609375 319.436523438 l 5
 253.411132812 347.22265625 247.42578125 374.65234375 244.690429688 399.436523438 c 5
 268.91796875 419.436523438 280.91796875 455.436523438 249.192382812 480.436523438 c 5
 268.116210938 555.397460938 327.850585938 594.000976562 391.396484375 594.000976562 c 4
 477.956054688 594.000976562 530.0546875 532.137695312 530.0546875 456.407226562 c 4
 530.0546875 428.604492188 519.26953125 395.643554688 499.959960938 370.436523438 c 5
 421.959960938 410.436523438 l 5
 429.943359375 419.560546875 436.579101562 439.108398438 436.579101562 451.1640625 c 4
 436.579101562 475 420.750976562 496 391.395507812 496 c 4
 362.869140625 496 340.639648438 471.944335938 340.639648438 434.311523438 c 4
 340.639648438 428.6484375 341.142578125 422.678710938 342.204101562 416.436523438 c 6
 351.9609375 391.436523438 l 5
EndSplineSet
Layer: 3
SplineSet
632.412109375 474 m 0
 632.412109375 553 692.014648438 591 748.720703125 591 c 0
 813.27734375 591 873.165039062 548.098632812 873.165039062 454 c 0
 873.165039062 421.383789062 865.880859375 397.663085938 856.165039062 369 c 1
 839.165039062 402 l 1
 839.165039062 416 839.165039062 435 839.165039062 454 c 0
 839.165039062 524.74609375 797.083007812 557 748.720703125 557 c 0
 708.3359375 557 665.887695312 530.04296875 665.887695312 474 c 0
 665.887695312 437.958984375 683.276367188 402 710.276367188 382 c 1
 684.276367188 361 l 1
 652.729492188 385.565429688 632.412109375 429.732421875 632.412109375 474 c 0
1079.91894531 474 m 0
 1079.91894531 429.732421875 1059.6015625 385.565429688 1028.0546875 361 c 1
 1002.0546875 382 l 1
 1029.0546875 402 1046.44335938 437.958984375 1046.44335938 474 c 0
 1046.44335938 530.04296875 1003.99511719 557 963.610351562 557 c 0
 915.248046875 557 873.166015625 524.74609375 873.166015625 454 c 0
 873.166015625 435 873.166015625 416 873.166015625 402 c 1
 856.166015625 369 l 1
 846.450195312 397.663085938 839.166015625 421.383789062 839.166015625 454 c 0
 839.166015625 548.098632812 899.053710938 591 963.610351562 591 c 0
 1020.31640625 591 1079.91894531 553 1079.91894531 474 c 0
760 365 m 0
 675.80859375 365 647.33203125 299.84375 647.33203125 224.436523438 c 0
 647.33203125 107.2421875 723.356445312 30 856.166015625 30 c 0
 988.975585938 30 1065 107.2421875 1065 224.436523438 c 0
 1065 299.84375 1036.5234375 365 952.33203125 365 c 0
 952.33203125 365 915.97265625 365 856.166015625 365 c 0
 796.359375 365 760 365 760 365 c 0
760 402 m 0
 856.166015625 402 l 0
 952.33203125 402 l 0
 1059.09667969 402 1102 319.693359375 1102 224.436523438 c 0
 1102 84.94140625 1011.671875 -7 856.166015625 -7 c 0
 700.66015625 -7 610.33203125 84.94140625 610.33203125 224.436523438 c 0
 610.33203125 319.693359375 653.235351562 402 760 402 c 0
342.22265625 402 m 1
 342.22265625 368 l 1
 299.16796875 368 293.858398438 368 293.858398438 368 c 1
 284.858398438 397 278.111328125 421 278.111328125 454 c 0
 278.111328125 548.098632812 339.400390625 591 393.858398438 591 c 0
 454.114257812 591 507.858398438 547.701171875 507.858398438 474 c 0
 507.858398438 408 468.22265625 376 456.22265625 365 c 1
 434.22265625 385 l 1
 444.22265625 395 474.3828125 419 474.3828125 474 c 0
 474.3828125 530.225585938 438.815429688 557 393.858398438 557 c 0
 341.09375 557 312.111328125 511 312.111328125 454 c 0
 312.111328125 435 312.111328125 416 312.111328125 402 c 1
 335.913085938 402 317.942382812 402 342.22265625 402 c 1
293.833984375 30 m 0
 426.643554688 30 502.66796875 107.2421875 502.66796875 224.436523438 c 0
 502.66796875 299.84375 456.53125 365 372.33984375 365 c 0
 372.33984375 365 353.640625 365 293.833984375 365 c 0
 234.02734375 365 215.328125 365 215.328125 365 c 0
 131.13671875 365 85 299.84375 85 224.436523438 c 0
 85 107.2421875 161.024414062 30 293.833984375 30 c 0
372.33984375 402 m 0
 479.104492188 402 539.66796875 319.693359375 539.66796875 224.436523438 c 0
 539.66796875 84.94140625 449.33984375 -7 293.833984375 -7 c 0
 138.328125 -7 48 84.94140625 48 224.436523438 c 0
 48 319.693359375 108.563476562 402 215.328125 402 c 0
 293.833984375 402 l 0
 372.33984375 402 l 0
248 402 m 1
 272.280273438 402 254.309570312 402 278.111328125 402 c 1
 278.111328125 416 278.111328125 435 278.111328125 454 c 0
 278.111328125 511 249.12890625 557 196.364257812 557 c 0
 151.407226562 557 115.83984375 530.225585938 115.83984375 474 c 0
 115.83984375 419 146 395 156 385 c 1
 134 365 l 1
 122 376 82.3642578125 408 82.3642578125 474 c 0
 82.3642578125 547.701171875 136.108398438 591 196.364257812 591 c 0
 250.822265625 591 312.111328125 548.098632812 312.111328125 454 c 0
 312.111328125 421 305.364257812 397 296.364257812 368 c 1
 296.364257812 368 291.0546875 368 248 368 c 1
 248 402 l 1
EndSplineSet
EndChar

StartChar: si_Pha
Encoding: 47 3509 42
Width: 578
VWidth: 0
Flags: HW
LayerCount: 4
Fore
SplineSet
324.416992188 603 m 4
 324.416992188 667.297851562 366.900390625 706.649414062 366.900390625 740.684570312 c 4
 366.900390625 754.21875 360.182617188 766.912109375 341.405273438 780 c 5
 405.014648438 761 l 5
 402.669921875 749.58984375 399.114257812 726.290039062 399.114257812 726.290039062 c 5
 399.114257812 693.052734375 360.405273438 661.163085938 360.405273438 603 c 4
 360.405273438 561.561523438 402.151367188 524.958984375 465.374023438 524.958984375 c 4
 473.831054688 524.958984375 482.671875 525.614257812 491.848632812 527 c 5
 515.014648438 522 l 5
 499.848632812 494 l 5
 487.600585938 492.012695312 475.801757812 491.073242188 464.514648438 491.073242188 c 4
 380.133789062 491.073242188 324.416992188 543.567382812 324.416992188 603 c 4
75.833984375 219 m 4
 75.833984375 284.81565303 96.8855238778 335.012194821 133.23703358 362.999997128 c 4
 154.327132903 379.237714222 180.567181255 388 210.833984375 388 c 4
 259.833984375 388 327.833984375 388 327.833984375 388 c 5
 346.833984375 354 l 5
 210.833984375 354 l 6
 147.875 354 111.833984375 298.873046875 111.833984375 219 c 4
 111.833984375 154.403320312 141.880859375 40 293.833984375 40 c 4
 432.015356989 40 507 150.386038901 507 342 c 4
 507 410.758303799 502.765625 471.186523438 491.874023438 524 c 5
 470.696289062 608.981445312 437.6640625 674.717773438 397.834960938 724 c 5
 380.209960938 745.807617188 361.25390625 764.393554688 341.405273438 780 c 5
 364.405273438 807 l 5
 483.413697256 715.402659348 544 562.865947845 544 342 c 4
 544 126.910344828 456 3 293.833984375 3 c 4
 111.82421875 3 75.833984375 141.05078125 75.833984375 219 c 4
114.833984375 420 m 4
 114.833984375 488 166.177734375 524 224.833984375 524 c 4
 289.389648438 524 349.278320312 481.098632812 349.278320312 387 c 4
 349.278320312 375.040039062 348.392578125 364.26171875 346.833984375 354 c 5
 315.454101562 379 l 5
 315.361328125 381.637695312 315.278320312 384.229492188 315.278320312 387 c 4
 315.278320312 457.74609375 273.196289062 490 224.833984375 490 c 4
 182.876953125 490 148.309570312 467 148.309570312 420 c 4
 148.309570312 395.599609375 157.833984375 376 170.833984375 364 c 13
 146.65234375 344 l 21
 130.833984375 358 114.833984375 388.0234375 114.833984375 420 c 4
EndSplineSet
Layer: 2
SplineSet
410.014648438 755 m 5
 390.79296875 647 l 5
 374.4140625 639.98046875 364.79296875 621.141601562 364.79296875 605 c 4
 364.79296875 584 386.79296875 554 437.79296875 546 c 5
 522.014648438 524 l 5
 454.688476562 461 l 5
 377.068359375 463.250976562 278.8046875 525 278.8046875 611.133789062 c 4
 278.8046875 686.51171875 351.596679688 697.581054688 303.688476562 733 c 5
 410.014648438 755 l 5
103.370117188 409.272460938 m 5
 103.370117188 481.53515625 152.340820312 531.563476562 226.642578125 531.563476562 c 4
 303.627929688 531.563476562 375.02734375 474.8984375 375.02734375 365.563476562 c 4
 375.02734375 350.999023438 371.833984375 324.999023438 367.778320312 305.999023438 c 5
 277.3984375 371.874023438 l 5
 283.938476562 405.999023438 267.938476562 443.999023438 226.642578125 443.999023438 c 4
 201.842773438 443.999023438 192.850585938 426.1328125 192.850585938 404.786132812 c 4
 192.850585938 386.79296875 205.135742188 370.32421875 213.833984375 355.999023438 c 5
 133.833984375 318.563476562 l 5
 113.833984375 350.999023438 103.370117188 380.619140625 103.370117188 409.272460938 c 5
 103.370117188 409.272460938 l 5
293.833984375 0 m 5
 115.833984375 0 63.6455078125 137 63.6455078125 218.826171875 c 4
 63.6455078125 279.354492188 83.5439453125 335.661132812 114.0234375 362 c 4
 135.04296875 380.1640625 163.120117188 391 199.721679688 391 c 6
 305.833984375 391 l 5
 346.028320312 373 367.778320312 306 367.778320312 306 c 5
 242.720703125 306 l 6
 186.720703125 306 174.3203125 270.6015625 174.3203125 226.6015625 c 4
 174.3203125 174 200.913085938 115 293.833984375 115 c 4
 398.28515625 115 452.833984375 181.017578125 452.833984375 340 c 4
 452.833984375 415.912109375 451.448242188 484.645507812 435.53125 545 c 4
 429.78125 578.997070312 411.778320312 627.989257812 389.709960938 648 c 5
 368.2109375 682.765625 338.143554688 712.203125 303.688476562 733 c 5
 375.688476562 817 l 5
 513.688476562 726 567.833984375 555.740234375 567.833984375 340 c 4
 567.833984375 104 473.833984375 0 293.833984375 0 c 5
 293.833984375 0 l 5
EndSplineSet
EndChar

StartChar: si_Ba
Encoding: 48 3510 43
Width: 584
VWidth: 0
Flags: HW
LayerCount: 4
Fore
SplineSet
37 220 m 0
 37 419.133789062 112.666015625 486 200.060546875 486 c 0
 291.595015088 486 335 436.897460938 335 344 c 0
 335 247 261 228 261 137 c 0
 261 65.1298828125 307.974734043 39 361 39 c 0
 462.696897662 39 489.619140625 145.855172414 489.619140625 293 c 0
 489.619140625 576.88671875 415.16796875 712 262.0625 712 c 0
 191.190429688 712 122.713867188 665.926757812 99.3896484375 605 c 1
 65.3896484375 618 l 1
 93.5888671875 692.592773438 176.376953125 749 262.0625 749 c 0
 440.0625 749 526.619140625 601.955078125 526.619140625 293 c 0
 526.619140625 125 491.952148438 3 361 3 c 0
 266.842499793 3 225.114257812 58.3154296875 225.114257812 137 c 0
 225.114257812 241 299 258 299 344 c 0
 299 413.345991967 267.174871243 450 200.060546875 450 c 0
 132.496671895 450 74 392.183351445 74 220 c 0
 74 105.193764401 99.7786885246 39 159 39 c 0
 197.884615385 39 224.538461538 79 231 115 c 1
 261 108 l 1
 251.555555556 52 220.1240086 3 159 3 c 0
 74 3 37 82.359375 37 220 c 0
EndSplineSet
Layer: 2
SplineSet
437.115234375 293 m 5
 437.11328125 293 l 5
 437.11328125 522.796875 394.11328125 639.884765625 256.11328125 639.884765625 c 4
 215.010742188 639.884765625 167.3515625 618.959960938 150.295898438 576.85546875 c 5
 41.263671875 613.029296875 l 5
 77.2490234375 707.868164062 169.393554688 755 256.114257812 755 c 4
 473.114257812 755 552.114257812 599.056640625 552.114257812 293 c 4
 551.630859375 181.99609375 519.755859375 0 362 0 c 4
 237.697265625 0 209.461914062 87.4052734375 209.461914062 177 c 4
 209.461914062 237 257 264 257 324 c 4
 257 354 241.56640625 376.432617188 198.875 376.432617188 c 4
 159.047851562 376.432617188 129.875 339.788085938 129.875 220 c 4
 129.875 128 147.875 110 168.875 110 c 4
 188.875 110 205.875 120 221.875 156 c 5
 277.875 73 l 5
 248.875 28 221.353515625 0 168.875 0 c 4
 63.875 0 19.875 79 19.875 220 c 4
 19.875 425.889648438 95.875 488.874023438 200.060546875 488.874023438 c 4
 307.56640625 488.874023438 369 430 369 324 c 4
 369 251 318.358398438 228 318.358398438 177 c 4
 318.358398438 142.7578125 331.602539062 115 357.875 115 c 4
 410.086914062 115 437.115234375 190 437.115234375 293 c 5
EndSplineSet
EndChar

StartChar: si_Bha
Encoding: 49 3511 44
Width: 698
Flags: HW
LayerCount: 4
Fore
SplineSet
123.284179688 264 m 4
 96.9970381152 133.31980493 156.624018149 40 264 40 c 4
 352.86178577 40 386 103.167225714 386 158 c 4
 386 214.123076923 359.350649351 250.553846154 310 222 c 5
 301 249 l 5
 373.806451613 283.484210526 423 242.294736842 423 158 c 4
 423 85.9735914327 379.811075179 3 264 3 c 4
 129 3 55.6858720569 113.920261845 87.0830078125 270 c 4
 95.8155432609 313.410706531 111.796453085 351.780505466 133.48046875 369 c 5
 69.7578125 369 l 5
 69.7578125 405 l 5
 355 405 l 5
 355 369 l 5
 227.330078125 369 l 4
 161.705545386 369 133.885706261 316.240079104 123.284179688 264 c 4
327.872070312 400.6875 m 4
 327.872070312 493.23830001 376.522851022 580.84375 477 580.84375 c 4
 569.438476562 580.84375 652.372070312 527.84375 652.372070312 291.84375 c 4
 652.372070312 56.84375 570.041015625 2.84375 484 2.84375 c 4
 428.235394942 2.84375 391.760789719 31.5250873721 373 70.640625 c 4
 396.372070312 122.84375 l 5
 399.372070312 82.84375 431.372070312 39.84375 484 39.84375 c 4
 550.877929688 39.84375 614.872070312 86.9306640625 614.872070312 291.84375 c 4
 614.872070312 497.62890625 550.701171875 543.84375 477 543.84375 c 4
 401.452148438 543.84375 364.872070312 474.23046875 364.872070312 400.6875 c 4
 364.872070312 353.534633354 377.563316298 248.920901127 287 209 c 5
 275 238 l 5
 336.48903556 271.881349408 327.872070312 360.66790666 327.872070312 400.6875 c 4
234.88671875 557 m 4
 194.500976562 557 152.053710938 530.04296875 152.053710938 474 c 4
 152.053710938 432 171.053710938 406 181.053710938 396 c 5
 159.053710938 376 l 5
 147.053710938 387 118.578125 419 118.578125 474 c 4
 118.578125 553 178.180664062 591 234.88671875 591 c 4
 299.443359374 591 359.331054688 548.098632812 359.331054688 454 c 4
 359.331054688 434.046511628 359.617674419 419.534883721 360 402 c 5
 325.331054688 402 l 5
 325.331054688 416 325.331054688 435 325.331054688 454 c 4
 325.331054688 524.74609375 283.249023437 557 234.88671875 557 c 4
EndSplineSet
Layer: 2
SplineSet
74.6416015625 462.716796875 m 1
 74.6416015625 533.3125 122.641601562 595.180664062 210.256835938 595.180664062 c 0
 277.127929688 595.180664062 341.213867188 557.77734375 360.924804688 484.180664062 c 0
 362.17578125 479.509765625 362.740234375 474.251953125 362.740234375 468.534179688 c 0
 362.740234375 426.805664062 332.671875 360.603515625 320.060546875 319.6171875 c 1
 269.7109375 404.2109375 l 1
 270.772460938 410.453125 275.125 429.859375 275.125 435.522460938 c 0
 275.125 482.2109375 241.194335938 497.180664062 214.4296875 497.180664062 c 0
 182.387695312 497.180664062 167.487304688 475.47265625 167.487304688 451.903320312 c 0
 167.487304688 415.180664062 199.256835938 393.180664062 224.7109375 387.899414062 c 1
 165 327.899414062 l 1
 121.256835938 348.180664062 74.6416015625 399.180664062 74.6416015625 462.716796875 c 1
 74.6416015625 462.716796875 l 1
203.036132812 557 m 0
 162.650390625 557 120.203125 530.04296875 120.203125 474 c 0
 120.203125 432 139.203125 406 149.203125 396 c 1
 127.203125 376 l 1
 115.203125 387 86.7275390625 419 86.7275390625 474 c 0
 86.7275390625 553 146.330078125 591 203.036132812 591 c 0
 267.592773437 591 327.48046875 548.098632812 327.48046875 454 c 0
 327.48046875 434.046511628 320.196561773 419.534883721 310.48046875 402 c 1
 293.48046875 402 l 1
 293.48046875 416 293.48046875 435 293.48046875 454 c 0
 293.48046875 524.74609375 251.3984375 557 203.036132812 557 c 0
246 0 m 1
 100.209 0 22.0552985839 135.215930468 53.21 269 c 0
 57.83402 288.8564 64.2227 306.7422 71.2442 319.5635 c 1
 30.4278 319.667016 l 1
 30.4278 408.000016 l 1
 340.4278 408.000016 l 1
 340.4278 319.000016 l 1
 212.9998 318.000016 l 2
 187.506598938 317.79995635 170.266359773 294.194020623 160.9734 264.000016 c 0
 143.738 208.000016 159.4441 110.000016 245.9998 110.000016 c 0
 317.9568 110.000016 335.9998 142.338916 335.9998 170.000016 c 0
 335.9998 183.000016 332.9998 205.000016 308.9998 192.000016 c 1
 366.9998 286.000016 l 1
 425.9998 272.000016 441.9998 217.000016 441.9998 167.000016 c 0
 441.9998 99.000016 395.9998 1.59999999596e-005 245.9998 1.59999999596e-005 c 1
 246 0 l 1
471 478 m 0
 339 478 429 256.156 292 181.156 c 1
 233 255.156 l 1
 345 331.156 234 584 471 584 c 0
 577.999 584 676 526.375 676 292 c 0
 676 69.426 591.2275 0 487.628 0 c 0
 411.7139 0 370.285 50.0215 361 86 c 1
 426 158 l 1
 431.17676 141.4141 446 104 487.6279 104 c 0
 530.7304 104 570 150.3408 570 292 c 0
 570 439.547 520.585 478 471 478 c 0
EndSplineSet
EndChar

StartChar: si_Mba
Encoding: 51 3513 45
Width: 590
VWidth: 0
Flags: HW
LayerCount: 4
Fore
SplineSet
411.833984375 40 m 0
 504.567382812 40 511.390625 164 511.390625 293 c 0
 511.390625 576.88671875 436.939453125 712 283.833984375 712 c 0
 212.961914062 712 144.485351562 665.926757812 121.161132812 605 c 1
 87.1611328125 618 l 1
 115.360351562 692.592773438 198.1484375 749 283.833984375 749 c 0
 461.833984375 749 548.390625 601.955078125 548.390625 293 c 0
 548.390625 145.134765625 539.03125 3 411.833984375 3 c 0
 362.541015625 3 326.66796875 41.6025390625 326.66796875 90 c 0
 326.66796875 131 347.66796875 147 347.66796875 172 c 0
 347.66796875 200.920898438 322.7578125 207 293.833984375 207 c 0
 264.91015625 207 240 200.920898438 240 172 c 0
 240 147 261 131 261 90 c 0
 261 41.6025390625 225.126953125 3 175.833984375 3 c 0
 61.2373046875 3 53.2373046875 153.317382812 53.2373046875 250.999023438 c 0
 53.2373046875 390.37109375 84.25 523.999023438 171.875976562 523.999023438 c 0
 237.237304688 523.999023438 261.237304688 474 261.237304688 426 c 1
 226.237304688 419 l 1
 226.237304688 470.220703125 201.9375 489 172.237304688 489 c 0
 112.237304688 489 90.2373046875 368 90.2373046875 250.999023438 c 0
 90.2373046875 167.890625 93.9541015625 40 175.833984375 40 c 0
 203.711914062 40 224 62.185546875 224 90 c 0
 224 129 203 140 203 176 c 0
 203 230.030273438 241.509765625 244 293.833984375 244 c 0
 346.158203125 244 384.66796875 230.030273438 384.66796875 176 c 0
 384.66796875 140 363.66796875 129 363.66796875 90 c 0
 363.66796875 62.185546875 383.956054688 40 411.833984375 40 c 0
223.237304688 370 m 0
 223.237304688 385.758789062 226.237304688 397 226.237304688 419 c 1
 261.237304688 426 l 1
 261.237304688 415.9765625 259.237304688 386.337890625 259.237304688 370 c 0
 259.237304688 346 265.462890625 317 302.237304688 317 c 0
 345.432617188 317 346.237304688 381.9609375 346.237304688 402 c 0
 346.237304688 422.0390625 345.432617188 487 302.237304688 487 c 0
 278.462890625 487 262.237304688 470 258.237304688 441 c 1
 227.237304688 444 l 1
 232.237304688 486 254.237304688 523 302.237304688 523 c 0
 380.774414062 523 382.237304688 430.526367188 382.237304688 402 c 0
 382.237304688 373.473632812 380.774414062 281 302.237304688 281 c 0
 245.24609375 281 223.237304688 322.965820312 223.237304688 370 c 0
EndSplineSet
Layer: 2
SplineSet
185.349609375 115 m 0
 145.833984375 115 141.506835938 202 141.506835938 265.912109375 c 0
 141.506835938 348 153.12109375 429 185.12109375 429 c 0
 196.029296875 429 199.1953125 422.934570312 199.540039062 412.546875 c 0
 287.833984375 438 l 0
 286.833984375 481 247.12109375 527 183.12109375 527 c 0
 79.12109375 527 34.833984375 389 34.833984375 253 c 0
 34.833984375 115 65.833984375 0 177.833984375 0 c 0
 244.30859375 0 277.833984375 47 277.833984375 87 c 0
 277.833984375 118 265.833984375 134.673828125 265.833984375 151 c 0
 265.833984375 164.092773438 276.833984375 177 293.833984375 177 c 1
 293.833984375 258 l 1
 222.833984375 258 183.833984375 225.994140625 183.833984375 178 c 0
 183.833984375 141.00390625 213.349609375 115 185.349609375 115 c 0
414.318359375 115 m 0
 386.318359375 115 403.833984375 141.00390625 403.833984375 178 c 0
 403.833984375 225.994140625 364.833984375 258 293.833984375 258 c 1
 293.833984375 177 l 1
 310.833984375 177 321.833984375 164.092773438 321.833984375 151 c 0
 321.833984375 134.673828125 310.833984375 118 310.833984375 87 c 0
 310.833984375 47 355.359375 0 421.833984375 0 c 0
 555.833984375 0 569.349609375 181.99609375 569.349609375 293 c 0
 569.349609375 599.055664062 467.04296875 755 266.259765625 755 c 0
 179.5390625 755 94.9677734375 707.868164062 58.9833984375 613.029296875 c 1
 168.015625 576.85546875 l 1
 185.071289062 618.959960938 225.15625 639.884765625 266.259765625 639.884765625 c 0
 391.181640625 639.884765625 454.833984375 522.796875 454.833984375 293 c 0
 454.833984375 239.959960938 453.833984375 115 414.318359375 115 c 0
278.833984375 440 m 1
 284.833984375 446 293.453125 446.864257812 298.608398438 446.864257812 c 0
 315 446.864257812 317.975585938 425.854492188 317.975585938 404.020507812 c 0
 317.975585938 382.995117188 311.657226562 364 300.833984375 364 c 0
 282.833984375 364 284.833984375 399 287.833984375 438 c 1
 199.540039062 412.546875 l 1
 193.833984375 346 207.260742188 275 294.833984375 275 c 0
 380.833984375 275 391.833984375 347.137695312 391.833984375 412.094726562 c 0
 391.833984375 469.645507812 361.833984375 526 301.833984375 526 c 0
 268.833984375 526 254.833984375 513 242.833984375 498 c 1
 278.833984375 440 l 1
EndSplineSet
EndChar

StartChar: si_Ra
Encoding: 53 3515 46
Width: 714
VWidth: 0
Flags: HW
LayerCount: 4
Fore
SplineSet
194 263 m 5
 194 379 245.999675878 467.83138217 327 548 c 4
 413.100858666 633.958090902 474 697.317647059 474 776 c 5
 510 776 l 5
 510 688 445.689400076 615.531881809 351 521 c 4
 301.528356618 471.610653977 231 379.1 231 263 c 13
 210 249 l 5
 194 263 l 5
231 263 m 4
 231 129 294.163085938 40 400.1796875 40 c 4
 510.942206564 40 572 145.860831228 572 276.064453125 c 4
 572 403.182851325 512.499840859 491 420 491 c 4
 271.217594089 491 231 341 231 263 c 4
194 263 m 4
 194 309 208.60650003 395.115522655 251.499506944 449.999997903 c 4
 265.0381679 467.323621393 287.39453125 475.62890625 307 488 c 5
 336 514 371.08667589 526.629882812 420 526.629882812 c 4
 492.054364789 526.629882812 548.00486345 486.451210747 579.749814018 420.000005211 c 4
 598.677507158 380.378962978 609 331.417896221 609 276.064453125 c 4
 609 125.453125 534.793945312 3 400.1796875 3 c 4
 266.25 3 194 112.3515625 194 263 c 4
EndSplineSet
Layer: 2
SplineSet
173.955078125 276.064453125 m 5
 173.955078125 432 245.240862452 508.556015073 289 552 c 4
 419.71484375 681.7734375 425 720 425 779 c 5
 546 779 l 5
 546 681.149414062 492.953443167 617.001675797 410.955078125 537 c 5
 269 368 l 5
 173.955078125 276.064453125 l 5
225.770507812 467 m 0
 233.498046875 477.913085938 312.086914062 495.506835938 342.955078125 511 c 1
 368.955078125 538 528.976761436 588.000085319 600.169921875 422 c 0
 618.150390625 380.075195312 627.041992188 330.282226562 627.041992188 276.064453125 c 0
 627.041992188 118.177734375 553.000976562 0 400.1796875 0 c 0
 247.997070312 0 173.955078125 118.176757812 173.955078125 276.064453125 c 0
 173.955078125 351.295898438 191.078334141 418.006566311 225.770507812 467 c 0
402.208984375 440.705078125 m 0
 318.028320312 440.705078125 286.734375 362.481445312 286.734375 274.73828125 c 0
 286.734375 185.564453125 318.028320312 111.424804688 402.208984375 111.424804688 c 0
 483.483398438 111.424804688 513.025390625 185.564453125 513.025390625 274.73828125 c 0
 513.025390625 362.481445312 483.483398438 440.705078125 402.208984375 440.705078125 c 0
EndSplineSet
Layer: 3
SplineSet
400.1796875 489 m 4
 267 489 231 353.173828125 231 263 c 4
 231 129 294.163085938 40 400.1796875 40 c 4
 513 40 572 146 572 276.064453125 c 4
 572 402 504.741210938 489 400.1796875 489 c 4
400.1796875 526.629882812 m 4
 534.681251058 526.629882812 609 425.282226562 609 276.064453125 c 4
 609 125.453125 534.793945312 3 400.1796875 3 c 4
 266.25 3 194 112.3515625 194 263 c 4
 194 384.29769825 243.505254592 470.900221143 306.965921396 533.903711198 c 4
 420.175112836 646.297332732 445.947469581 697.656318928 449.807520802 753.5 c 5
 485.807617188 753.5 l 5
 484.39818438 666.536791112 378 558 320 502 c 5
 353 521 371 526.629882812 400.1796875 526.629882812 c 4
EndSplineSet
EndChar

StartChar: si_Ssa
Encoding: 57 3522 47
Width: 585
VWidth: 0
Flags: HW
LayerCount: 4
Fore
SplineSet
227 30 m 1
 219.923322126 52.4465258693 216.724075205 73.738747345 216.724075205 93.9621682682 c 0
 216.724075205 221.833365475 344.628032312 306.974562969 429 371 c 1
 449 371 l 1
 453 350 l 1
 374.057911421 289.917478446 254.385397098 210.019580505 254.385397098 90.0231491078 c 0
 254.385397098 71.0451587987 257.378751891 51.064188499 264 30 c 1
 244 11 l 1
 227 30 l 1
276.833007812 454 m 0
 276.833007812 466.185942511 277.838723697 477.513111971 279.727539062 488 c 0
 292.423776517 558.490754699 345.082067727 591 401.278320312 591 c 0
 457.984375 591 517.586914062 553 517.586914062 474 c 0
 517.586914062 429.732230808 497.269780815 385.565217391 465.72265625 361 c 1
 439.72265625 382 l 1
 466.72265625 402 484.111328125 437.958762887 484.111328125 474 c 0
 484.111328125 530.04296875 441.663085938 557 401.278320312 557 c 0
 352.916015625 557 310.833984375 524.74609375 310.833984375 454 c 0
 310.833984375 435 310.833984375 416 310.833984375 402 c 1
 293.833984375 369 l 1
 284.117333212 397.662790698 276.833007812 421.38372093 276.833007812 454 c 0
75 224.436523438 m 0
 75 107.2421875 161.024414062 30 293.833984375 30 c 0
 426.643554688 30 512.66796875 106.805664062 512.66796875 224 c 0
 512.66796875 299.407226562 474.19140625 365 390 365 c 2
 197.66796875 365 l 2
 113.4765625 365 75 299.84375 75 224.436523438 c 0
38 224.436523438 m 0
 38 319.693359375 90.9033203125 402 197.66796875 402 c 2
 390 402 l 2
 496.764648438 402 549.66796875 319.256835938 549.66796875 224 c 0
 549.66796875 84.5048828125 449.33984375 -7 293.833984375 -7 c 0
 138.328125 -7 38 84.9414062498 38 224.436523438 c 0
70.080078125 474 m 0
 70.080078125 553 129.682617187 591 186.388671875 591 c 0
 242.585375952 591 295.246591092 558.491205092 307.940429688 488 c 0
 309.828847641 477.513270059 310.833007812 466.18594251 310.833007812 454 c 0
 310.833007812 421.38372093 303.549100835 397.662790698 293.833007812 369 c 1
 276.833007812 402 l 1
 276.833007812 416 276.833007812 435 276.833007812 454 c 0
 276.833007812 524.74609375 234.750976562 557 186.388671875 557 c 0
 146.003906249 557 103.555664062 530.04296875 103.555664062 474 c 0
 103.555664062 437.958762887 120.944335938 402 147.944335938 382 c 1
 121.944335938 361 l 1
 90.397211372 385.565217391 70.080078125 429.732230808 70.080078125 474 c 0
EndSplineSet
Layer: 2
SplineSet
346.478515625 333.436523438 m 5
 410.478515625 360.436523438 l 5
 426.478515625 303.436523438 l 5
 367.478515625 246.436523438 286.478515625 203.436523438 301.478515625 100.436523438 c 5
 235.478515625 36.4365234375 l 5
 209.478515625 103.436523438 l 5
 195.478515625 240.436523438 288.478515625 290.436523438 346.478515625 333.436523438 c 5
373.478515625 416.436523438 m 16
 495.861328125 416.436523438 556.91796875 330.088867188 556.91796875 224.436523438 c 0
 556.91796875 -90.5634765625 27.478515625 -90.5595703125 27.478515625 224.436523438 c 0
 27.478515625 330.088867188 88.53515625 416.436523438 210.91796875 416.436523438 c 0
 230.400390625 416.436523438 241.6796875 416.436523438 241.6796875 416.436523438 c 2
 274.91796875 416.436523438 308.91796875 416.436523438 342.716796875 416.436523438 c 2
 342.716796875 416.436523438 348.435546875 416.436523438 373.478515625 416.436523438 c 16
367.478515625 318.436523438 m 0
 302.491210938 318.436523438 281.905273438 318.436523438 216.91796875 318.436523438 c 0
 161.91796875 318.436523438 134.478515625 276.162109375 134.478515625 224.436523438 c 0
 134.478515625 64.359375 449.91796875 64.9599609375 449.91796875 224.436523438 c 0
 449.91796875 276.162109375 422.478515625 318.436523438 367.478515625 318.436523438 c 0
233.435546875 391.436523438 m 1
 243.19140625 416.436523438 l 1
 244.252929688 422.678710938 244.755859375 428.6484375 244.755859375 434.311523438 c 0
 244.755859375 471.944335938 222.526367188 496 194 496 c 0
 164.64453125 496 148.81640625 475 148.81640625 451.1640625 c 0
 148.81640625 439.108398438 155.452148438 419.560546875 163.435546875 410.436523438 c 1
 85.435546875 370.436523438 l 1
 66.1259765625 395.643554688 55.3408203125 428.604492188 55.3408203125 456.407226562 c 0
 55.3408203125 532.13671875 107.440429688 594 194 594 c 0
 270.990234375 594 342.384765625 537.3359375 342.384765625 428 c 0
 342.384765625 396.735351562 335.435546875 358.436523438 323.435546875 319.436523438 c 1
 233.435546875 391.436523438 l 1
350.9609375 391.436523438 m 1
 260.9609375 319.436523438 l 1
 248.9609375 358.436523438 242.01171875 396.735351562 242.01171875 428 c 0
 242.01171875 537.3359375 313.40625 594 390.396484375 594 c 0
 476.956054688 594 529.055664062 532.13671875 529.055664062 456.407226562 c 0
 529.055664062 428.604492188 518.270507812 395.643554688 498.9609375 370.436523438 c 1
 420.9609375 410.436523438 l 1
 428.944335938 419.560546875 435.580078125 439.108398438 435.580078125 451.1640625 c 0
 435.580078125 475 419.751953125 496 390.396484375 496 c 0
 361.870117188 496 339.640625 471.944335938 339.640625 434.311523438 c 0
 339.640625 428.6484375 340.143554688 422.678710938 341.205078125 416.436523438 c 1
 350.9609375 391.436523438 l 1
EndSplineSet
EndChar

StartChar: si_Lla
Encoding: 60 3525 48
Width: 0
VWidth: 0
Flags: HW
LayerCount: 4
Fore
SplineSet
241 591 m 0
 294.070066095 591 316.664739884 564.1875 326 526 c 1
 334.894039735 565 359.024969497 591 405 591 c 0
 493 591 512 471 482 343.5 c 1
 447 354 l 1
 466.090909091 426.081218274 475.214684937 554 405 554 c 0
 345.72294047 554 344 475.768518519 344 435 c 2
 344 369 l 1
 308 369 l 1
 308 435 l 2
 308 487.811414931 293.227036846 554 241 554 c 0
 180.377446049 554 170.590014359 464 198 387 c 0
 204.722653493 368.114754098 207.302734375 350.517418033 207.302734375 323 c 0
 207.302734375 264 250.14233934 200 330 200 c 0
 402.763157895 200 435 233 435 269 c 1
 472.022460938 269 l 1
 472.022460938 216 424.663020837 163 330 163 c 0
 225.415788291 163 159.725016504 242.277569977 170.302734375 323 c 0
 174.321746803 353.670552325 169.859984802 353.060712912 163 376 c 0
 138.083314579 459.319572364 136 591 241 591 c 0
85.333984375 133 m 0
 85.333984375 -39 164.024725666 -112 293.833984375 -112 c 0
 410.833984375 -112 473.508826784 -34.6642144097 491.833984375 37 c 1
 526.833984375 31 l 1
 505.26953125 -55.57421875 439.833984375 -149 293.833984375 -149 c 0
 132 -149 48.333984375 -51.72265625 48.333984375 133 c 0
 48.333984375 286 144 380.5 238 380.5 c 0
 482 380.5 l 1
 482 343.5 l 1
 238 343.5 l 0
 157.155942207 343.5 85.333984375 262.359375 85.333984375 133 c 0
EndSplineSet
Layer: 2
SplineSet
240.631835938 594 m 0
 281.631835938 594 306.631835938 575 323.833984375 546 c 5
 342.833984375 575 367.833984375 594 408.833984375 594 c 4
 495.833984375 594 550.833984375 491 499.833984375 318 c 1
 470.833984375 380 l 1
 432.833984375 416 l 1
 440.833984375 454 436.833984375 496 402.833984375 496 c 4
 368.833984375 496 365.631835938 456 365.631835938 414 c 6
 365.631835938 322 l 5
 286.833984375 322 l 1
 286.833984375 414 l 2
 286.833984375 458 273.833984375 496 246.833984375 496 c 0
 207.833984375 496 209.711331323 453.931899457 217.833984375 416 c 0
 222.377929688 394.780273438 222.681408949 378.247485796 221.833984375 350 c 0
 218.833984375 250 256.020507812 203 326.833984375 203 c 0
 367.327148438 203 397.178614083 233.75391629 400.521484375 266 c 0
 400.728515625 267.997070312 400.833984375 272 400.833984375 272 c 2
 500.833984375 272 l 1
 500.833984375 267.004882812 500.59869968 261.997063948 500.123046875 257 c 0
 493.265625 184.958007812 436.53125 115 316.833984375 115 c 0
 203.833984375 115 133.834647429 202.999917121 145.833984375 299 c 0
 152.359375 351.206054688 149.519688526 334.035200697 134.833984375 386 c 0
 108.833984375 478 122.833984375 594 240.631835938 594 c 0
22.833984375 133 m 0
 22.833984375 328.26953125 145.259765625 416 210.036132812 416 c 2
 496.833984375 416 l 1
 499.833984375 318 l 1
 238.833984375 318 l 2
 180.833984375 318 136.833984375 260 136.833984375 133 c 0
 136.833984375 39.9189453125 188.044921875 -39 293.833984375 -39 c 0
 368.982421875 -39 421.5703125 9.4287109375 430.397460938 73 c 1
 543.833984375 57 l 1
 531.499023438 -57.1005859375 440.91796875 -154 293.833984375 -154 c 0
 107.671875 -154 22.833984375 -22.3154296875 22.833984375 133 c 0
EndSplineSet
EndChar

StartChar: si_Fa
Encoding: 61 3526 49
Width: 0
VWidth: 0
Flags: HW
LayerCount: 4
Fore
SplineSet
59.259765625 292 m 0
 59.259765625 460.068359375 80.4765625 591 194.23828125 591 c 0
 289.404296875 591 308.404296875 509 312.23828125 479 c 1
 316.072265625 509 335.072265625 591 430.23828125 591 c 0
 544 591 565.216796875 460.068225603 565.216796875 292 c 0
 565.216796875 126 516 3 365 3 c 1
 365 40 l 1
 488.095248315 40 528.216796875 147.252595156 528.216796875 292 c 0
 528.216796875 439.270296133 508 554 430.23828125 554 c 0
 339.072265625 554 332.48046875 445.114257812 329.23828125 369.5 c 1
 295.23828125 369.5 l 1
 291.99609375 445.114257812 285.404296875 554 194.23828125 554 c 0
 116.4765625 554 96.259765625 439.270507812 96.259765625 292 c 0
 96.259765625 147.252929688 136.380859375 40 259.4765625 40 c 1
 259.4765625 3 l 1
 108.4765625 3 59.259765625 126 59.259765625 292 c 0
EndSplineSet
Layer: 2
SplineSet
424.474609375 594 m 6
 424.475585938 594 l 6
 570.475585938 594 589.475585938 426 589.475585938 295 c 4
 589.475585938 90 512.475585938 0 359.475585938 0 c 5
 359.475585938 115 l 5
 482.475585938 115 482.475585938 243.274414062 482.475585938 295 c 4
 482.475585938 344.735351562 482.475585938 479 424.475585938 479 c 4
 377.775390625 479 361.844726562 417.25 361.844726562 344.5 c 5
 270.631835938 344.5 l 5
 270.631835938 417.25 254.701171875 479 208.000976562 479 c 4
 150.000976562 479 150.000976562 344.735351562 150.000976562 295 c 4
 150.000976562 243.274414062 150.000976562 115 273.000976562 115 c 5
 273.000976562 0 l 5
 120.000976562 0 43.0009765625 90 43.0009765625 295 c 4
 43.0009765625 426 62.0009765625 594 208.000976562 594 c 4
 260.680664062 594 300.092773438 562.397460938 316.23828125 514.969726562 c 5
 332.3828125 562.397460938 371.794921875 594 424.474609375 594 c 6
EndSplineSet
EndChar

StartChar: si_MatraAa
Encoding: 63 3535 50
Width: 641
VWidth: 0
Flags: HW
LayerCount: 4
Fore
SplineSet
104 530 m 1
 122.578125 536.033203125 140.806640625 539 158.244140625 539 c 0
 239.541992188 539 303.340820312 444.694335938 303.340820312 271 c 0
 303.340820312 97.3057082347 239.542463694 3 158.244140625 3 c 0
 140.806307774 3 122.578197866 5.96706301142 104 12 c 1
 110 48 l 1
 120.432487224 44.639474918 139.210964227 40 158.244140625 40 c 0
 218.810845794 40 266.340820312 121.285893582 266.340820312 271 c 0
 266.340820312 420.713867188 218.810546875 502 158.244140625 502 c 0
 139.2109375 502 120.432617188 497.360351562 110 494 c 1
 104 530 l 1
EndSplineSet
Layer: 2
SplineSet
328.840820312 271 m 4
 328.840820312 510.697265625 197 562 96 542 c 4
 114 441 l 4
 160 450 213.840820312 419.176757812 213.840820312 271 c 4
 213.840820312 122.823242188 160 92 114 101 c 4
 96 0 l 4
 197 -20 328.840820312 31.302734375 328.840820312 271 c 4
EndSplineSet
EndChar

StartChar: si_MatraAe
Encoding: 64 3536 51
Width: 641
VWidth: 0
Flags: HW
LayerCount: 4
Fore
SplineSet
134 158 m 0
 134 260 198.431372549 334 319 506 c 1
 181.5 506 l 1
 181.5 543 l 1
 365.5 543 l 1
 365.5 506 l 1
 238.762435584 325 171 250 171 158 c 0
 171 79 210 40 273 40 c 0
 353.449620119 40 369 126 369 176 c 1
 406 176 l 1
 406 109 389.756318632 3 273 3 c 0
 187.147058824 3 134 54.2288135593 134 158 c 0
EndSplineSet
Layer: 2
SplineSet
156 546 m 5
 391 546 l 5
 391 451 l 5
 274 295 228 243 228 167 c 4
 228 125 251 111 276 111 c 4
 299 111 328 123 328 179 c 5
 424 179 l 5
 424 101 394 0 272 0 c 4
 153 0 120 104 120 167 c 4
 120 268 186 341 264 447 c 5
 156 447 l 5
 156 546 l 5
EndSplineSet
EndChar

StartChar: si_MatraI
Encoding: 66 3538 52
Width: 0
VWidth: 0
Flags: HW
LayerCount: 4
Fore
SplineSet
59.333984375 686 m 4
 59.333984375 795.490742654 161.213867188 863 293.833007812 863 c 4
 426.453125 863 528.333007812 795.491210938 528.333007812 686 c 4
 528.333007812 634.98046875 497.322265625 577.514648438 449.666992188 556 c 5
 425.666992188 561 l 5
 425.666992188 579 l 5
 465.447265625 596.708007812 491.333007812 644.006835938 491.333007812 686 c 4
 491.333007812 769.151367188 411.833007812 826 293.833007812 826 c 4
 175.833984375 826 96.333984375 769.151515152 96.333984375 686 c 4
 96.333984375 644.007001202 122.219718071 596.708210637 162 579 c 5
 162 561 l 5
 138 556 l 5
 90.3444624648 577.514467701 59.333984375 634.980806396 59.333984375 686 c 4
EndSplineSet
Layer: 2
SplineSet
293.833984375 755 m 4
 205.060546875 755 148.833984375 718 148.833984375 661 c 4
 148.833984375 619 163.833984375 581 216.833984375 559 c 5
 223.833984375 510 l 5
 135.833984375 503 l 5
 72.833984375 527 33.833984375 598 33.833984375 661 c 4
 33.833984375 806 155.833984375 866 293.833984375 866 c 4
 431.833984375 866 553.833984375 806 553.833984375 661 c 4
 553.833984375 598 514.833984375 527 451.833984375 503 c 5
 363.833984375 510 l 5
 370.833984375 559 l 5
 423.833984375 581 438.833984375 619 438.833984375 661 c 4
 438.833984375 719 382.607421875 755 293.833984375 755 c 4
EndSplineSet
EndChar

StartChar: si_MatraR
Encoding: 70 3544 56
Width: 641
VWidth: 0
Flags: HW
LayerCount: 4
Fore
SplineSet
48 144 m 0
 48 221.253969461 88.6601198532 283.911998461 152.995714024 283.911998461 c 0
 187.480172675 283.911998461 217.903801045 271.368628265 234 250 c 1
 227 214 l 1
 203.396619537 241.634868744 178.188507752 248.329829141 159.398538481 248.329829141 c 0
 109.920410352 248.329829141 85 198.199233783 85 144 c 0
 85 81.142578125 104 44 148 44 c 0
 166.885245902 44 200.631013169 58.8605213652 223.901330948 58.8605213652 c 0
 230.20370868 58.8605213652 235.737704918 57.7704918033 240 55 c 1
 262 6 l 1
 251.333333333 21 240.777777778 26 229.296296296 26 c 0
 206.333333333 26 179.666666667 6 141 6 c 0
 66 6 48 92.90234375 48 144 c 0
56 371 m 1
 54.6664889866 385.075949586 53.9037747905 394.644489433 53.9037747905 408 c 0
 53.9037747905 484.782174012 79.1131248182 550 166 550 c 0
 235.701171875 550 275.627847796 505.242727988 275.627847796 402 c 0
 275.627847796 290.008905865 260.309668226 209.9688341 260.309668226 144.819789576 c 0
 260.309668226 100.021078788 267.552728297 62.2634530266 292 26 c 1
 262 6 l 1
 229.902928529 50.7355436919 220.566795773 94.2129675623 220.566795773 143.507995773 c 0
 220.566795773 212.071359594 238.627929688 291.889118977 238.627929688 402 c 0
 238.627929688 479.432373047 212.176661591 513 166 513 c 0
 108.338683177 513 91.6083984375 464.774867958 91.6083984375 408 c 0
 91.6088687246 397.405125695 92.1150336002 382.166395761 93 371 c 1
 56 371 l 1
EndSplineSet
Layer: 2
SplineSet
217 269 m 1
 203 192 l 1
 184 204.615234375 129 216.826171875 129 151 c 0
 129 66.0244140625 193 92 209 99 c 1
 256 0 l 1
 223 37 188 3 140 3 c 0
 64 3 38 90 38 143 c 0
 38 316.092773438 181 309 217 269 c 1
300 367 m 0
 292.372070312 238.272460938 264.602539062 130 323 43 c 1
 256 0 l 1
 165 113 188.073242188 184.047851562 207 367 c 0
 212.7421875 422.504882812 208 455 173 455 c 0
 138 455 133 422.478515625 139 367 c 1
 46 367 l 1
 35.58984375 495 79.685546875 552.9296875 173 552.9296875 c 0
 266.314453125 552.9296875 308 502 300 367 c 0
EndSplineSet
EndChar

StartChar: si_MatraLs
Encoding: 77 3551 62
Width: 0
VWidth: 0
Flags: HW
LayerCount: 4
Fore
SplineSet
45 354 m 4
 45 464 76 509 170 509 c 1
 170 472 l 1
 103.824 472 82 437.741935484 82 354 c 0
 82 329 86 285 123 285 c 0
 160 285 115 411 218 411 c 0
 313 411 324 293.564453125 324 221.99609375 c 0
 324 78.35546875 285.331054688 3 200 3 c 0
 135.342857143 3 116.742857143 44.7454545455 107 59 c 1
 137 77 l 1
 143.6 67.5818181818 156.2 40 200 40 c 0
 259.869369015 40 287 102.62395242 287 221.99609375 c 0
 287 279.554005672 279.839622642 374 218 374 c 0
 146 374 216 248 123 248 c 0
 60 248 45 300 45 354 c 4
EndSplineSet
Layer: 2
SplineSet
234.025390625 221.99609375 m 5
 234.025390625 221.99609375 l 5
 234.025390625 270.99609375 233 309.99609375 212 309.99609375 c 4
 176.815429688 309.99609375 216 233 123 233 c 4
 48 233 32.1845703125 295.00390625 32.1845703125 349.00390625 c 4
 32.1845703125 459.00390625 76 512.00390625 170 512.00390625 c 5
 170 435.00390625 l 5
 140 435.00390625 114.184570312 408.00390625 114.184570312 365 c 4
 114.184570312 340 116.887695312 325 132.184570312 325 c 4
 161 325 115 416 218 416 c 4
 313 416 336.184570312 293.564453125 336.184570312 221.99609375 c 4
 336.184570312 78.35546875 285.331054688 0 200 0 c 4
 127 0 99 40 88 54 c 5
 150 112 l 5
 159 103 163 93.5107421875 184 93.5107421875 c 4
 215 93.5107421875 234.025390625 146.381835938 234.025390625 221.99609375 c 5
EndSplineSet
EndChar

StartChar: si_KU
Encoding: 92 -1 77
Width: 810
VWidth: 0
Flags: HW
LayerCount: 4
Fore
SplineSet
618 8 m 1
 596.294625965 -0.769540351867 569.525390625 -22.2552393353 569.525390625 -84 c 0
 569.525390625 -138.228515625 598.000976562 -165 644 -165 c 0
 703.499023438 -165 715 -107.860351562 715 -74.6396484375 c 1
 751 -74.6396484375 l 1
 751 -123.577148438 737.930664062 -201 644 -201 c 0
 575.764648438 -201 533.525390625 -162.330078125 533.525390625 -84 c 0
 533.525390625 0.5634765625 571.760458814 28.570353626 605 42 c 1
 618 8 l 1
735 261 m 0
 735 121.214611872 702.123391125 41.9880562206 618 8 c 1
 605 42 l 1
 673.268547212 69.5822834732 699 140 699 261 c 0
 699 470.148003473 620.182612603 545 530 545 c 0
 461.790226614 545 406.785507632 494.647141463 358 433 c 2
 138 155 l 1
 113 184 l 1
 331 458 l 2
 386.471892699 527.721553208 452.541844057 582 530 582 c 0
 639.393109962 582 735 494.280465411 735 261 c 0
522.04296875 196 m 0
 522.04296875 123.088888889 509.497782939 3 406 3 c 0
 347.939453125 3 323 48 322 79 c 1
 322 48 299.14453125 3 238 3 c 0
 170.808667453 3 154 48.0372295673 154 105 c 0
 154 120.909090909 160.222222222 169.772727273 138 155 c 1
 162 190 l 1
 192.642857143 198.607594937 188 129.746835443 188 105 c 0
 188 68.7001953125 198.005159198 40 238 40 c 0
 293 40 304 108.077148438 304 170 c 1
 340 170 l 1
 340 108.077148438 351 40 406 40 c 0
 482.448449797 40 485 157.618963068 485 196 c 0
 485 336.163390937 433.232648577 387.666992188 374 387.666992188 c 0
 335 387.666992188 316 375 299 360 c 1
 285 382 l 1
 308 402 337 424.666992188 374 424.666992188 c 0
 452.999739503 424.666992188 522.04296875 363.220998319 522.04296875 196 c 0
149.72265625 474 m 0
 149.72265625 407.775810088 193 368 270 356 c 1
 262 325 l 1
 175 338 116.247070312 390.37755102 116.247070312 474 c 0
 116.247070312 553 175.849609375 591 232.555664062 591 c 0
 297.112304688 591 357 548.098632812 357 454 c 0
 323 402 l 1
 323 416 323 435 323 454 c 0
 323 524.74609375 280.91796875 557 232.555664062 557 c 0
 192.169921875 557 149.72265625 530.04296875 149.72265625 474 c 0
EndSplineSet
Layer: 2
SplineSet
518.372070312 473 m 4
 600.372070312 473 646.087890625 399 646.087890625 267 c 4
 646.087890625 157 619.190429688 105 576.087890625 105 c 5
 576.087890625 -0 l 5
 679.6875 0 757.087890625 70 757.087890625 267 c 4
 757.087890625 490 648.372070312 585 518.372070312 585 c 4
 428.372070312 585 376.107254719 545.304738173 327.459960938 489 c 6
 327.459960938 489 239.4599285 386.000029489 219.459960938 364 c 4
 159.520507812 298.06640625 175.459960938 318 108.459960938 249 c 5
 111.459960938 115 l 5
 119.91796875 122.674804688 395.807634658 412.307600323 399.372070312 416 c 4
 438.951171875 457 465.372070312 473 518.372070312 473 c 4
655.087890625 68 m 1
 685.087890625 -8 l 1
 653.087890625 -8 614.087890625 -31 614.087890625 -74 c 0
 614.087890625 -96 621.087890625 -119 649.669921875 -119 c 0
 679.087890625 -119 684.087890625 -92 684.087890625 -71 c 1
 768.087890625 -71 l 1
 768.087890625 -149 741.087890625 -204 650.087890625 -204 c 0
 547.087890625 -204 526.087890625 -131 526.087890625 -89 c 0
 526.087890625 53.84375 635.2421875 62.8515625 655.087890625 68 c 1
112 126 m 1
 151.372070312 214 l 1
 197 206 l 1
 203 197 210.459960938 191.751953125 210.459960938 156 c 0
 210.459960938 138.591796875 212.092773438 109 235.372070312 109 c 0
 254.029296875 109 270.372070312 119 270.372070312 160 c 2
 270.372070312 227 l 1
 360.372070312 227 l 1
 360.372070312 160 l 2
 360.372070312 122 372.372070312 109 398.372070312 109 c 0
 433.372070312 109 438.459960938 165.987304688 438.459960938 210 c 0
 438.459960938 335.987304688 358.372070312 364 307.372070312 346 c 1
 380.372070312 426 l 1
 402.813476562 437 545.459960938 431 545.459960938 210 c 0
 545.459960938 112.106445312 505.415039062 0 399.415039062 -0 c 0
 360.415039062 -0 325.415039062 29 316 52 c 1
 307.415039062 31 276.415039062 0 240 -0 c 0
 83 -0 175.540039062 165 112 126 c 1
239.987304688 594 m 0
 316.977539062 594 388.372070312 537.3359375 388.372070312 428 c 0
 388.372070312 396.735351562 377.459960938 389.899414062 352.459960938 369.899414062 c 1
 289.178710938 416.436523438 l 1
 290.240234375 422.678710938 290.743164062 428.6484375 290.743164062 434.311523438 c 0
 290.743164062 471.944335938 266.8984375 496 238.372070312 496 c 0
 210.538085938 496 196.947265625 475.012695312 196.947265625 451.903320312 c 0
 196.947265625 411.899414062 224.170898438 394.899414062 254.170898438 387.899414062 c 1
 194.459960938 327.899414062 l 1
 149.170898438 344.899414062 104.372070312 391.899414062 104.372070312 461.536132812 c 0
 104.372070312 532.131835938 152.372070312 594 239.987304688 594 c 0
EndSplineSet
EndChar

